Lora-Italic.ufo
<glyph name="exclam" format="2">
  <advance width="272"/>
  <unicode hex="0021"/>
  <outline>
    <contour>
      <point x="161" y="716" type="curve" smooth="yes"/>
      <point x="120" y="716"/>
      <point x="100" y="678"/>
      <point x="101" y="643" type="curve" smooth="yes"/>
      <point x="116" y="230" type="line"/>
      <point x="153" y="230" type="line"/>
      <point x="212" y="643" type="line" smooth="yes"/>
      <point x="217" y="678"/>
      <point x="204" y="716"/>
    </contour>
    <contour>
      <point x="129" y="113" type="curve" smooth="yes"/>
      <point x="98" y="113"/>
      <point x="69" y="84"/>
      <point x="67" y="48" type="curve" smooth="yes"/>
      <point x="65" y="12"/>
      <point x="90" y="-16"/>
      <point x="121" y="-16" type="curve" smooth="yes"/>
      <point x="152" y="-16"/>
      <point x="182" y="12"/>
      <point x="184" y="48" type="curve" smooth="yes"/>
      <point x="186" y="84"/>
      <point x="162" y="113"/>
    </contour>
  </outline>
</glyph>
<glyph name="quotedbl" format="2">
  <advance width="356"/>
  <unicode hex="0022"/>
  <outline>
    <contour>
      <point x="326" y="716" type="line"/>
      <point x="248" y="716" type="line"/>
      <point x="242" y="491" type="line"/>
      <point x="304" y="491" type="line"/>
    </contour>
    <contour>
      <point x="163" y="716" type="line"/>
      <point x="84" y="716" type="line"/>
      <point x="79" y="491" type="line"/>
      <point x="141" y="491" type="line"/>
    </contour>
  </outline>
</glyph>
<glyph name="dollar" format="2">
  <advance width="529"/>
  <unicode hex="0024"/>
  <outline>
    <contour>
      <point x="221" y="-153" type="line"/>
      <point x="273" y="-153" type="line"/>
      <point x="281" y="-16" type="line"/>
      <point x="412" y="-7"/>
      <point x="480" y="77"/>
      <point x="485" y="170" type="curve" smooth="yes"/>
      <point x="491" y="290"/>
      <point x="386" y="342"/>
      <point x="290" y="393" type="curve" smooth="yes"/>
      <point x="213" y="436"/>
      <point x="142" y="478"/>
      <point x="143" y="558" type="curve" smooth="yes"/>
      <point x="144" y="617"/>
      <point x="188" y="677"/>
      <point x="272" y="677" type="curve" smooth="yes"/>
      <point x="389" y="677"/>
      <point x="420" y="594"/>
      <point x="421" y="498" type="curve"/>
      <point x="458" y="498" type="line"/>
      <point x="470" y="716" type="line"/>
      <point x="420" y="716" type="line"/>
      <point x="421" y="671" type="line"/>
      <point x="386" y="696"/>
      <point x="350" y="710"/>
      <point x="313" y="715" type="curve"/>
      <point x="320" y="833" type="line"/>
      <point x="266" y="833" type="line"/>
      <point x="260" y="716" type="line"/>
      <point x="113" y="709"/>
      <point x="65" y="604"/>
      <point x="62" y="541" type="curve" smooth="yes"/>
      <point x="57" y="421"/>
      <point x="156" y="371"/>
      <point x="248" y="321" type="curve" smooth="yes"/>
      <point x="329" y="278"/>
      <point x="404" y="236"/>
      <point x="400" y="148" type="curve" smooth="yes"/>
      <point x="397" y="75"/>
      <point x="338" y="23"/>
      <point x="260" y="23" type="curve" smooth="yes"/>
      <point x="154" y="23"/>
      <point x="87" y="77"/>
      <point x="86" y="200" type="curve"/>
      <point x="51" y="200" type="line"/>
      <point x="40" y="-13" type="line"/>
      <point x="94" y="-13" type="line"/>
      <point x="91" y="19" type="line"/>
      <point x="132" y="-4"/>
      <point x="186" y="-14"/>
      <point x="227" y="-16" type="curve"/>
    </contour>
  </outline>
</glyph>
<glyph name="hyphen" format="2">
  <advance width="483"/>
  <unicode hex="002D"/>
  <outline>
    <contour>
      <point x="421" y="353" type="line"/>
      <point x="66" y="353" type="line"/>
      <point x="63" y="287" type="line"/>
      <point x="418" y="291" type="line"/>
    </contour>
  </outline>
</glyph>
<glyph name="zero" format="2">
  <advance width="597"/>
  <unicode hex="0030"/>
  <outline>
    <contour>
      <point x="320" y="716" type="curve" smooth="yes"/>
      <point x="139" y="716"/>
      <point x="63" y="518"/>
      <point x="55" y="350" type="curve" smooth="yes"/>
      <point x="46" y="183"/>
      <point x="88" y="-16"/>
      <point x="287" y="-16" type="curve" smooth="yes"/>
      <point x="468" y="-16"/>
      <point x="541" y="184"/>
      <point x="550" y="350" type="curve" smooth="yes"/>
      <point x="558" y="517"/>
      <point x="509" y="716"/>
    </contour>
    <contour>
      <point x="322" y="678" type="curve" smooth="yes"/>
      <point x="440" y="678"/>
      <point x="461" y="493"/>
      <point x="453" y="331" type="curve" smooth="yes"/>
      <point x="445" y="184"/>
      <point x="405" y="23"/>
      <point x="291" y="23" type="curve" smooth="yes"/>
      <point x="162" y="23"/>
      <point x="144" y="229"/>
      <point x="151" y="368" type="curve" smooth="yes"/>
      <point x="159" y="517"/>
      <point x="208" y="678"/>
    </contour>
  </outline>
</glyph>
<glyph name="one" format="2">
  <advance width="354"/>
  <unicode hex="0031"/>
  <outline>
    <contour>
      <point x="260" y="716" type="line"/>
      <point x="226" y="716" type="line"/>
      <point x="31" y="572" type="line"/>
      <point x="49" y="542" type="line"/>
      <point x="171" y="619" type="line"/>
      <point x="151" y="147" type="line" smooth="yes"/>
      <point x="148" y="78"/>
      <point x="127" y="36"/>
      <point x="58" y="33" type="curve"/>
      <point x="57" y="0" type="line"/>
      <point x="305" y="0" type="line"/>
      <point x="307" y="44" type="line"/>
      <point x="279" y="43"/>
      <point x="251" y="41"/>
      <point x="223" y="40" type="curve"/>
      <point x="227" y="59"/>
      <point x="228" y="83"/>
      <point x="229" y="109" type="curve" smooth="yes"/>
    </contour>
  </outline>
</glyph>
<glyph name="three" format="2">
  <advance width="545"/>
  <unicode hex="0033"/>
  <outline>
    <contour>
      <point x="236" y="-16" type="curve" smooth="yes"/>
      <point x="362" y="-16"/>
      <point x="487" y="59"/>
      <point x="494" y="195" type="curve" smooth="yes"/>
      <point x="499" y="289"/>
      <point x="434" y="365"/>
      <point x="306" y="376" type="curve"/>
      <point x="421" y="404"/>
      <point x="473" y="479"/>
      <point x="476" y="543" type="curve" smooth="yes"/>
      <point x="483" y="669"/>
      <point x="388" y="716"/>
      <point x="282" y="716" type="curve" smooth="yes"/>
      <point x="144" y="716"/>
      <point x="69" y="626"/>
      <point x="69" y="566" type="curve" smooth="yes"/>
      <point x="69" y="538"/>
      <point x="88" y="520"/>
      <point x="113" y="520" type="curve" smooth="yes"/>
      <point x="138" y="520"/>
      <point x="156" y="540"/>
      <point x="156" y="563" type="curve" smooth="yes"/>
      <point x="156" y="574"/>
      <point x="154" y="589"/>
      <point x="144" y="602" type="curve"/>
      <point x="152" y="635"/>
      <point x="204" y="677"/>
      <point x="266" y="677" type="curve" smooth="yes"/>
      <point x="362" y="677"/>
      <point x="386" y="614"/>
      <point x="382" y="532" type="curve" smooth="yes"/>
      <point x="379" y="478"/>
      <point x="340" y="392"/>
      <point x="235" y="392" type="curve" smooth="yes"/>
      <point x="221" y="392"/>
      <point x="208" y="392"/>
      <point x="194" y="392" type="curve"/>
      <point x="192" y="347" type="line"/>
      <point x="213" y="348"/>
      <point x="231" y="349"/>
      <point x="258" y="349" type="curve" smooth="yes"/>
      <point x="382" y="349"/>
      <point x="398" y="246"/>
      <point x="395" y="188" type="curve" smooth="yes"/>
      <point x="390" y="89"/>
      <point x="330" y="27"/>
      <point x="230" y="27" type="curve" smooth="yes"/>
      <point x="178" y="27"/>
      <point x="123" y="47"/>
      <point x="111" y="92" type="curve"/>
      <point x="122" y="104"/>
      <point x="125" y="120"/>
      <point x="125" y="132" type="curve" smooth="yes"/>
      <point x="125" y="155"/>
      <point x="107" y="177"/>
      <point x="80" y="177" type="curve" smooth="yes"/>
      <point x="53" y="177"/>
      <point x="33" y="158"/>
      <point x="31" y="128" type="curve" smooth="yes"/>
      <point x="26" y="64"/>
      <point x="92" y="-16"/>
    </contour>
  </outline>
</glyph>
<glyph name="four" format="2">
  <advance width="527"/>
  <unicode hex="0034"/>
  <outline>
    <contour>
      <point x="211" y="0" type="line"/>
      <point x="454" y="0" type="line"/>
      <point x="457" y="41" type="line"/>
      <point x="378" y="38" type="line"/>
      <point x="385" y="58"/>
      <point x="386" y="82"/>
      <point x="387" y="109" type="curve"/>
      <point x="391" y="193" type="line"/>
      <point x="490" y="193" type="line"/>
      <point x="493" y="249" type="line"/>
      <point x="393" y="250" type="line"/>
      <point x="413" y="716" type="line"/>
      <point x="379" y="716" type="line"/>
      <point x="5" y="242" type="line"/>
      <point x="3" y="193" type="line"/>
      <point x="309" y="193" type="line"/>
      <point x="307" y="159" type="line" smooth="yes"/>
      <point x="303" y="66"/>
      <point x="279" y="37"/>
      <point x="213" y="33" type="curve"/>
    </contour>
    <contour>
      <point x="312" y="251" type="line"/>
      <point x="68" y="255" type="line"/>
      <point x="327" y="577" type="line"/>
      <point x="329" y="577" type="line"/>
    </contour>
  </outline>
</glyph>
<glyph name="five" format="2">
  <advance width="523"/>
  <unicode hex="0035"/>
  <outline>
    <contour>
      <point x="484" y="765" type="line"/>
      <point x="458" y="765" type="line"/>
      <point x="456" y="720"/>
      <point x="428" y="700"/>
      <point x="353" y="700" type="curve" smooth="yes"/>
      <point x="109" y="700" type="line"/>
      <point x="83" y="380" type="line"/>
      <point x="110" y="355" type="line"/>
      <point x="150" y="380"/>
      <point x="197" y="389"/>
      <point x="230" y="389" type="curve" smooth="yes"/>
      <point x="372" y="389"/>
      <point x="381" y="266"/>
      <point x="377" y="191" type="curve" smooth="yes"/>
      <point x="375" y="106"/>
      <point x="325" y="28"/>
      <point x="228" y="23" type="curve" smooth="yes"/>
      <point x="181" y="21"/>
      <point x="117" y="42"/>
      <point x="116" y="92" type="curve"/>
      <point x="126" y="104"/>
      <point x="130" y="121"/>
      <point x="130" y="133" type="curve" smooth="yes"/>
      <point x="130" y="156"/>
      <point x="113" y="177"/>
      <point x="85" y="177" type="curve" smooth="yes"/>
      <point x="59" y="177"/>
      <point x="38" y="158"/>
      <point x="36" y="128" type="curve" smooth="yes"/>
      <point x="30" y="60"/>
      <point x="94" y="-16"/>
      <point x="222" y="-16" type="curve" smooth="yes"/>
      <point x="352" y="-16"/>
      <point x="468" y="61"/>
      <point x="476" y="209" type="curve" smooth="yes"/>
      <point x="481" y="317"/>
      <point x="428" y="434"/>
      <point x="264" y="434" type="curve" smooth="yes"/>
      <point x="206" y="434"/>
      <point x="158" y="421"/>
      <point x="127" y="408" type="curve"/>
      <point x="150" y="629" type="line"/>
      <point x="469" y="636" type="line"/>
    </contour>
  </outline>
</glyph>
<glyph name="equal" format="2">
  <advance width="530"/>
  <unicode hex="003D"/>
  <guideline x="509" y="365" angle="0"/>
  <outline>
    <contour>
      <point x="53" y="465" type="line"/>
      <point x="51" y="415" type="line"/>
      <point x="497" y="415" type="line"/>
      <point x="499" y="465" type="line"/>
    </contour>
    <contour>
      <point x="45" y="315" type="line"/>
      <point x="43" y="265" type="line"/>
      <point x="489" y="265" type="line"/>
      <point x="491" y="315" type="line"/>
    </contour>
  </outline>
</glyph>
<glyph name="question" format="2">
  <advance width="473"/>
  <unicode hex="003F"/>
  <outline>
    <contour>
      <point x="222" y="188" type="curve" smooth="yes"/>
      <point x="251" y="188"/>
      <point x="280" y="193"/>
      <point x="302" y="206" type="curve"/>
      <point x="292" y="241" type="line"/>
      <point x="279" y="236"/>
      <point x="263" y="234"/>
      <point x="253" y="234" type="curve" smooth="yes"/>
      <point x="222" y="234"/>
      <point x="213" y="251"/>
      <point x="214" y="267" type="curve" smooth="yes"/>
      <point x="218" y="334"/>
      <point x="432" y="406"/>
      <point x="447" y="542" type="curve" smooth="yes"/>
      <point x="457" y="625"/>
      <point x="414" y="716"/>
      <point x="260" y="716" type="curve" smooth="yes"/>
      <point x="134" y="716"/>
      <point x="51" y="632"/>
      <point x="51" y="572" type="curve" smooth="yes"/>
      <point x="51" y="543"/>
      <point x="71" y="523"/>
      <point x="98" y="523" type="curve" smooth="yes"/>
      <point x="125" y="523"/>
      <point x="143" y="544"/>
      <point x="143" y="568" type="curve" smooth="yes"/>
      <point x="143" y="580"/>
      <point x="140" y="597"/>
      <point x="128" y="607" type="curve"/>
      <point x="135" y="638"/>
      <point x="185" y="677"/>
      <point x="243" y="677" type="curve" smooth="yes"/>
      <point x="336" y="677"/>
      <point x="363" y="617"/>
      <point x="357" y="544" type="curve" smooth="yes"/>
      <point x="351" y="464"/>
      <point x="294" y="413"/>
      <point x="241" y="370" type="curve" smooth="yes"/>
      <point x="194" y="331"/>
      <point x="149" y="298"/>
      <point x="146" y="255" type="curve" smooth="yes"/>
      <point x="145" y="206"/>
      <point x="197" y="188"/>
    </contour>
    <contour>
      <point x="215" y="-16" type="curve" smooth="yes"/>
      <point x="246" y="-16"/>
      <point x="271" y="10"/>
      <point x="272" y="43" type="curve" smooth="yes"/>
      <point x="274" y="75"/>
      <point x="252" y="102"/>
      <point x="222" y="102" type="curve" smooth="yes"/>
      <point x="194" y="102"/>
      <point x="166" y="75"/>
      <point x="164" y="43" type="curve" smooth="yes"/>
      <point x="163" y="6"/>
      <point x="187" y="-16"/>
    </contour>
  </outline>
</glyph>
<glyph name="at" format="2">
  <advance width="792"/>
  <unicode hex="0040"/>
  <outline>
    <contour>
      <point x="410" y="636" type="curve" smooth="yes"/>
      <point x="171" y="623"/>
      <point x="51" y="425"/>
      <point x="43" y="257" type="curve" smooth="yes"/>
      <point x="33" y="65"/>
      <point x="146" y="-100"/>
      <point x="393" y="-95" type="curve" smooth="yes"/>
      <point x="498" y="-93"/>
      <point x="590" y="-58"/>
      <point x="658" y="16" type="curve"/>
      <point x="635" y="41" type="line"/>
      <point x="562" y="-42"/>
      <point x="462" y="-56"/>
      <point x="394" y="-54" type="curve" smooth="yes"/>
      <point x="246" y="-50"/>
      <point x="105" y="46"/>
      <point x="116" y="263" type="curve" smooth="yes"/>
      <point x="125" y="431"/>
      <point x="235" y="583"/>
      <point x="400" y="596" type="curve" smooth="yes"/>
      <point x="566" y="609"/>
      <point x="699" y="518"/>
      <point x="681" y="277" type="curve" smooth="yes"/>
      <point x="671" y="159"/>
      <point x="608" y="88"/>
      <point x="552" y="100" type="curve" smooth="yes"/>
      <point x="517" y="108"/>
      <point x="512" y="162"/>
      <point x="519" y="214" type="curve" smooth="yes"/>
      <point x="527" y="280"/>
      <point x="546" y="378"/>
      <point x="563" y="469" type="curve"/>
      <point x="529" y="478"/>
      <point x="489" y="482"/>
      <point x="458" y="482" type="curve" smooth="yes"/>
      <point x="305" y="482"/>
      <point x="221" y="355"/>
      <point x="213" y="209" type="curve" smooth="yes"/>
      <point x="208" y="111"/>
      <point x="252" y="70"/>
      <point x="309" y="70" type="curve" smooth="yes"/>
      <point x="372" y="70"/>
      <point x="425" y="122"/>
      <point x="471" y="243" type="curve"/>
      <point x="454" y="166"/>
      <point x="436" y="82"/>
      <point x="527" y="66" type="curve" smooth="yes"/>
      <point x="593" y="54"/>
      <point x="739" y="108"/>
      <point x="750" y="318" type="curve" smooth="yes"/>
      <point x="758" y="478"/>
      <point x="647" y="649"/>
    </contour>
    <contour>
      <point x="433" y="452" type="curve" smooth="yes"/>
      <point x="458" y="452"/>
      <point x="479" y="449"/>
      <point x="493" y="443" type="curve"/>
      <point x="485" y="303"/>
      <point x="399" y="108"/>
      <point x="327" y="108" type="curve" smooth="yes"/>
      <point x="293" y="108"/>
      <point x="276" y="151"/>
      <point x="280" y="218" type="curve" smooth="yes"/>
      <point x="285" y="323"/>
      <point x="338" y="452"/>
    </contour>
  </outline>
</glyph>
<glyph name="D" format="2">
  <advance width="738"/>
  <unicode hex="0044"/>
  <anchor x="377" y="351" name="center"/>
  <anchor x="393" y="702" name="top"/>
  <outline>
    <contour>
      <point x="309" y="701" type="curve" smooth="yes"/>
      <point x="77" y="700" type="line"/>
      <point x="74" y="656" type="line"/>
      <point x="99" y="657"/>
      <point x="123" y="659"/>
      <point x="148" y="660" type="curve"/>
      <point x="145" y="640"/>
      <point x="143" y="615"/>
      <point x="141" y="588" type="curve" smooth="yes"/>
      <point x="117" y="156" type="line"/>
      <point x="114" y="85"/>
      <point x="117" y="36"/>
      <point x="42" y="33" type="curve"/>
      <point x="40" y="0" type="line"/>
      <point x="299" y="0" type="line" smooth="yes"/>
      <point x="564" y="0"/>
      <point x="695" y="181"/>
      <point x="695" y="376" type="curve" smooth="yes"/>
      <point x="695" y="599"/>
      <point x="541" y="702"/>
    </contour>
    <contour>
      <point x="303" y="664" type="curve" smooth="yes"/>
      <point x="507" y="664"/>
      <point x="602" y="552"/>
      <point x="602" y="380" type="curve" smooth="yes"/>
      <point x="602" y="188"/>
      <point x="479" y="38"/>
      <point x="298" y="38" type="curve" smooth="yes"/>
      <point x="265" y="38"/>
      <point x="235" y="38"/>
      <point x="191" y="40" type="curve"/>
      <point x="194" y="57"/>
      <point x="196" y="82"/>
      <point x="198" y="118" type="curve" smooth="yes"/>
      <point x="221" y="551" type="line"/>
      <point x="225" y="629"/>
      <point x="227" y="664"/>
    </contour>
  </outline>
</glyph>
<glyph name="G" format="2">
  <advance width="753"/>
  <unicode hex="0047"/>
  <anchor x="358" y="0" name="bottom"/>
  <anchor x="430" y="702" name="top"/>
  <outline>
    <contour>
      <point x="366" y="-16" type="curve" smooth="yes"/>
      <point x="410" y="-16"/>
      <point x="472" y="-6"/>
      <point x="514" y="10" type="curve" smooth="yes"/>
      <point x="563" y="29"/>
      <point x="601" y="36"/>
      <point x="623" y="36" type="curve" smooth="yes"/>
      <point x="647" y="36" type="line"/>
      <point x="655" y="188" type="line" smooth="yes"/>
      <point x="657" y="215"/>
      <point x="658" y="307"/>
      <point x="733" y="307" type="curve"/>
      <point x="735" y="340" type="line"/>
      <point x="512" y="340" type="line"/>
      <point x="510" y="296" type="line"/>
      <point x="533" y="297"/>
      <point x="557" y="299"/>
      <point x="580" y="300" type="curve"/>
      <point x="578" y="266"/>
      <point x="577" y="233"/>
      <point x="575" y="199" type="curve"/>
      <point x="569" y="82" type="line"/>
      <point x="515" y="47"/>
      <point x="448" y="32"/>
      <point x="395" y="32" type="curve" smooth="yes"/>
      <point x="237" y="32"/>
      <point x="134" y="169"/>
      <point x="144" y="358" type="curve" smooth="yes"/>
      <point x="154" y="544"/>
      <point x="275" y="676"/>
      <point x="417" y="676" type="curve" smooth="yes"/>
      <point x="533" y="676"/>
      <point x="620" y="605"/>
      <point x="622" y="480" type="curve"/>
      <point x="658" y="480" type="line"/>
      <point x="670" y="709" type="line"/>
      <point x="615" y="709" type="line"/>
      <point x="617" y="662" type="line"/>
      <point x="562" y="695"/>
      <point x="485" y="716"/>
      <point x="413" y="716" type="curve" smooth="yes"/>
      <point x="180" y="716"/>
      <point x="60" y="523"/>
      <point x="50" y="335" type="curve" smooth="yes"/>
      <point x="38" y="116"/>
      <point x="165" y="-16"/>
    </contour>
  </outline>
</glyph>
<glyph name="I" format="2">
  <advance width="333"/>
  <unicode hex="0049"/>
  <anchor x="153" y="0" name="bottom"/>
  <anchor x="262" y="0" name="ogonek"/>
  <anchor x="197" y="702" name="top"/>
  <anchor x="33" y="700" name="topleft"/>
  <outline>
    <contour>
      <point x="299" y="700" type="line"/>
      <point x="78" y="700" type="line"/>
      <point x="76" y="656" type="line"/>
      <point x="100" y="657"/>
      <point x="124" y="659"/>
      <point x="148" y="660" type="curve"/>
      <point x="145" y="640"/>
      <point x="142" y="615"/>
      <point x="141" y="588" type="curve" smooth="yes"/>
      <point x="118" y="156" type="line"/>
      <point x="115" y="85"/>
      <point x="118" y="36"/>
      <point x="43" y="33" type="curve"/>
      <point x="41" y="0" type="line"/>
      <point x="262" y="0" type="line"/>
      <point x="264" y="44" type="line"/>
      <point x="240" y="43"/>
      <point x="216" y="41"/>
      <point x="192" y="40" type="curve"/>
      <point x="195" y="57"/>
      <point x="198" y="83"/>
      <point x="199" y="119" type="curve" smooth="yes"/>
      <point x="222" y="554" type="line" smooth="yes"/>
      <point x="225" y="625"/>
      <point x="227" y="664"/>
      <point x="297" y="667" type="curve"/>
    </contour>
  </outline>
</glyph>
<glyph name="J" format="2">
  <advance width="367"/>
  <unicode hex="004A"/>
  <anchor x="237" y="702" name="top"/>
  <outline>
    <contour>
      <point x="361" y="700" type="line"/>
      <point x="99" y="700" type="line"/>
      <point x="97" y="656" type="line"/>
      <point x="131" y="657"/>
      <point x="165" y="659"/>
      <point x="199" y="660" type="curve"/>
      <point x="197" y="623"/>
      <point x="195" y="587"/>
      <point x="193" y="550" type="curve"/>
      <point x="173" y="153" type="line" smooth="yes"/>
      <point x="167" y="34"/>
      <point x="129" y="25"/>
      <point x="106" y="24" type="curve" smooth="yes"/>
      <point x="95" y="24"/>
      <point x="79" y="29"/>
      <point x="73" y="40" type="curve"/>
      <point x="76" y="46"/>
      <point x="77" y="56"/>
      <point x="77" y="63" type="curve" smooth="yes"/>
      <point x="77" y="83"/>
      <point x="63" y="109"/>
      <point x="30" y="107" type="curve" smooth="yes"/>
      <point x="2" y="105"/>
      <point x="-14" y="82"/>
      <point x="-14" y="55" type="curve" smooth="yes"/>
      <point x="-14" y="2"/>
      <point x="39" y="-16"/>
      <point x="87" y="-16" type="curve" smooth="yes"/>
      <point x="203" y="-16"/>
      <point x="250" y="56"/>
      <point x="260" y="244" type="curve" smooth="yes"/>
      <point x="276" y="568" type="line" smooth="yes"/>
      <point x="279" y="624"/>
      <point x="292" y="667"/>
      <point x="358" y="667" type="curve"/>
    </contour>
  </outline>
</glyph>
<glyph name="L" format="2">
  <advance width="577"/>
  <unicode hex="004C"/>
  <anchor x="275" y="0" name="bottom"/>
  <anchor x="192" y="702" name="top"/>
  <outline>
    <contour>
      <point x="298" y="700" type="line"/>
      <point x="77" y="700" type="line"/>
      <point x="77" y="656" type="line"/>
      <point x="101" y="657"/>
      <point x="124" y="659"/>
      <point x="148" y="660" type="curve"/>
      <point x="144" y="640"/>
      <point x="143" y="615"/>
      <point x="141" y="588" type="curve" smooth="yes"/>
      <point x="117" y="156" type="line" smooth="yes"/>
      <point x="113" y="85"/>
      <point x="117" y="36"/>
      <point x="42" y="33" type="curve"/>
      <point x="40" y="0" type="line"/>
      <point x="532" y="0" type="line"/>
      <point x="549" y="207" type="line"/>
      <point x="515" y="207" type="line"/>
      <point x="509" y="88"/>
      <point x="462" y="42"/>
      <point x="378" y="40" type="curve" smooth="yes"/>
      <point x="191" y="37" type="line"/>
      <point x="194" y="54"/>
      <point x="196" y="79"/>
      <point x="198" y="115" type="curve" smooth="yes"/>
      <point x="221" y="544" type="line"/>
      <point x="224" y="615"/>
      <point x="226" y="664"/>
      <point x="296" y="667" type="curve"/>
    </contour>
  </outline>
</glyph>
<glyph name="O" format="2">
  <advance width="788"/>
  <unicode hex="004F"/>
  <anchor x="381" y="0" name="bottom"/>
  <anchor x="399" y="350" name="center"/>
  <anchor x="696" y="5" name="ogonek"/>
  <anchor x="417" y="702" name="top"/>
  <anchor x="33" y="700" name="topleft"/>
  <anchor x="612" y="700" name="topright"/>
  <outline>
    <contour>
      <point x="413" y="716" type="curve" smooth="yes"/>
      <point x="191" y="716"/>
      <point x="49" y="533"/>
      <point x="49" y="327" type="curve" smooth="yes"/>
      <point x="49" y="165"/>
      <point x="147" y="-16"/>
      <point x="382" y="-16" type="curve" smooth="yes"/>
      <point x="627" y="-16"/>
      <point x="746" y="199"/>
      <point x="746" y="369" type="curve" smooth="yes"/>
      <point x="746" y="532"/>
      <point x="648" y="716"/>
    </contour>
    <contour>
      <point x="408" y="676" type="curve" smooth="yes"/>
      <point x="567" y="676"/>
      <point x="650" y="510"/>
      <point x="650" y="353" type="curve" smooth="yes"/>
      <point x="650" y="200"/>
      <point x="559" y="25"/>
      <point x="387" y="25" type="curve" smooth="yes"/>
      <point x="208" y="25"/>
      <point x="143" y="213"/>
      <point x="145" y="349" type="curve" smooth="yes"/>
      <point x="146" y="503"/>
      <point x="241" y="676"/>
    </contour>
  </outline>
</glyph>
<glyph name="V" format="2">
  <advance width="665"/>
  <unicode hex="0056"/>
  <outline>
    <contour>
      <point x="696" y="700" type="line"/>
      <point x="493" y="700" type="line"/>
      <point x="491" y="656" type="line"/>
      <point x="517" y="657"/>
      <point x="542" y="659"/>
      <point x="568" y="660" type="curve"/>
      <point x="559" y="644"/>
      <point x="549" y="620"/>
      <point x="535" y="586" type="curve" smooth="yes"/>
      <point x="511" y="527"/>
      <point x="475" y="442"/>
      <point x="407" y="275" type="curve" smooth="yes"/>
      <point x="383" y="216"/>
      <point x="367" y="178"/>
      <point x="349" y="132" type="curve"/>
      <point x="347" y="132" type="line"/>
      <point x="332" y="177"/>
      <point x="305" y="250"/>
      <point x="276" y="325" type="curve"/>
      <point x="194" y="558" type="line"/>
      <point x="170" y="624"/>
      <point x="183" y="662"/>
      <point x="251" y="666" type="curve"/>
      <point x="253" y="700" type="line"/>
      <point x="25" y="700" type="line"/>
      <point x="23" y="656" type="line"/>
      <point x="42" y="657"/>
      <point x="60" y="657"/>
      <point x="79" y="658" type="curve"/>
      <point x="81" y="628"/>
      <point x="89" y="590"/>
      <point x="115" y="522" type="curve" smooth="yes"/>
      <point x="311" y="-11" type="line"/>
      <point x="337" y="-11" type="line"/>
      <point x="562" y="525"/>
      <point x="570" y="547"/>
      <point x="579" y="569" type="curve" smooth="yes"/>
      <point x="609" y="641"/>
      <point x="635" y="664"/>
      <point x="694" y="667" type="curve"/>
    </contour>
  </outline>
</glyph>
<glyph name="X" format="2">
  <advance width="652"/>
  <unicode hex="0058"/>
  <outline>
    <contour>
      <point x="0" y="0" type="line"/>
      <point x="196" y="0" type="line"/>
      <point x="198" y="44" type="line"/>
      <point x="170" y="42"/>
      <point x="143" y="41"/>
      <point x="115" y="39" type="curve"/>
      <point x="149" y="77"/>
      <point x="176" y="117"/>
      <point x="202" y="153" type="curve"/>
      <point x="310" y="301" type="line"/>
      <point x="444" y="106" type="line"/>
      <point x="466" y="72"/>
      <point x="470" y="31"/>
      <point x="399" y="33" type="curve"/>
      <point x="397" y="0" type="line"/>
      <point x="643" y="0" type="line"/>
      <point x="645" y="44" type="line"/>
      <point x="626" y="43"/>
      <point x="606" y="43"/>
      <point x="587" y="42" type="curve"/>
      <point x="566" y="75"/>
      <point x="544" y="105"/>
      <point x="523" y="135" type="curve"/>
      <point x="359" y="368" type="line"/>
      <point x="481" y="528" type="line" smooth="yes"/>
      <point x="527" y="588"/>
      <point x="581" y="658"/>
      <point x="645" y="667" type="curve"/>
      <point x="647" y="700" type="line"/>
      <point x="450" y="700" type="line"/>
      <point x="448" y="656" type="line"/>
      <point x="476" y="657"/>
      <point x="504" y="659"/>
      <point x="532" y="660" type="curve"/>
      <point x="510" y="641"/>
      <point x="474" y="592"/>
      <point x="438" y="544" type="curve" smooth="yes"/>
      <point x="334" y="405" type="line"/>
      <point x="219" y="584" type="line"/>
      <point x="178" y="657"/>
      <point x="192" y="663"/>
      <point x="290" y="667" type="curve"/>
      <point x="292" y="700" type="line"/>
      <point x="32" y="700" type="line"/>
      <point x="30" y="656" type="line"/>
      <point x="49" y="657"/>
      <point x="67" y="657"/>
      <point x="86" y="658" type="curve"/>
      <point x="97" y="628"/>
      <point x="105" y="607"/>
      <point x="140" y="553" type="curve" smooth="yes"/>
      <point x="167" y="510"/>
      <point x="211" y="446"/>
      <point x="284" y="338" type="curve"/>
      <point x="145" y="153" type="line" smooth="yes"/>
      <point x="96" y="87"/>
      <point x="66" y="46"/>
      <point x="2" y="33" type="curve"/>
    </contour>
  </outline>
</glyph>
<glyph name="Z" format="2">
  <advance width="612"/>
  <unicode hex="005A"/>
  <anchor x="347" y="702" name="top"/>
  <outline>
    <contour>
      <point x="28" y="0" type="line"/>
      <point x="541" y="0" type="line"/>
      <point x="558" y="205" type="line"/>
      <point x="524" y="205" type="line"/>
      <point x="518" y="93"/>
      <point x="448" y="42"/>
      <point x="360" y="41" type="curve" smooth="yes"/>
      <point x="113" y="37" type="line"/>
      <point x="135" y="56"/>
      <point x="154" y="77"/>
      <point x="185" y="120" type="curve" smooth="yes"/>
      <point x="577" y="665" type="line"/>
      <point x="579" y="700" type="line"/>
      <point x="83" y="700" type="line"/>
      <point x="66" y="493" type="line"/>
      <point x="100" y="493" type="line"/>
      <point x="106" y="607"/>
      <point x="148" y="656"/>
      <point x="227" y="659" type="curve" smooth="yes"/>
      <point x="485" y="663" type="line"/>
      <point x="458" y="634"/>
      <point x="437" y="603"/>
      <point x="416" y="573" type="curve"/>
      <point x="31" y="46" type="line"/>
    </contour>
  </outline>
</glyph>
<glyph name="bracketleft" format="2">
  <advance width="361"/>
  <unicode hex="005B"/>
  <outline>
    <contour>
      <point x="382" y="755" type="line"/>
      <point x="117" y="755" type="line"/>
      <point x="46" y="-255" type="line"/>
      <point x="313" y="-255" type="line"/>
      <point x="318" y="-199" type="line"/>
      <point x="117" y="-196" type="line"/>
      <point x="183" y="696" type="line"/>
      <point x="378" y="699" type="line"/>
    </contour>
  </outline>
</glyph>
<glyph name="a" format="2">
  <advance width="548"/>
  <unicode hex="0061"/>
  <anchor x="261" y="0" name="bottom"/>
  <anchor x="472" y="5" name="ogonek"/>
  <anchor x="309" y="512" name="top"/>
  <outline>
    <contour>
      <point x="329" y="511" type="curve" smooth="yes"/>
      <point x="134" y="511"/>
      <point x="37" y="350"/>
      <point x="37" y="163" type="curve" smooth="yes"/>
      <point x="37" y="37"/>
      <point x="92" y="-11"/>
      <point x="164" y="-11" type="curve" smooth="yes"/>
      <point x="219" y="-11"/>
      <point x="296" y="16"/>
      <point x="359" y="213" type="curve"/>
      <point x="362" y="213" type="line"/>
      <point x="352" y="163"/>
      <point x="344" y="117"/>
      <point x="344" y="79" type="curve" smooth="yes"/>
      <point x="344" y="25"/>
      <point x="364" y="-11"/>
      <point x="418" y="-11" type="curve" smooth="yes"/>
      <point x="498" y="-11"/>
      <point x="539" y="83"/>
      <point x="548" y="130" type="curve"/>
      <point x="520" y="136" type="line"/>
      <point x="500" y="65"/>
      <point x="469" y="39"/>
      <point x="447" y="39" type="curve" smooth="yes"/>
      <point x="418" y="39"/>
      <point x="419" y="72"/>
      <point x="419" y="99" type="curve" smooth="yes"/>
      <point x="419" y="164"/>
      <point x="442" y="335"/>
      <point x="463" y="494" type="curve"/>
      <point x="420" y="505"/>
      <point x="369" y="511"/>
    </contour>
    <contour>
      <point x="298" y="475" type="curve" smooth="yes"/>
      <point x="329" y="475"/>
      <point x="356" y="471"/>
      <point x="376" y="463" type="curve"/>
      <point x="375" y="284"/>
      <point x="277" y="33"/>
      <point x="186" y="33" type="curve" smooth="yes"/>
      <point x="137" y="33"/>
      <point x="121" y="95"/>
      <point x="121" y="180" type="curve" smooth="yes"/>
      <point x="121" y="327"/>
      <point x="177" y="475"/>
    </contour>
  </outline>
</glyph>
<glyph name="h" format="2">
  <advance width="572"/>
  <unicode hex="0068"/>
  <anchor x="299" y="256" name="center"/>
  <anchor x="163" y="697" name="top"/>
  <outline>
    <contour>
      <point x="432" y="-11" type="curve" smooth="yes"/>
      <point x="512" y="-11"/>
      <point x="550" y="83"/>
      <point x="559" y="129" type="curve"/>
      <point x="534" y="136" type="line"/>
      <point x="514" y="64"/>
      <point x="483" y="39"/>
      <point x="461" y="39" type="curve" smooth="yes"/>
      <point x="437" y="39"/>
      <point x="434" y="61"/>
      <point x="434" y="85" type="curve" smooth="yes"/>
      <point x="434" y="143"/>
      <point x="462" y="271"/>
      <point x="462" y="381" type="curve" smooth="yes"/>
      <point x="462" y="451"/>
      <point x="432" y="511"/>
      <point x="352" y="511" type="curve" smooth="yes"/>
      <point x="287" y="511"/>
      <point x="223" y="470"/>
      <point x="155" y="288" type="curve"/>
      <point x="152" y="288" type="line"/>
      <point x="157" y="358"/>
      <point x="173" y="517"/>
      <point x="182" y="585" type="curve" smooth="yes"/>
      <point x="188" y="630"/>
      <point x="201" y="705"/>
      <point x="209" y="755" type="curve"/>
      <point x="180" y="755" type="line"/>
      <point x="164" y="741"/>
      <point x="141" y="728"/>
      <point x="53" y="728" type="curve"/>
      <point x="49" y="688" type="line"/>
      <point x="119" y="692" type="line"/>
      <point x="116" y="675"/>
      <point x="115" y="673"/>
      <point x="110" y="639" type="curve" smooth="yes"/>
      <point x="87" y="484"/>
      <point x="60" y="117"/>
      <point x="60" y="26" type="curve" smooth="yes"/>
      <point x="60" y="15"/>
      <point x="60" y="9"/>
      <point x="61" y="0" type="curve"/>
      <point x="143" y="0" type="line"/>
      <point x="142" y="17"/>
      <point x="141" y="33"/>
      <point x="141" y="53" type="curve" smooth="yes"/>
      <point x="141" y="238"/>
      <point x="243" y="464"/>
      <point x="332" y="464" type="curve" smooth="yes"/>
      <point x="371" y="464"/>
      <point x="380" y="426"/>
      <point x="380" y="403" type="curve" smooth="yes"/>
      <point x="380" y="298"/>
      <point x="351" y="160"/>
      <point x="351" y="85" type="curve" smooth="yes"/>
      <point x="351" y="23"/>
      <point x="369" y="-11"/>
    </contour>
  </outline>
</glyph>
<glyph name="n" format="2">
  <advance width="615"/>
  <unicode hex="006E"/>
  <anchor x="313" y="0" name="bottom"/>
  <anchor x="339" y="512" name="top"/>
  <outline>
    <contour>
      <point x="473" y="-11" type="curve" smooth="yes"/>
      <point x="553" y="-11"/>
      <point x="594" y="83"/>
      <point x="603" y="129" type="curve"/>
      <point x="575" y="136" type="line"/>
      <point x="555" y="64"/>
      <point x="524" y="39"/>
      <point x="502" y="39" type="curve" smooth="yes"/>
      <point x="478" y="39"/>
      <point x="475" y="61"/>
      <point x="475" y="85" type="curve" smooth="yes"/>
      <point x="475" y="143"/>
      <point x="505" y="271"/>
      <point x="505" y="381" type="curve" smooth="yes"/>
      <point x="505" y="451"/>
      <point x="476" y="511"/>
      <point x="396" y="511" type="curve" smooth="yes"/>
      <point x="331" y="511"/>
      <point x="267" y="465"/>
      <point x="199" y="283" type="curve"/>
      <point x="196" y="283" type="line"/>
      <point x="201" y="309"/>
      <point x="208" y="346"/>
      <point x="211" y="383" type="curve" smooth="yes"/>
      <point x="215" y="448"/>
      <point x="205" y="511"/>
      <point x="137" y="511" type="curve" smooth="yes"/>
      <point x="57" y="511"/>
      <point x="16" y="417"/>
      <point x="7" y="370" type="curve"/>
      <point x="35" y="364" type="line"/>
      <point x="55" y="435"/>
      <point x="86" y="461"/>
      <point x="108" y="461" type="curve" smooth="yes"/>
      <point x="131" y="461"/>
      <point x="135" y="440"/>
      <point x="135" y="416" type="curve" smooth="yes"/>
      <point x="135" y="386"/>
      <point x="134" y="382"/>
      <point x="116" y="226" type="curve" smooth="yes"/>
      <point x="101" y="100"/>
      <point x="96" y="60"/>
      <point x="96" y="26" type="curve" smooth="yes"/>
      <point x="96" y="15"/>
      <point x="96" y="9"/>
      <point x="97" y="0" type="curve"/>
      <point x="181" y="0" type="line"/>
      <point x="180" y="17"/>
      <point x="179" y="33"/>
      <point x="179" y="53" type="curve" smooth="yes"/>
      <point x="179" y="222"/>
      <point x="284" y="464"/>
      <point x="376" y="464" type="curve" smooth="yes"/>
      <point x="415" y="464"/>
      <point x="423" y="426"/>
      <point x="423" y="403" type="curve" smooth="yes"/>
      <point x="423" y="296"/>
      <point x="392" y="160"/>
      <point x="392" y="85" type="curve" smooth="yes"/>
      <point x="392" y="23"/>
      <point x="410" y="-11"/>
    </contour>
  </outline>
</glyph>
<glyph name="u" format="2">
  <advance width="593"/>
  <unicode hex="0075"/>
  <anchor x="283" y="0" name="bottom"/>
  <anchor x="512" y="5" name="ogonek"/>
  <anchor x="310" y="512" name="top"/>
  <anchor x="528" y="505" name="topright"/>
  <outline>
    <contour>
      <point x="208" y="-11" type="curve" smooth="yes"/>
      <point x="273" y="-11"/>
      <point x="329" y="31"/>
      <point x="397" y="213" type="curve"/>
      <point x="400" y="213" type="line"/>
      <point x="390" y="163"/>
      <point x="382" y="117"/>
      <point x="382" y="79" type="curve" smooth="yes"/>
      <point x="382" y="25"/>
      <point x="405" y="-11"/>
      <point x="459" y="-11" type="curve" smooth="yes"/>
      <point x="539" y="-11"/>
      <point x="580" y="83"/>
      <point x="589" y="130" type="curve"/>
      <point x="561" y="136" type="line"/>
      <point x="541" y="65"/>
      <point x="510" y="40"/>
      <point x="488" y="40" type="curve" smooth="yes"/>
      <point x="467" y="40"/>
      <point x="461" y="60"/>
      <point x="461" y="84" type="curve" smooth="yes"/>
      <point x="461" y="114"/>
      <point x="462" y="114"/>
      <point x="480" y="270" type="curve" smooth="yes"/>
      <point x="495" y="396"/>
      <point x="500" y="440"/>
      <point x="500" y="474" type="curve" smooth="yes"/>
      <point x="500" y="485"/>
      <point x="500" y="491"/>
      <point x="499" y="500" type="curve"/>
      <point x="415" y="500" type="line"/>
      <point x="416" y="483"/>
      <point x="417" y="467"/>
      <point x="417" y="447" type="curve" smooth="yes"/>
      <point x="417" y="278"/>
      <point x="320" y="36"/>
      <point x="228" y="36" type="curve" smooth="yes"/>
      <point x="189" y="36"/>
      <point x="181" y="76"/>
      <point x="181" y="99" type="curve" smooth="yes"/>
      <point x="181" y="183"/>
      <point x="214" y="338"/>
      <point x="214" y="414" type="curve" smooth="yes"/>
      <point x="214" y="476"/>
      <point x="186" y="511"/>
      <point x="133" y="511" type="curve" smooth="yes"/>
      <point x="53" y="511"/>
      <point x="15" y="417"/>
      <point x="6" y="370" type="curve"/>
      <point x="34" y="364" type="line"/>
      <point x="54" y="435"/>
      <point x="82" y="461"/>
      <point x="104" y="461" type="curve" smooth="yes"/>
      <point x="128" y="461"/>
      <point x="131" y="439"/>
      <point x="131" y="414" type="curve" smooth="yes"/>
      <point x="131" y="357"/>
      <point x="99" y="230"/>
      <point x="99" y="119" type="curve" smooth="yes"/>
      <point x="99" y="50"/>
      <point x="128" y="-11"/>
    </contour>
  </outline>
</glyph>
<glyph name="v" format="2">
  <advance width="526"/>
  <unicode hex="0076"/>
  <outline>
    <contour>
      <point x="363" y="511" type="curve" smooth="yes"/>
      <point x="320" y="511"/>
      <point x="306" y="481"/>
      <point x="306" y="461" type="curve"/>
      <point x="307" y="431"/>
      <point x="330" y="419"/>
      <point x="348" y="419" type="curve" smooth="yes"/>
      <point x="365" y="419"/>
      <point x="380" y="426"/>
      <point x="388" y="444" type="curve"/>
      <point x="455" y="416"/>
      <point x="439" y="277"/>
      <point x="422" y="224" type="curve" smooth="yes"/>
      <point x="392" y="128"/>
      <point x="306" y="44"/>
      <point x="240" y="43" type="curve" smooth="yes"/>
      <point x="192" y="42"/>
      <point x="191" y="87"/>
      <point x="192" y="119" type="curve" smooth="yes"/>
      <point x="194" y="187"/>
      <point x="212" y="335"/>
      <point x="211" y="416" type="curve" smooth="yes"/>
      <point x="209" y="478"/>
      <point x="181" y="513"/>
      <point x="128" y="511" type="curve" smooth="yes"/>
      <point x="48" y="509"/>
      <point x="12" y="416"/>
      <point x="4" y="369" type="curve"/>
      <point x="32" y="362" type="line"/>
      <point x="51" y="434"/>
      <point x="78" y="460"/>
      <point x="100" y="460" type="curve" smooth="yes"/>
      <point x="124" y="460"/>
      <point x="128" y="439"/>
      <point x="128" y="415" type="curve" smooth="yes"/>
      <point x="128" y="357"/>
      <point x="106" y="228"/>
      <point x="108" y="117" type="curve"/>
      <point x="110" y="48"/>
      <point x="139" y="-12"/>
      <point x="222" y="-11" type="curve" smooth="yes"/>
      <point x="325" y="-10"/>
      <point x="420" y="95"/>
      <point x="460" y="201" type="curve" smooth="yes"/>
      <point x="512" y="339"/>
      <point x="484" y="511"/>
    </contour>
  </outline>
</glyph>
<glyph name="w" format="2">
  <advance width="801"/>
  <unicode hex="0077"/>
  <anchor x="427" y="512" name="top"/>
  <outline>
    <contour>
      <point x="640" y="511" type="curve" smooth="yes"/>
      <point x="595" y="511"/>
      <point x="580" y="484"/>
      <point x="580" y="462" type="curve" smooth="yes"/>
      <point x="580" y="432"/>
      <point x="604" y="419"/>
      <point x="622" y="419" type="curve" smooth="yes"/>
      <point x="639" y="419"/>
      <point x="655" y="426"/>
      <point x="663" y="444" type="curve"/>
      <point x="729" y="416"/>
      <point x="713" y="277"/>
      <point x="696" y="224" type="curve" smooth="yes"/>
      <point x="662" y="119"/>
      <point x="583" y="40"/>
      <point x="507" y="41" type="curve"/>
      <point x="462" y="42"/>
      <point x="453" y="80"/>
      <point x="453" y="119" type="curve" smooth="yes"/>
      <point x="453" y="210"/>
      <point x="486" y="321"/>
      <point x="486" y="455" type="curve" smooth="yes"/>
      <point x="486" y="465"/>
      <point x="485" y="489"/>
      <point x="482" y="500" type="curve"/>
      <point x="396" y="500" type="line"/>
      <point x="401" y="460"/>
      <point x="403" y="423"/>
      <point x="403" y="388" type="curve" smooth="yes"/>
      <point x="403" y="169"/>
      <point x="314" y="42"/>
      <point x="229" y="42" type="curve" smooth="yes"/>
      <point x="195" y="42"/>
      <point x="186" y="73"/>
      <point x="186" y="102" type="curve" smooth="yes"/>
      <point x="186" y="159"/>
      <point x="213" y="327"/>
      <point x="213" y="414" type="curve" smooth="yes"/>
      <point x="213" y="476"/>
      <point x="185" y="511"/>
      <point x="132" y="511" type="curve" smooth="yes"/>
      <point x="52" y="511"/>
      <point x="14" y="417"/>
      <point x="5" y="370" type="curve"/>
      <point x="33" y="364" type="line"/>
      <point x="53" y="435"/>
      <point x="81" y="461"/>
      <point x="103" y="461" type="curve" smooth="yes"/>
      <point x="127" y="461"/>
      <point x="130" y="439"/>
      <point x="130" y="414" type="curve" smooth="yes"/>
      <point x="130" y="357"/>
      <point x="104" y="225"/>
      <point x="104" y="119" type="curve" smooth="yes"/>
      <point x="104" y="48"/>
      <point x="130" y="-11"/>
      <point x="208" y="-11" type="curve" smooth="yes"/>
      <point x="276" y="-11"/>
      <point x="351" y="56"/>
      <point x="382" y="140" type="curve"/>
      <point x="371" y="19"/>
      <point x="431" y="-11"/>
      <point x="483" y="-11" type="curve" smooth="yes"/>
      <point x="596" y="-11"/>
      <point x="691" y="82"/>
      <point x="735" y="201" type="curve" smooth="yes"/>
      <point x="786" y="338"/>
      <point x="759" y="511"/>
    </contour>
  </outline>
</glyph>
<glyph name="z" format="2">
  <advance width="471"/>
  <unicode hex="007A"/>
  <anchor x="261" y="512" name="top"/>
  <outline>
    <contour>
      <point x="50" y="-11" type="line"/>
      <point x="83" y="20"/>
      <point x="112" y="25"/>
      <point x="141" y="25" type="curve" smooth="yes"/>
      <point x="200" y="25"/>
      <point x="258" y="-11"/>
      <point x="318" y="-11" type="curve" smooth="yes"/>
      <point x="376" y="-11"/>
      <point x="423" y="32"/>
      <point x="423" y="96" type="curve" smooth="yes"/>
      <point x="423" y="119"/>
      <point x="418" y="142"/>
      <point x="411" y="162" type="curve"/>
      <point x="384" y="153" type="line"/>
      <point x="389" y="139"/>
      <point x="391" y="125"/>
      <point x="391" y="115" type="curve" smooth="yes"/>
      <point x="391" y="68"/>
      <point x="359" y="61"/>
      <point x="336" y="61" type="curve" smooth="yes"/>
      <point x="292" y="61"/>
      <point x="247" y="94"/>
      <point x="198" y="94" type="curve" smooth="yes"/>
      <point x="149" y="94"/>
      <point x="114" y="78"/>
      <point x="83" y="42" type="curve"/>
      <point x="82" y="42" type="line"/>
      <point x="130" y="107"/>
      <point x="171" y="159"/>
      <point x="230" y="235" type="curve" smooth="yes"/>
      <point x="313" y="343"/>
      <point x="401" y="446"/>
      <point x="431" y="484" type="curve"/>
      <point x="401" y="512" type="line"/>
      <point x="367" y="483"/>
      <point x="328" y="479"/>
      <point x="311" y="479" type="curve" smooth="yes"/>
      <point x="251" y="479"/>
      <point x="219" y="511"/>
      <point x="159" y="511" type="curve" smooth="yes"/>
      <point x="101" y="511"/>
      <point x="51" y="468"/>
      <point x="51" y="404" type="curve" smooth="yes"/>
      <point x="51" y="381"/>
      <point x="57" y="358"/>
      <point x="64" y="338" type="curve"/>
      <point x="91" y="347" type="line"/>
      <point x="86" y="361"/>
      <point x="84" y="374"/>
      <point x="84" y="385" type="curve" smooth="yes"/>
      <point x="84" y="432"/>
      <point x="116" y="443"/>
      <point x="139" y="443" type="curve" smooth="yes"/>
      <point x="183" y="443"/>
      <point x="214" y="418"/>
      <point x="257" y="415" type="curve" smooth="yes"/>
      <point x="283" y="412"/>
      <point x="316" y="418"/>
      <point x="351" y="455" type="curve"/>
      <point x="353" y="455" type="line"/>
      <point x="306" y="398"/>
      <point x="268" y="352"/>
      <point x="213" y="280" type="curve" smooth="yes"/>
      <point x="149" y="196"/>
      <point x="68" y="87"/>
      <point x="18" y="14" type="curve"/>
    </contour>
  </outline>
</glyph>
<glyph name="bar" format="2">
  <advance width="235"/>
  <unicode hex="007C"/>
  <outline>
    <contour>
      <point x="176" y="760" type="line"/>
      <point x="106" y="760" type="line"/>
      <point x="55" y="-271" type="line"/>
      <point x="118" y="-271" type="line"/>
    </contour>
  </outline>
</glyph>
<glyph name="sterling" format="2">
  <advance width="547"/>
  <unicode hex="00A3"/>
  <outline>
    <contour>
      <point x="66" y="-16" type="curve" smooth="yes"/>
      <point x="99" y="-16"/>
      <point x="131" y="24"/>
      <point x="139" y="75" type="curve"/>
      <point x="177" y="83"/>
      <point x="224" y="60"/>
      <point x="258" y="40" type="curve" smooth="yes"/>
      <point x="302" y="14"/>
      <point x="343" y="-16"/>
      <point x="391" y="-16" type="curve" smooth="yes"/>
      <point x="456" y="-16"/>
      <point x="493" y="40"/>
      <point x="501" y="120" type="curve"/>
      <point x="470" y="120" type="line"/>
      <point x="464" y="77"/>
      <point x="443" y="57"/>
      <point x="413" y="57" type="curve" smooth="yes"/>
      <point x="387" y="57"/>
      <point x="353" y="76"/>
      <point x="312" y="92" type="curve" smooth="yes"/>
      <point x="284" y="103"/>
      <point x="251" y="113"/>
      <point x="215" y="113" type="curve" smooth="yes"/>
      <point x="196" y="113"/>
      <point x="177" y="112"/>
      <point x="159" y="109" type="curve"/>
      <point x="219" y="176"/>
      <point x="225" y="223"/>
      <point x="218" y="312" type="curve"/>
      <point x="362" y="312" type="line"/>
      <point x="365" y="360" type="line"/>
      <point x="211" y="360" type="line"/>
      <point x="203" y="415"/>
      <point x="192" y="469"/>
      <point x="196" y="537" type="curve" smooth="yes"/>
      <point x="200" y="611"/>
      <point x="245" y="679"/>
      <point x="320" y="679" type="curve" smooth="yes"/>
      <point x="367" y="679"/>
      <point x="392" y="649"/>
      <point x="398" y="624" type="curve"/>
      <point x="387" y="613"/>
      <point x="385" y="598"/>
      <point x="385" y="587" type="curve" smooth="yes"/>
      <point x="385" y="573"/>
      <point x="395" y="548"/>
      <point x="424" y="549" type="curve" smooth="yes"/>
      <point x="448" y="550"/>
      <point x="463" y="569"/>
      <point x="463" y="596" type="curve" smooth="yes"/>
      <point x="463" y="640"/>
      <point x="432" y="716"/>
      <point x="314" y="716" type="curve" smooth="yes"/>
      <point x="207" y="716"/>
      <point x="126" y="630"/>
      <point x="119" y="497" type="curve" smooth="yes"/>
      <point x="116" y="441"/>
      <point x="122" y="398"/>
      <point x="130" y="360" type="curve"/>
      <point x="62" y="360" type="line"/>
      <point x="59" y="312" type="line"/>
      <point x="141" y="312" type="line"/>
      <point x="156" y="237"/>
      <point x="163" y="163"/>
      <point x="119" y="101" type="curve"/>
      <point x="69" y="87"/>
      <point x="31" y="57"/>
      <point x="29" y="21" type="curve" smooth="yes"/>
      <point x="28" y="2"/>
      <point x="42" y="-16"/>
    </contour>
  </outline>
</glyph>
<glyph name="yen" format="2">
  <advance width="699"/>
  <unicode hex="00A5"/>
  <outline>
    <contour>
      <point x="237" y="0" type="line"/>
      <point x="468" y="0" type="line"/>
      <point x="470" y="44" type="line"/>
      <point x="442" y="43"/>
      <point x="415" y="41"/>
      <point x="387" y="40" type="curve"/>
      <point x="394" y="81"/>
      <point x="393" y="120"/>
      <point x="396" y="163" type="curve"/>
      <point x="526" y="164" type="line"/>
      <point x="528" y="207" type="line"/>
      <point x="398" y="208" type="line"/>
      <point x="402" y="271" type="line"/>
      <point x="531" y="272" type="line"/>
      <point x="533" y="315" type="line"/>
      <point x="413" y="315" type="line"/>
      <point x="453" y="384"/>
      <point x="495" y="458"/>
      <point x="543" y="538" type="curve" smooth="yes"/>
      <point x="594" y="623"/>
      <point x="631" y="663"/>
      <point x="697" y="667" type="curve"/>
      <point x="699" y="700" type="line"/>
      <point x="495" y="700" type="line"/>
      <point x="493" y="656" type="line"/>
      <point x="519" y="657"/>
      <point x="546" y="658"/>
      <point x="572" y="659" type="curve"/>
      <point x="552" y="638"/>
      <point x="531" y="602"/>
      <point x="520" y="583" type="curve" smooth="yes"/>
      <point x="472" y="502"/>
      <point x="430" y="432"/>
      <point x="378" y="341" type="curve"/>
      <point x="376" y="341" type="line"/>
      <point x="356" y="372"/>
      <point x="339" y="399"/>
      <point x="323" y="425" type="curve" smooth="yes"/>
      <point x="297" y="468"/>
      <point x="274" y="509"/>
      <point x="246" y="558" type="curve" smooth="yes"/>
      <point x="209" y="622"/>
      <point x="213" y="667"/>
      <point x="305" y="667" type="curve"/>
      <point x="307" y="700" type="line"/>
      <point x="53" y="700" type="line"/>
      <point x="51" y="656" type="line"/>
      <point x="72" y="657"/>
      <point x="92" y="657"/>
      <point x="113" y="658" type="curve"/>
      <point x="116" y="633"/>
      <point x="130" y="599"/>
      <point x="161" y="545" type="curve" smooth="yes"/>
      <point x="292" y="316" type="line"/>
      <point x="189" y="317" type="line"/>
      <point x="186" y="270" type="line"/>
      <point x="318" y="271" type="line"/>
      <point x="315" y="208" type="line"/>
      <point x="183" y="209" type="line"/>
      <point x="180" y="162" type="line"/>
      <point x="313" y="163" type="line"/>
      <point x="309" y="60"/>
      <point x="302" y="36"/>
      <point x="239" y="33" type="curve"/>
    </contour>
  </outline>
</glyph>
<glyph name="dieresis" format="2">
  <advance width="351"/>
  <unicode hex="00A8"/>
  <anchor x="168" y="512" name="_top"/>
  <outline>
    <contour>
      <point x="248" y="616" type="curve" smooth="yes"/>
      <point x="271" y="616"/>
      <point x="294" y="640"/>
      <point x="295" y="670" type="curve" smooth="yes"/>
      <point x="297" y="701"/>
      <point x="279" y="725"/>
      <point x="253" y="725" type="curve" smooth="yes"/>
      <point x="229" y="725"/>
      <point x="206" y="701"/>
      <point x="204" y="670" type="curve" smooth="yes"/>
      <point x="203" y="640"/>
      <point x="222" y="616"/>
    </contour>
    <contour>
      <point x="101" y="616" type="curve" smooth="yes"/>
      <point x="125" y="616"/>
      <point x="147" y="640"/>
      <point x="148" y="670" type="curve" smooth="yes"/>
      <point x="150" y="701"/>
      <point x="132" y="725"/>
      <point x="106" y="725" type="curve" smooth="yes"/>
      <point x="82" y="725"/>
      <point x="59" y="701"/>
      <point x="57" y="670" type="curve" smooth="yes"/>
      <point x="56" y="640"/>
      <point x="75" y="616"/>
    </contour>
  </outline>
</glyph>
<glyph name="softhyphen" format="2">
  <advance width="482"/>
  <unicode hex="00AD"/>
  <outline>
    <contour>
      <point x="419" y="353" type="line"/>
      <point x="64" y="353" type="line"/>
      <point x="64" y="286" type="line"/>
      <point x="419" y="290" type="line"/>
    </contour>
  </outline>
</glyph>
<glyph name="registered" format="2">
  <advance width="876"/>
  <unicode hex="00AE"/>
  <outline>
    <contour>
      <point x="463" y="750" type="curve" smooth="yes"/>
      <point x="232" y="750"/>
      <point x="58" y="570"/>
      <point x="46" y="348" type="curve"/>
      <point x="34" y="116"/>
      <point x="182" y="-50"/>
      <point x="420" y="-50" type="curve" smooth="yes"/>
      <point x="642" y="-50"/>
      <point x="826" y="127"/>
      <point x="837" y="348" type="curve"/>
      <point x="849" y="570"/>
      <point x="697" y="750"/>
    </contour>
    <contour>
      <point x="458" y="704" type="curve" smooth="yes"/>
      <point x="659" y="704"/>
      <point x="783" y="536"/>
      <point x="773" y="348" type="curve"/>
      <point x="764" y="161"/>
      <point x="626" y="-2"/>
      <point x="424" y="-2" type="curve" smooth="yes"/>
      <point x="216" y="-2"/>
      <point x="100" y="161"/>
      <point x="110" y="348" type="curve"/>
      <point x="121" y="546"/>
      <point x="259" y="704"/>
    </contour>
    <contour>
      <point x="249" y="170" type="curve"/>
      <point x="247" y="136" type="line"/>
      <point x="412" y="136" type="line"/>
      <point x="412" y="176" type="line"/>
      <point x="396" y="175"/>
      <point x="380" y="175"/>
      <point x="364" y="174" type="curve"/>
      <point x="366" y="186"/>
      <point x="368" y="202"/>
      <point x="369" y="225" type="curve" smooth="yes"/>
      <point x="374" y="325" type="line"/>
      <point x="385" y="323"/>
      <point x="416" y="322"/>
      <point x="429" y="322" type="curve"/>
      <point x="448" y="293"/>
      <point x="472" y="252"/>
      <point x="498" y="212" type="curve" smooth="yes"/>
      <point x="528" y="166"/>
      <point x="549" y="137"/>
      <point x="569" y="132" type="curve"/>
      <point x="651" y="132" type="line"/>
      <point x="653" y="166" type="line"/>
      <point x="624" y="166"/>
      <point x="605" y="178"/>
      <point x="536" y="291" type="curve"/>
      <point x="521" y="314"/>
      <point x="517" y="317"/>
      <point x="498" y="333" type="curve"/>
      <point x="593" y="358"/>
      <point x="623" y="423"/>
      <point x="625" y="468" type="curve"/>
      <point x="628" y="537"/>
      <point x="580" y="597"/>
      <point x="452" y="600" type="curve" smooth="yes"/>
      <point x="401" y="601"/>
      <point x="320" y="598"/>
      <point x="271" y="596" type="curve"/>
      <point x="269" y="554" type="line"/>
      <point x="286" y="556"/>
      <point x="302" y="557"/>
      <point x="319" y="559" type="curve"/>
      <point x="317" y="546"/>
      <point x="316" y="529"/>
      <point x="315" y="511" type="curve" smooth="yes"/>
      <point x="301" y="250" type="line" smooth="yes"/>
      <point x="299" y="203"/>
      <point x="298" y="171"/>
    </contour>
    <contour>
      <point x="377" y="365" type="curve" smooth="yes"/>
      <point x="382" y="473" type="line" smooth="yes"/>
      <point x="384" y="521"/>
      <point x="384" y="553"/>
      <point x="433" y="557" type="curve" smooth="yes"/>
      <point x="495" y="563"/>
      <point x="556" y="530"/>
      <point x="552" y="465" type="curve" smooth="yes"/>
      <point x="548" y="391"/>
      <point x="473" y="366"/>
      <point x="426" y="364" type="curve" smooth="yes"/>
      <point x="409" y="363"/>
      <point x="393" y="364"/>
    </contour>
  </outline>
</glyph>
<glyph name="degree" format="2">
  <advance width="387"/>
  <unicode hex="00B0"/>
  <outline>
    <contour>
      <point x="220" y="716" type="curve" smooth="yes"/>
      <point x="135" y="716"/>
      <point x="64" y="648"/>
      <point x="59" y="562" type="curve" smooth="yes"/>
      <point x="55" y="475"/>
      <point x="108" y="413"/>
      <point x="202" y="413" type="curve" smooth="yes"/>
      <point x="287" y="413"/>
      <point x="358" y="475"/>
      <point x="362" y="562" type="curve" smooth="yes"/>
      <point x="367" y="648"/>
      <point x="314" y="716"/>
    </contour>
    <contour>
      <point x="216" y="670" type="curve" smooth="yes"/>
      <point x="272" y="670"/>
      <point x="305" y="620"/>
      <point x="303" y="564" type="curve" smooth="yes"/>
      <point x="300" y="509"/>
      <point x="261" y="459"/>
      <point x="206" y="459" type="curve" smooth="yes"/>
      <point x="150" y="459"/>
      <point x="116" y="509"/>
      <point x="119" y="564" type="curve" smooth="yes"/>
      <point x="121" y="620"/>
      <point x="161" y="670"/>
    </contour>
  </outline>
</glyph>
<glyph name="threesuperior" format="2">
  <advance width="358"/>
  <unicode hex="00B3"/>
  <outline>
    <contour>
      <point x="171" y="306" type="curve" smooth="yes"/>
      <point x="262" y="304"/>
      <point x="318" y="356"/>
      <point x="321" y="423" type="curve" smooth="yes"/>
      <point x="324" y="477"/>
      <point x="292" y="525"/>
      <point x="221" y="530" type="curve"/>
      <point x="278" y="544"/>
      <point x="310" y="585"/>
      <point x="312" y="619" type="curve" smooth="yes"/>
      <point x="314" y="678"/>
      <point x="271" y="716"/>
      <point x="201" y="716" type="curve" smooth="yes"/>
      <point x="124" y="716"/>
      <point x="78" y="661"/>
      <point x="78" y="621" type="curve" smooth="yes"/>
      <point x="78" y="603"/>
      <point x="89" y="592"/>
      <point x="104" y="591" type="curve" smooth="yes"/>
      <point x="121" y="591"/>
      <point x="133" y="604"/>
      <point x="133" y="618" type="curve" smooth="yes"/>
      <point x="133" y="625"/>
      <point x="132" y="631"/>
      <point x="126" y="639" type="curve"/>
      <point x="132" y="662"/>
      <point x="154" y="684"/>
      <point x="188" y="685" type="curve" smooth="yes"/>
      <point x="237" y="687"/>
      <point x="256" y="652"/>
      <point x="254" y="613" type="curve" smooth="yes"/>
      <point x="253" y="592"/>
      <point x="238" y="538"/>
      <point x="161" y="538" type="curve" smooth="yes"/>
      <point x="157" y="538"/>
      <point x="153" y="538"/>
      <point x="149" y="538" type="curve"/>
      <point x="148" y="511" type="line"/>
      <point x="158" y="512"/>
      <point x="167" y="512"/>
      <point x="177" y="512" type="curve" smooth="yes"/>
      <point x="247" y="512"/>
      <point x="261" y="456"/>
      <point x="259" y="423" type="curve" smooth="yes"/>
      <point x="257" y="382"/>
      <point x="226" y="338"/>
      <point x="173" y="338" type="curve" smooth="yes"/>
      <point x="140" y="338"/>
      <point x="113" y="355"/>
      <point x="111" y="382" type="curve"/>
      <point x="119" y="391"/>
      <point x="121" y="400"/>
      <point x="121" y="409" type="curve" smooth="yes"/>
      <point x="121" y="424"/>
      <point x="111" y="439"/>
      <point x="92" y="439" type="curve" smooth="yes"/>
      <point x="67" y="439"/>
      <point x="57" y="415"/>
      <point x="57" y="395" type="curve" smooth="yes"/>
      <point x="58" y="347"/>
      <point x="100" y="308"/>
    </contour>
  </outline>
</glyph>
<glyph name="paragraph" format="2">
  <advance width="490"/>
  <unicode hex="00B6"/>
  <outline>
    <contour>
      <point x="146" y="-255" type="line"/>
      <point x="213" y="-255" type="line"/>
      <point x="262" y="657" type="line"/>
      <point x="349" y="659" type="line"/>
      <point x="301" y="-255" type="line"/>
      <point x="367" y="-255" type="line"/>
      <point x="417" y="700" type="line"/>
      <point x="199" y="700" type="line" smooth="yes"/>
      <point x="128" y="700"/>
      <point x="55" y="650"/>
      <point x="50" y="554" type="curve" smooth="yes"/>
      <point x="44" y="452"/>
      <point x="117" y="413"/>
      <point x="183" y="408" type="curve"/>
    </contour>
  </outline>
</glyph>
<glyph name="ordmasculine" format="2">
  <advance width="362"/>
  <unicode hex="00BA"/>
  <outline>
    <contour>
      <point x="216" y="716" type="curve" smooth="yes"/>
      <point x="119" y="716"/>
      <point x="61" y="625"/>
      <point x="61" y="523" type="curve" smooth="yes"/>
      <point x="61" y="444"/>
      <point x="98" y="375"/>
      <point x="181" y="375" type="curve" smooth="yes"/>
      <point x="279" y="375"/>
      <point x="335" y="472"/>
      <point x="335" y="573" type="curve" smooth="yes"/>
      <point x="335" y="662"/>
      <point x="284" y="716"/>
    </contour>
    <contour>
      <point x="207" y="687" type="curve" smooth="yes"/>
      <point x="264" y="687"/>
      <point x="276" y="612"/>
      <point x="275" y="554" type="curve" smooth="yes"/>
      <point x="273" y="493"/>
      <point x="251" y="407"/>
      <point x="189" y="407" type="curve" smooth="yes"/>
      <point x="133" y="407"/>
      <point x="120" y="485"/>
      <point x="121" y="543" type="curve" smooth="yes"/>
      <point x="123" y="625"/>
      <point x="155" y="687"/>
    </contour>
  </outline>
</glyph>
<glyph name="guillemetright" format="2">
  <advance width="521"/>
  <unicode hex="00BB"/>
  <outline>
    <contour>
      <point x="235" y="548" type="line"/>
      <point x="206" y="522" type="line"/>
      <point x="388" y="279" type="line"/>
      <point x="388" y="277" type="line"/>
      <point x="169" y="20" type="line"/>
      <point x="193" y="-7" type="line"/>
      <point x="487" y="273" type="line"/>
      <point x="487" y="277" type="line"/>
    </contour>
    <contour>
      <point x="91" y="464" type="line"/>
      <point x="62" y="438" type="line"/>
      <point x="174" y="271" type="line"/>
      <point x="174" y="269" type="line"/>
      <point x="37" y="102" type="line"/>
      <point x="62" y="77" type="line"/>
      <point x="274" y="271" type="line"/>
      <point x="274" y="274" type="line"/>
    </contour>
  </outline>
</glyph>
<glyph name="Oslash" format="2">
  <advance width="787"/>
  <unicode hex="00D8"/>
  <anchor x="381" y="0" name="bottom"/>
  <anchor x="417" y="700" name="top"/>
  <outline>
    <contour>
      <point x="168" y="-77" type="line"/>
      <point x="228" y="16" type="line"/>
      <point x="271" y="-4"/>
      <point x="321" y="-16"/>
      <point x="381" y="-16" type="curve" smooth="yes"/>
      <point x="626" y="-16"/>
      <point x="745" y="199"/>
      <point x="745" y="369" type="curve" smooth="yes"/>
      <point x="745" y="467"/>
      <point x="709" y="572"/>
      <point x="630" y="641" type="curve"/>
      <point x="682" y="721" type="line"/>
      <point x="632" y="755" type="line"/>
      <point x="582" y="675" type="line"/>
      <point x="536" y="701"/>
      <point x="479" y="716"/>
      <point x="412" y="716" type="curve" smooth="yes"/>
      <point x="190" y="716"/>
      <point x="48" y="533"/>
      <point x="48" y="327" type="curve" smooth="yes"/>
      <point x="48" y="222"/>
      <point x="89" y="109"/>
      <point x="182" y="42" type="curve"/>
      <point x="124" y="-50" type="line"/>
    </contour>
    <contour>
      <point x="220" y="103" type="line"/>
      <point x="165" y="170"/>
      <point x="142" y="269"/>
      <point x="144" y="349" type="curve"/>
      <point x="146" y="503"/>
      <point x="240" y="676"/>
      <point x="407" y="676" type="curve" smooth="yes"/>
      <point x="463" y="676"/>
      <point x="510" y="655"/>
      <point x="547" y="621" type="curve"/>
    </contour>
    <contour>
      <point x="386" y="25" type="curve" smooth="yes"/>
      <point x="335" y="25"/>
      <point x="293" y="40"/>
      <point x="259" y="65" type="curve"/>
      <point x="587" y="574" type="line"/>
      <point x="628" y="513"/>
      <point x="649" y="432"/>
      <point x="649" y="353" type="curve" smooth="yes"/>
      <point x="649" y="200"/>
      <point x="558" y="25"/>
    </contour>
  </outline>
</glyph>
<glyph name="dcroat" format="2">
  <advance width="555"/>
  <unicode hex="0111"/>
  <outline>
    <contour>
      <point x="556" y="621" type="line"/>
      <point x="213" y="621" type="line"/>
      <point x="210" y="578" type="line"/>
      <point x="553" y="582" type="line"/>
    </contour>
    <component base="d"/>
  </outline>
</glyph>
<glyph name="Hbar" format="2">
  <advance width="780"/>
  <unicode hex="0126"/>
  <outline>
    <contour>
      <point x="753" y="558" type="line"/>
      <point x="48" y="558" type="line"/>
      <point x="46" y="515" type="line"/>
      <point x="751" y="519" type="line"/>
    </contour>
    <component base="H"/>
  </outline>
</glyph>
<glyph name="jcircumflex" format="2">
  <advance width="293"/>
  <unicode hex="0135"/>
  <outline>
    <contour>
      <point x="144" y="511" type="curve" smooth="yes"/>
      <point x="61" y="511"/>
      <point x="26" y="413"/>
      <point x="19" y="366" type="curve"/>
      <point x="47" y="360" type="line"/>
      <point x="65" y="431"/>
      <point x="94" y="458"/>
      <point x="114" y="459" type="curve" smooth="yes"/>
      <point x="137" y="460"/>
      <point x="144" y="436"/>
      <point x="145" y="417" type="curve" smooth="yes"/>
      <point x="148" y="358"/>
      <point x="145" y="274"/>
      <point x="139" y="200" type="curve" smooth="yes"/>
      <point x="136" y="161"/>
      <point x="115" y="-230"/>
      <point x="1" y="-230" type="curve" smooth="yes"/>
      <point x="-6" y="-230"/>
      <point x="-14" y="-228"/>
      <point x="-19" y="-225" type="curve"/>
      <point x="-15" y="-190"/>
      <point x="-34" y="-170"/>
      <point x="-61" y="-170" type="curve" smooth="yes"/>
      <point x="-90" y="-170"/>
      <point x="-104" y="-194"/>
      <point x="-104" y="-217" type="curve" smooth="yes"/>
      <point x="-104" y="-257"/>
      <point x="-62" y="-271"/>
      <point x="-28" y="-271" type="curve" smooth="yes"/>
      <point x="167" y="-271"/>
      <point x="196" y="-12"/>
      <point x="217" y="192" type="curve" smooth="yes"/>
      <point x="225" y="274"/>
      <point x="227" y="354"/>
      <point x="227" y="409" type="curve" smooth="yes"/>
      <point x="227" y="477"/>
      <point x="197" y="511"/>
    </contour>
    <contour>
      <point x="171" y="776" type="line"/>
      <point x="169" y="776" type="line"/>
      <point x="11" y="619" type="line"/>
      <point x="33" y="593" type="line"/>
      <point x="159" y="702" type="line"/>
      <point x="161" y="702" type="line"/>
      <point x="271" y="589" type="line"/>
      <point x="297" y="615" type="line"/>
    </contour>
  </outline>
</glyph>
<glyph name="Lslash" format="2">
  <advance width="577"/>
  <unicode hex="0141"/>
  <outline>
    <contour>
      <point x="299" y="700" type="line"/>
      <point x="78" y="700" type="line"/>
      <point x="78" y="656" type="line"/>
      <point x="102" y="657"/>
      <point x="125" y="659"/>
      <point x="149" y="660" type="curve"/>
      <point x="145" y="640"/>
      <point x="144" y="615"/>
      <point x="142" y="588" type="curve" smooth="yes"/>
      <point x="128" y="343" type="line"/>
      <point x="47" y="284" type="line"/>
      <point x="44" y="228" type="line"/>
      <point x="125" y="288" type="line"/>
      <point x="118" y="156" type="line" smooth="yes"/>
      <point x="114" y="85"/>
      <point x="118" y="36"/>
      <point x="43" y="33" type="curve"/>
      <point x="41" y="0" type="line"/>
      <point x="533" y="0" type="line"/>
      <point x="550" y="207" type="line"/>
      <point x="516" y="207" type="line"/>
      <point x="510" y="88"/>
      <point x="463" y="42"/>
      <point x="379" y="40" type="curve" smooth="yes"/>
      <point x="192" y="37" type="line"/>
      <point x="195" y="54"/>
      <point x="197" y="79"/>
      <point x="199" y="115" type="curve" smooth="yes"/>
      <point x="212" y="352" type="line"/>
      <point x="388" y="482" type="line"/>
      <point x="391" y="536" type="line"/>
      <point x="215" y="406" type="line"/>
      <point x="222" y="544" type="line"/>
      <point x="225" y="615"/>
      <point x="227" y="664"/>
      <point x="297" y="667" type="curve"/>
    </contour>
  </outline>
</glyph>
<glyph name="oe" format="2">
  <advance width="797"/>
  <unicode hex="0153"/>
  <outline>
    <contour>
      <point x="593" y="511" type="curve" smooth="yes"/>
      <point x="515" y="511"/>
      <point x="445" y="455"/>
      <point x="417" y="406" type="curve"/>
      <point x="414" y="406" type="line"/>
      <point x="391" y="472"/>
      <point x="342" y="510"/>
      <point x="277" y="511" type="curve" smooth="yes"/>
      <point x="123" y="513"/>
      <point x="40" y="375"/>
      <point x="40" y="213" type="curve" smooth="yes"/>
      <point x="40" y="89"/>
      <point x="90" y="-11"/>
      <point x="222" y="-11" type="curve" smooth="yes"/>
      <point x="292" y="-11"/>
      <point x="357" y="36"/>
      <point x="390" y="89" type="curve"/>
      <point x="392" y="89" type="line"/>
      <point x="420" y="21"/>
      <point x="479" y="-11"/>
      <point x="543" y="-11" type="curve" smooth="yes"/>
      <point x="634" y="-11"/>
      <point x="705" y="36"/>
      <point x="761" y="141" type="curve"/>
      <point x="728" y="160" type="line"/>
      <point x="684" y="76"/>
      <point x="611" y="34"/>
      <point x="555" y="39" type="curve" smooth="yes"/>
      <point x="500" y="44"/>
      <point x="442" y="92"/>
      <point x="447" y="231" type="curve"/>
      <point x="589" y="245"/>
      <point x="738" y="294"/>
      <point x="738" y="402" type="curve" smooth="yes"/>
      <point x="738" y="491"/>
      <point x="664" y="511"/>
    </contour>
    <contour>
      <point x="260" y="474" type="curve" smooth="yes"/>
      <point x="371" y="472"/>
      <point x="370" y="317"/>
      <point x="368" y="248" type="curve" smooth="yes"/>
      <point x="365" y="137"/>
      <point x="328" y="27"/>
      <point x="231" y="28" type="curve" smooth="yes"/>
      <point x="139" y="29"/>
      <point x="123" y="154"/>
      <point x="125" y="246" type="curve" smooth="yes"/>
      <point x="127" y="374"/>
      <point x="171" y="476"/>
    </contour>
    <contour>
      <point x="578" y="477" type="curve" smooth="yes"/>
      <point x="625" y="481"/>
      <point x="658" y="459"/>
      <point x="658" y="405" type="curve" smooth="yes"/>
      <point x="658" y="315"/>
      <point x="542" y="279"/>
      <point x="447" y="266" type="curve"/>
      <point x="453" y="374"/>
      <point x="509" y="470"/>
    </contour>
  </outline>
</glyph>
<glyph name="longs" format="2">
  <advance width="325"/>
  <unicode hex="017F"/>
  <outline>
    <contour>
      <point x="316" y="760" type="curve" smooth="yes"/>
      <point x="183" y="757"/>
      <point x="138" y="645"/>
      <point x="117" y="500" type="curve"/>
      <point x="29" y="500" type="line"/>
      <point x="24" y="457" type="line"/>
      <point x="112" y="458" type="line"/>
      <point x="104" y="390"/>
      <point x="81" y="62"/>
      <point x="75" y="-7" type="curve" smooth="yes"/>
      <point x="63" y="-142"/>
      <point x="45" y="-232"/>
      <point x="-16" y="-232" type="curve" smooth="yes"/>
      <point x="-28" y="-232"/>
      <point x="-38" y="-229"/>
      <point x="-45" y="-224" type="curve"/>
      <point x="-45" y="-197"/>
      <point x="-60" y="-179"/>
      <point x="-84" y="-178" type="curve" smooth="yes"/>
      <point x="-114" y="-177"/>
      <point x="-125" y="-204"/>
      <point x="-125" y="-219" type="curve" smooth="yes"/>
      <point x="-125" y="-253"/>
      <point x="-98" y="-271"/>
      <point x="-47" y="-271" type="curve" smooth="yes"/>
      <point x="85" y="-271"/>
      <point x="131" y="-156"/>
      <point x="152" y="-9" type="curve" smooth="yes"/>
      <point x="167" y="87"/>
      <point x="178" y="256"/>
      <point x="193" y="500" type="curve" smooth="yes"/>
      <point x="203" y="625"/>
      <point x="221" y="716"/>
      <point x="284" y="722" type="curve" smooth="yes"/>
      <point x="295" y="723"/>
      <point x="309" y="721"/>
      <point x="313" y="718" type="curve"/>
      <point x="312" y="689"/>
      <point x="328" y="668"/>
      <point x="353" y="668" type="curve" smooth="yes"/>
      <point x="383" y="667"/>
      <point x="393" y="693"/>
      <point x="393" y="708" type="curve" smooth="yes"/>
      <point x="393" y="742"/>
      <point x="365" y="761"/>
    </contour>
  </outline>
</glyph>
<glyph name="Gstroke" format="2">
  <advance width="753"/>
  <unicode hex="01E4"/>
  <outline>
    <contour>
      <point x="748" y="228" type="line"/>
      <point x="464" y="228" type="line"/>
      <point x="462" y="185" type="line"/>
      <point x="746" y="189" type="line"/>
    </contour>
    <component base="G"/>
  </outline>
</glyph>
<glyph name="gstroke" format="2">
  <advance width="518"/>
  <unicode hex="01E5"/>
  <outline>
    <contour>
      <point x="473" y="-52" type="line"/>
      <point x="188" y="-52" type="line"/>
      <point x="186" y="-95" type="line"/>
      <point x="471" y="-91" type="line"/>
    </contour>
    <component base="g"/>
  </outline>
</glyph>
<glyph name="schwa" format="2">
  <advance width="490"/>
  <unicode hex="0259"/>
  <outline>
    <contour>
      <point x="205" y="-11" type="curve" smooth="yes"/>
      <point x="366" y="-11"/>
      <point x="445" y="136"/>
      <point x="445" y="291" type="curve" smooth="yes"/>
      <point x="445" y="421"/>
      <point x="387" y="511"/>
      <point x="256" y="511" type="curve" smooth="yes"/>
      <point x="179" y="511"/>
      <point x="120" y="481"/>
      <point x="70" y="413" type="curve"/>
      <point x="103" y="394" type="line"/>
      <point x="140" y="440"/>
      <point x="194" y="461"/>
      <point x="240" y="461" type="curve" smooth="yes"/>
      <point x="325" y="461"/>
      <point x="360" y="388"/>
      <point x="357" y="255" type="curve" smooth="yes"/>
      <point x="351" y="108"/>
      <point x="298" y="27"/>
      <point x="217" y="27" type="curve" smooth="yes"/>
      <point x="164" y="27"/>
      <point x="125" y="62"/>
      <point x="125" y="115" type="curve" smooth="yes"/>
      <point x="125" y="215"/>
      <point x="254" y="250"/>
      <point x="377" y="264" type="curve"/>
      <point x="376" y="300" type="line"/>
      <point x="240" y="286"/>
      <point x="42" y="246"/>
      <point x="42" y="113" type="curve" smooth="yes"/>
      <point x="42" y="27"/>
      <point x="125" y="-11"/>
    </contour>
  </outline>
</glyph>
<glyph name="circumflex" format="2">
  <advance width="400"/>
  <unicode hex="02C6"/>
  <anchor x="191" y="512" name="_top"/>
  <outline>
    <contour>
      <point x="330" y="589" type="line"/>
      <point x="355" y="615" type="line"/>
      <point x="215" y="776" type="line"/>
      <point x="213" y="776" type="line"/>
      <point x="45" y="619" type="line"/>
      <point x="67" y="593" type="line"/>
      <point x="203" y="702" type="line"/>
      <point x="205" y="702" type="line"/>
    </contour>
  </outline>
</glyph>
<glyph name="ring" format="2">
  <advance width="289"/>
  <unicode hex="02DA"/>
  <anchor x="136" y="512" name="_top"/>
  <outline>
    <contour>
      <point x="140" y="570" type="curve" smooth="yes"/>
      <point x="188" y="570"/>
      <point x="242" y="609"/>
      <point x="243" y="671" type="curve" smooth="yes"/>
      <point x="244" y="733"/>
      <point x="196" y="761"/>
      <point x="149" y="761" type="curve" smooth="yes"/>
      <point x="100" y="761"/>
      <point x="47" y="720"/>
      <point x="46" y="661" type="curve" smooth="yes"/>
      <point x="45" y="598"/>
      <point x="92" y="570"/>
    </contour>
    <contour>
      <point x="145" y="598" type="curve" smooth="yes"/>
      <point x="114" y="597"/>
      <point x="95" y="631"/>
      <point x="97" y="670" type="curve" smooth="yes"/>
      <point x="99" y="705"/>
      <point x="121" y="732"/>
      <point x="147" y="733" type="curve" smooth="yes"/>
      <point x="176" y="734"/>
      <point x="194" y="702"/>
      <point x="192" y="660" type="curve" smooth="yes"/>
      <point x="190" y="625"/>
      <point x="169" y="599"/>
    </contour>
  </outline>
</glyph>
<glyph name="ogonek" format="2">
  <advance width="305"/>
  <unicode hex="02DB"/>
  <anchor x="257" y="27" name="_ogonek"/>
  <outline>
    <contour>
      <point x="136" y="-257" type="curve" smooth="yes"/>
      <point x="184" y="-257"/>
      <point x="231" y="-225"/>
      <point x="259" y="-194" type="curve"/>
      <point x="245" y="-177" type="line"/>
      <point x="220" y="-199"/>
      <point x="193" y="-209"/>
      <point x="169" y="-209" type="curve" smooth="yes"/>
      <point x="130" y="-209"/>
      <point x="109" y="-181"/>
      <point x="109" y="-139" type="curve" smooth="yes"/>
      <point x="109" y="-68"/>
      <point x="180" y="-3"/>
      <point x="258" y="27" type="curve"/>
      <point x="260" y="53" type="line"/>
      <point x="156" y="20"/>
      <point x="51" y="-57"/>
      <point x="46" y="-155" type="curve" smooth="yes"/>
      <point x="43" y="-215"/>
      <point x="77" y="-257"/>
    </contour>
  </outline>
</glyph>
<glyph name="tilde" format="2">
  <advance width="424"/>
  <unicode hex="02DC"/>
  <anchor x="204" y="512" name="_top"/>
  <outline>
    <contour>
      <point x="70" y="625" type="line"/>
      <point x="90" y="654"/>
      <point x="120" y="670"/>
      <point x="143" y="670" type="curve" smooth="yes"/>
      <point x="190" y="670"/>
      <point x="214" y="617"/>
      <point x="276" y="617" type="curve" smooth="yes"/>
      <point x="311" y="617"/>
      <point x="354" y="642"/>
      <point x="379" y="708" type="curve"/>
      <point x="355" y="720" type="line"/>
      <point x="333" y="687"/>
      <point x="310" y="668"/>
      <point x="279" y="669" type="curve" smooth="yes"/>
      <point x="235" y="670"/>
      <point x="214" y="723"/>
      <point x="151" y="721" type="curve" smooth="yes"/>
      <point x="114" y="720"/>
      <point x="64" y="685"/>
      <point x="45" y="638" type="curve"/>
    </contour>
  </outline>
</glyph>
<glyph name="hungarumlaut" format="2">
  <advance width="419"/>
  <unicode hex="02DD"/>
  <anchor x="201" y="512" name="_top"/>
  <outline>
    <contour>
      <point x="203" y="594" type="line"/>
      <point x="338" y="685" type="line" smooth="yes"/>
      <point x="376" y="710"/>
      <point x="378" y="731"/>
      <point x="368" y="747" type="curve" smooth="yes"/>
      <point x="359" y="761"/>
      <point x="332" y="769"/>
      <point x="295" y="730" type="curve" smooth="yes"/>
      <point x="185" y="617" type="line"/>
    </contour>
    <contour>
      <point x="67" y="585" type="line"/>
      <point x="185" y="688" type="line" smooth="yes"/>
      <point x="226" y="723"/>
      <point x="215" y="743"/>
      <point x="207" y="753" type="curve" smooth="yes"/>
      <point x="201" y="760"/>
      <point x="173" y="772"/>
      <point x="140" y="729" type="curve" smooth="yes"/>
      <point x="45" y="607" type="line"/>
    </contour>
  </outline>
</glyph>
<glyph name="horncomb" format="2">
  <unicode hex="031B"/>
  <anchor x="191" y="512" name="_topright"/>
  <anchor x="191" y="512" name="topright"/>
  <outline>
    <contour>
      <point x="104" y="456" type="line"/>
      <point x="192" y="456"/>
      <point x="247" y="517"/>
      <point x="259" y="581" type="curve"/>
      <point x="187" y="581" type="line"/>
      <point x="180" y="545"/>
      <point x="161" y="504"/>
      <point x="113" y="504" type="curve"/>
    </contour>
  </outline>
</glyph>
<glyph name="Delta" format="2">
  <advance width="698"/>
  <unicode hex="0394"/>
  <outline>
    <contour>
      <point x="10" y="0" type="line"/>
      <point x="653" y="0" type="line"/>
      <point x="400" y="716" type="line"/>
      <point x="320" y="716" type="line"/>
    </contour>
    <contour>
      <point x="550" y="56" type="line"/>
      <point x="91" y="59" type="line"/>
      <point x="347" y="660" type="line"/>
    </contour>
  </outline>
</glyph>
<glyph name="mu" format="2">
  <advance width="592"/>
  <unicode hex="03BC"/>
  <outline>
    <contour>
      <point x="102" y="-271" type="curve" smooth="yes"/>
      <point x="130" y="-271"/>
      <point x="141" y="-246"/>
      <point x="142" y="-220" type="curve" smooth="yes"/>
      <point x="146" y="-173"/>
      <point x="117" y="-67"/>
      <point x="118" y="72" type="curve"/>
      <point x="121" y="72" type="line"/>
      <point x="144" y="12"/>
      <point x="176" y="-11"/>
      <point x="231" y="-11" type="curve" smooth="yes"/>
      <point x="284" y="-11"/>
      <point x="335" y="13"/>
      <point x="379" y="58" type="curve"/>
      <point x="380" y="58" type="line"/>
      <point x="385" y="25"/>
      <point x="396" y="-11"/>
      <point x="445" y="-11" type="curve" smooth="yes"/>
      <point x="491" y="-11"/>
      <point x="531" y="21"/>
      <point x="549" y="44" type="curve"/>
      <point x="540" y="60" type="line"/>
      <point x="521" y="46"/>
      <point x="508" y="42"/>
      <point x="496" y="42" type="curve" smooth="yes"/>
      <point x="468" y="42"/>
      <point x="452" y="66"/>
      <point x="457" y="136" type="curve" smooth="yes"/>
      <point x="475" y="500" type="line"/>
      <point x="399" y="500" type="line"/>
      <point x="378" y="105" type="line"/>
      <point x="350" y="66"/>
      <point x="304" y="40"/>
      <point x="255" y="40" type="curve" smooth="yes"/>
      <point x="168" y="40"/>
      <point x="152" y="128"/>
      <point x="158" y="242" type="curve" smooth="yes"/>
      <point x="172" y="500" type="line"/>
      <point x="94" y="500" type="line"/>
      <point x="58" y="-188" type="line" smooth="yes"/>
      <point x="55" y="-241"/>
      <point x="64" y="-271"/>
    </contour>
  </outline>
</glyph>
<glyph name="Tshe-cy" format="2">
  <advance width="826"/>
  <unicode hex="040B"/>
  <outline>
    <contour>
      <point x="560" y="0" type="line"/>
      <point x="781" y="0" type="line"/>
      <point x="783" y="44" type="line"/>
      <point x="711" y="40" type="line"/>
      <point x="716" y="71"/>
      <point x="718" y="114"/>
      <point x="724" y="229" type="curve" smooth="yes"/>
      <point x="731" y="357"/>
      <point x="673" y="427"/>
      <point x="549" y="427" type="curve" smooth="yes"/>
      <point x="468" y="427"/>
      <point x="405" y="412"/>
      <point x="361" y="389" type="curve"/>
      <point x="359" y="340" type="line"/>
      <point x="393" y="361"/>
      <point x="440" y="376"/>
      <point x="513" y="376" type="curve" smooth="yes"/>
      <point x="598" y="376"/>
      <point x="647" y="327"/>
      <point x="643" y="250" type="curve" smooth="yes"/>
      <point x="637" y="144" type="line" smooth="yes"/>
      <point x="633" y="73"/>
      <point x="627" y="36"/>
      <point x="562" y="33" type="curve"/>
    </contour>
    <component base="T"/>
  </outline>
</glyph>
<glyph name="De-cy" format="2">
  <advance width="669"/>
  <unicode hex="0414"/>
  <outline>
    <contour>
      <point x="550" y="554" type="line" smooth="yes"/>
      <point x="553" y="625"/>
      <point x="555" y="664"/>
      <point x="626" y="667" type="curve"/>
      <point x="628" y="700" type="line"/>
      <point x="135" y="700" type="line"/>
      <point x="133" y="656" type="line"/>
      <point x="229" y="657" type="line"/>
      <point x="198" y="382"/>
      <point x="167" y="208"/>
      <point x="105" y="105" type="curve" smooth="yes"/>
      <point x="69" y="49"/>
      <point x="41" y="44"/>
      <point x="7" y="44" type="curve" smooth="yes"/>
      <point x="-21" y="44" type="line"/>
      <point x="-33" y="-178" type="line"/>
      <point x="9" y="-178" type="line"/>
      <point x="14" y="-63"/>
      <point x="35" y="0"/>
      <point x="101" y="0" type="curve" smooth="yes"/>
      <point x="481" y="0" type="line" smooth="yes"/>
      <point x="546" y="0"/>
      <point x="560" y="-63"/>
      <point x="554" y="-178" type="curve"/>
      <point x="596" y="-178" type="line"/>
      <point x="607" y="44" type="line"/>
      <point x="521" y="44" type="line"/>
      <point x="524" y="61"/>
      <point x="526" y="83"/>
      <point x="527" y="119" type="curve" smooth="yes"/>
    </contour>
    <contour>
      <point x="117" y="44" type="line"/>
      <point x="216" y="143"/>
      <point x="248" y="401"/>
      <point x="273" y="605" type="curve" smooth="yes"/>
      <point x="277" y="634"/>
      <point x="293" y="654"/>
      <point x="331" y="658" type="curve"/>
      <point x="477" y="660" type="line"/>
      <point x="473" y="640"/>
      <point x="470" y="615"/>
      <point x="469" y="588" type="curve" smooth="yes"/>
      <point x="446" y="156" type="line" smooth="yes"/>
      <point x="442" y="84"/>
      <point x="437" y="46"/>
      <point x="372" y="44" type="curve" smooth="yes"/>
    </contour>
  </outline>
</glyph>
<glyph name="Zhe-cy" format="2">
  <advance width="939"/>
  <unicode hex="0416"/>
  <anchor x="906" y="0" name="bottomright"/>
  <anchor x="493" y="700" name="top"/>
  <outline>
    <contour>
      <point x="-20" y="0" type="line"/>
      <point x="87" y="0" type="line" smooth="yes"/>
      <point x="107" y="0"/>
      <point x="154" y="34"/>
      <point x="196" y="98" type="curve" smooth="yes"/>
      <point x="302" y="260" type="line" smooth="yes"/>
      <point x="323" y="291"/>
      <point x="339" y="317"/>
      <point x="371" y="341" type="curve"/>
      <point x="430" y="340" type="line"/>
      <point x="420" y="156" type="line" smooth="yes"/>
      <point x="417" y="85"/>
      <point x="420" y="36"/>
      <point x="345" y="33" type="curve"/>
      <point x="343" y="0" type="line"/>
      <point x="568" y="0" type="line"/>
      <point x="571" y="44" type="line"/>
      <point x="547" y="43"/>
      <point x="523" y="41"/>
      <point x="499" y="40" type="curve"/>
      <point x="502" y="57"/>
      <point x="504" y="83"/>
      <point x="506" y="119" type="curve" smooth="yes"/>
      <point x="518" y="340" type="line"/>
      <point x="577" y="341" type="line"/>
      <point x="606" y="317"/>
      <point x="620" y="291"/>
      <point x="637" y="260" type="curve" smooth="yes"/>
      <point x="729" y="98" type="line" smooth="yes"/>
      <point x="765" y="35"/>
      <point x="810" y="0"/>
      <point x="830" y="0" type="curve" smooth="yes"/>
      <point x="932" y="0" type="line"/>
      <point x="934" y="33" type="line"/>
      <point x="891" y="33"/>
      <point x="857" y="52"/>
      <point x="803" y="149" type="curve" smooth="yes"/>
      <point x="723" y="291" type="line" smooth="yes"/>
      <point x="700" y="331"/>
      <point x="681" y="353"/>
      <point x="645" y="376" type="curve"/>
      <point x="744" y="532" type="line" smooth="yes"/>
      <point x="813" y="644"/>
      <point x="865" y="660"/>
      <point x="950" y="667" type="curve"/>
      <point x="952" y="700" type="line"/>
      <point x="737" y="700" type="line"/>
      <point x="734" y="659" type="line"/>
      <point x="754" y="660"/>
      <point x="775" y="660"/>
      <point x="795" y="661" type="curve" smooth="yes"/>
      <point x="767" y="639"/>
      <point x="737" y="604"/>
      <point x="720" y="577" type="curve" smooth="yes"/>
      <point x="594" y="380" type="line"/>
      <point x="520" y="380" type="line"/>
      <point x="528" y="544" type="line" smooth="yes"/>
      <point x="532" y="615"/>
      <point x="528" y="664"/>
      <point x="604" y="667" type="curve"/>
      <point x="605" y="700" type="line"/>
      <point x="380" y="700" type="line"/>
      <point x="378" y="656" type="line"/>
      <point x="402" y="657"/>
      <point x="426" y="659"/>
      <point x="450" y="660" type="curve"/>
      <point x="447" y="640"/>
      <point x="444" y="615"/>
      <point x="443" y="588" type="curve" smooth="yes"/>
      <point x="432" y="380" type="line"/>
      <point x="358" y="380" type="line"/>
      <point x="253" y="577" type="line" smooth="yes"/>
      <point x="239" y="604"/>
      <point x="213" y="639"/>
      <point x="186" y="661" type="curve"/>
      <point x="206" y="660"/>
      <point x="227" y="660"/>
      <point x="247" y="659" type="curve"/>
      <point x="250" y="700" type="line"/>
      <point x="35" y="700" type="line"/>
      <point x="33" y="667" type="line"/>
      <point x="116" y="660"/>
      <point x="166" y="644"/>
      <point x="225" y="532" type="curve" smooth="yes"/>
      <point x="308" y="376" type="line"/>
      <point x="269" y="353"/>
      <point x="247" y="331"/>
      <point x="220" y="291" type="curve" smooth="yes"/>
      <point x="125" y="149" type="line" smooth="yes"/>
      <point x="61" y="52"/>
      <point x="25" y="33"/>
      <point x="-18" y="33" type="curve"/>
    </contour>
  </outline>
</glyph>
<glyph name="Tse-cy" format="2">
  <advance width="726"/>
  <unicode hex="0426"/>
  <outline>
    <contour>
      <point x="621" y="-177" type="curve"/>
      <point x="663" y="-177" type="line"/>
      <point x="675" y="45" type="line"/>
      <point x="592" y="40" type="line"/>
      <point x="595" y="57"/>
      <point x="597" y="83"/>
      <point x="599" y="119" type="curve" smooth="yes"/>
      <point x="622" y="557" type="line" smooth="yes"/>
      <point x="626" y="628"/>
      <point x="632" y="664"/>
      <point x="697" y="667" type="curve"/>
      <point x="699" y="700" type="line"/>
      <point x="478" y="700" type="line"/>
      <point x="476" y="656" type="line"/>
      <point x="500" y="657"/>
      <point x="524" y="659"/>
      <point x="548" y="660" type="curve"/>
      <point x="545" y="640"/>
      <point x="542" y="615"/>
      <point x="541" y="588" type="curve" smooth="yes"/>
      <point x="518" y="156" type="line" smooth="yes"/>
      <point x="514" y="79"/>
      <point x="509" y="40"/>
      <point x="446" y="40" type="curve" smooth="yes"/>
      <point x="193" y="44" type="line"/>
      <point x="195" y="57"/>
      <point x="197" y="83"/>
      <point x="199" y="119" type="curve" smooth="yes"/>
      <point x="222" y="556" type="line" smooth="yes"/>
      <point x="226" y="627"/>
      <point x="232" y="664"/>
      <point x="297" y="667" type="curve"/>
      <point x="299" y="700" type="line"/>
      <point x="78" y="700" type="line"/>
      <point x="76" y="656" type="line"/>
      <point x="100" y="657"/>
      <point x="124" y="659"/>
      <point x="148" y="660" type="curve"/>
      <point x="145" y="640"/>
      <point x="143" y="615"/>
      <point x="141" y="588" type="curve" smooth="yes"/>
      <point x="118" y="156" type="line" smooth="yes"/>
      <point x="114" y="85"/>
      <point x="118" y="36"/>
      <point x="43" y="33" type="curve"/>
      <point x="41" y="0" type="line"/>
      <point x="549" y="0" type="line" smooth="yes"/>
      <point x="615" y="0"/>
      <point x="627" y="-63"/>
    </contour>
  </outline>
</glyph>
<glyph name="Che-cy" format="2">
  <advance width="694"/>
  <unicode hex="0427"/>
  <anchor x="502" y="0" name="bottomright"/>
  <anchor x="352" y="350" name="center"/>
  <anchor x="370" y="700" name="top"/>
  <outline>
    <contour>
      <point x="405" y="0" type="line"/>
      <point x="625" y="0" type="line"/>
      <point x="627" y="44" type="line"/>
      <point x="603" y="43"/>
      <point x="580" y="41"/>
      <point x="556" y="40" type="curve"/>
      <point x="559" y="57"/>
      <point x="561" y="83"/>
      <point x="563" y="119" type="curve" smooth="yes"/>
      <point x="585" y="557" type="line" smooth="yes"/>
      <point x="589" y="628"/>
      <point x="595" y="664"/>
      <point x="661" y="667" type="curve"/>
      <point x="663" y="700" type="line"/>
      <point x="441" y="700" type="line"/>
      <point x="439" y="656" type="line"/>
      <point x="512" y="660" type="line"/>
      <point x="509" y="640"/>
      <point x="506" y="615"/>
      <point x="504" y="588" type="curve" smooth="yes"/>
      <point x="492" y="360" type="line"/>
      <point x="456" y="339"/>
      <point x="404" y="324"/>
      <point x="324" y="324" type="curve" smooth="yes"/>
      <point x="239" y="324"/>
      <point x="188" y="371"/>
      <point x="193" y="451" type="curve" smooth="yes"/>
      <point x="199" y="556" type="line" smooth="yes"/>
      <point x="203" y="627"/>
      <point x="209" y="664"/>
      <point x="274" y="667" type="curve"/>
      <point x="276" y="700" type="line"/>
      <point x="55" y="700" type="line"/>
      <point x="53" y="656" type="line"/>
      <point x="125" y="660" type="line"/>
      <point x="120" y="628"/>
      <point x="120" y="614"/>
      <point x="112" y="472" type="curve" smooth="yes"/>
      <point x="105" y="343"/>
      <point x="163" y="273"/>
      <point x="287" y="273" type="curve" smooth="yes"/>
      <point x="375" y="273"/>
      <point x="443" y="288"/>
      <point x="490" y="311" type="curve"/>
      <point x="481" y="156" type="line" smooth="yes"/>
      <point x="479" y="85"/>
      <point x="481" y="36"/>
      <point x="407" y="33" type="curve"/>
    </contour>
  </outline>
</glyph>
<glyph name="Yeru-cy" format="2">
  <advance width="892"/>
  <unicode hex="042B"/>
  <anchor x="469" y="700" name="top"/>
  <outline>
    <contour>
      <point x="41" y="0" type="line"/>
      <point x="320" y="0" type="line" smooth="yes"/>
      <point x="446" y="0"/>
      <point x="549" y="68"/>
      <point x="549" y="205" type="curve" smooth="yes"/>
      <point x="549" y="321"/>
      <point x="473" y="390"/>
      <point x="288" y="385" type="curve" smooth="yes"/>
      <point x="214" y="383" type="line"/>
      <point x="223" y="554" type="line" smooth="yes"/>
      <point x="226" y="625"/>
      <point x="227" y="664"/>
      <point x="297" y="667" type="curve"/>
      <point x="299" y="700" type="line"/>
      <point x="78" y="700" type="line"/>
      <point x="76" y="656" type="line"/>
      <point x="100" y="657"/>
      <point x="124" y="659"/>
      <point x="148" y="660" type="curve"/>
      <point x="145" y="640"/>
      <point x="142" y="615"/>
      <point x="141" y="588" type="curve" smooth="yes"/>
      <point x="119" y="161" type="line" smooth="yes"/>
      <point x="115" y="86"/>
      <point x="118" y="35"/>
      <point x="43" y="33" type="curve"/>
    </contour>
    <contour>
      <point x="193" y="41" type="curve"/>
      <point x="196" y="58"/>
      <point x="198" y="83"/>
      <point x="200" y="119" type="curve" smooth="yes"/>
      <point x="212" y="344" type="line"/>
      <point x="244" y="346"/>
      <point x="271" y="347"/>
      <point x="306" y="347" type="curve" smooth="yes"/>
      <point x="382" y="347"/>
      <point x="461" y="308"/>
      <point x="455" y="195" type="curve" smooth="yes"/>
      <point x="450" y="90"/>
      <point x="378" y="39"/>
      <point x="290" y="39" type="curve" smooth="yes"/>
      <point x="276" y="39"/>
      <point x="224" y="38"/>
    </contour>
    <component base="I" xOffset="560"/>
  </outline>
</glyph>
<glyph name="Softsign-cy" format="2">
  <advance width="598"/>
  <unicode hex="042C"/>
  <outline>
    <contour>
      <point x="41" y="0" type="line"/>
      <point x="330" y="0" type="line" smooth="yes"/>
      <point x="465" y="0"/>
      <point x="573" y="68"/>
      <point x="573" y="205" type="curve" smooth="yes"/>
      <point x="573" y="321"/>
      <point x="497" y="390"/>
      <point x="298" y="385" type="curve" smooth="yes"/>
      <point x="214" y="383" type="line"/>
      <point x="223" y="554" type="line" smooth="yes"/>
      <point x="226" y="625"/>
      <point x="227" y="664"/>
      <point x="297" y="667" type="curve"/>
      <point x="299" y="700" type="line"/>
      <point x="78" y="700" type="line"/>
      <point x="76" y="656" type="line"/>
      <point x="100" y="657"/>
      <point x="124" y="659"/>
      <point x="148" y="660" type="curve"/>
      <point x="145" y="640"/>
      <point x="142" y="615"/>
      <point x="141" y="588" type="curve" smooth="yes"/>
      <point x="119" y="161" type="line" smooth="yes"/>
      <point x="115" y="86"/>
      <point x="118" y="35"/>
      <point x="43" y="33" type="curve"/>
    </contour>
    <contour>
      <point x="193" y="41" type="curve"/>
      <point x="196" y="58"/>
      <point x="198" y="83"/>
      <point x="200" y="119" type="curve" smooth="yes"/>
      <point x="212" y="344" type="line"/>
      <point x="244" y="346"/>
      <point x="275" y="347"/>
      <point x="315" y="347" type="curve" smooth="yes"/>
      <point x="406" y="347"/>
      <point x="485" y="308"/>
      <point x="479" y="195" type="curve" smooth="yes"/>
      <point x="474" y="90"/>
      <point x="402" y="39"/>
      <point x="299" y="39" type="curve" smooth="yes"/>
      <point x="286" y="39"/>
      <point x="224" y="38"/>
    </contour>
  </outline>
</glyph>
<glyph name="de-cy" format="2">
  <advance width="496"/>
  <unicode hex="0434"/>
  <outline>
    <contour>
      <point x="214" y="-11" type="curve" smooth="yes"/>
      <point x="329" y="-11"/>
      <point x="445" y="78"/>
      <point x="452" y="343" type="curve" smooth="yes"/>
      <point x="457" y="561"/>
      <point x="393" y="758"/>
      <point x="225" y="758" type="curve" smooth="yes"/>
      <point x="176" y="758"/>
      <point x="137" y="738"/>
      <point x="89" y="697" type="curve"/>
      <point x="108" y="674" type="line"/>
      <point x="143" y="708"/>
      <point x="180" y="721"/>
      <point x="215" y="721" type="curve" smooth="yes"/>
      <point x="291" y="721"/>
      <point x="353" y="630"/>
      <point x="369" y="453" type="curve"/>
      <point x="349" y="480"/>
      <point x="314" y="492"/>
      <point x="273" y="492" type="curve" smooth="yes"/>
      <point x="145" y="492"/>
      <point x="42" y="377"/>
      <point x="39" y="209" type="curve" smooth="yes"/>
      <point x="36" y="64"/>
      <point x="112" y="-11"/>
    </contour>
    <contour>
      <point x="233" y="27" type="curve" smooth="yes"/>
      <point x="162" y="27"/>
      <point x="121" y="110"/>
      <point x="123" y="220" type="curve" smooth="yes"/>
      <point x="126" y="368"/>
      <point x="205" y="455"/>
      <point x="274" y="455" type="curve" smooth="yes"/>
      <point x="333" y="455"/>
      <point x="374" y="393"/>
      <point x="369" y="304" type="curve" smooth="yes"/>
      <point x="362" y="180"/>
      <point x="328" y="27"/>
    </contour>
  </outline>
</glyph>
<glyph name="zhe-cy" format="2">
  <advance width="847"/>
  <unicode hex="0436"/>
  <anchor x="814" y="0" name="bottomright"/>
  <anchor x="437" y="512" name="top"/>
  <outline>
    <contour>
      <point x="129" y="-11" type="curve" smooth="yes"/>
      <point x="240" y="-11"/>
      <point x="312" y="127"/>
      <point x="319" y="292" type="curve" smooth="yes"/>
      <point x="326" y="432"/>
      <point x="272" y="511"/>
      <point x="198" y="511" type="curve" smooth="yes"/>
      <point x="139" y="512"/>
      <point x="97" y="485"/>
      <point x="46" y="370" type="curve"/>
      <point x="76" y="353" type="line"/>
      <point x="110" y="439"/>
      <point x="140" y="462"/>
      <point x="177" y="462" type="curve" smooth="yes"/>
      <point x="218" y="462"/>
      <point x="249" y="409"/>
      <point x="242" y="269" type="curve" smooth="yes"/>
      <point x="236" y="163"/>
      <point x="203" y="27"/>
      <point x="136" y="27" type="curve" smooth="yes"/>
      <point x="110" y="27"/>
      <point x="95" y="40"/>
      <point x="90" y="77" type="curve"/>
      <point x="102" y="88"/>
      <point x="108" y="100"/>
      <point x="108" y="118" type="curve" smooth="yes"/>
      <point x="109" y="139"/>
      <point x="95" y="158"/>
      <point x="66" y="157" type="curve" smooth="yes"/>
      <point x="43" y="157"/>
      <point x="24" y="138"/>
      <point x="22" y="106" type="curve" smooth="yes"/>
      <point x="19" y="40"/>
      <point x="73" y="-11"/>
    </contour>
    <contour>
      <point x="660" y="-11" type="curve" smooth="yes"/>
      <point x="723" y="-11"/>
      <point x="764" y="31"/>
      <point x="811" y="147" type="curve"/>
      <point x="777" y="164" type="line"/>
      <point x="743" y="68"/>
      <point x="714" y="27"/>
      <point x="672" y="27" type="curve" smooth="yes"/>
      <point x="631" y="27"/>
      <point x="599" y="84"/>
      <point x="601" y="231" type="curve" smooth="yes"/>
      <point x="603" y="337"/>
      <point x="633" y="474"/>
      <point x="699" y="474" type="curve" smooth="yes"/>
      <point x="729" y="474"/>
      <point x="741" y="452"/>
      <point x="741" y="423" type="curve"/>
      <point x="730" y="412"/>
      <point x="726" y="400"/>
      <point x="726" y="382" type="curve" smooth="yes"/>
      <point x="726" y="361"/>
      <point x="739" y="342"/>
      <point x="768" y="343" type="curve" smooth="yes"/>
      <point x="791" y="343"/>
      <point x="810" y="362"/>
      <point x="810" y="394" type="curve" smooth="yes"/>
      <point x="812" y="460"/>
      <point x="768" y="511"/>
      <point x="700" y="511" type="curve" smooth="yes"/>
      <point x="589" y="511"/>
      <point x="527" y="373"/>
      <point x="524" y="208" type="curve" smooth="yes"/>
      <point x="521" y="68"/>
      <point x="570" y="-11"/>
    </contour>
    <contour>
      <point x="366" y="0" type="curve"/>
      <point x="449" y="0" type="line"/>
      <point x="447" y="20"/>
      <point x="446" y="39"/>
      <point x="446" y="55" type="curve" smooth="yes"/>
      <point x="443" y="164"/>
      <point x="479" y="372"/>
      <point x="479" y="485" type="curve" smooth="yes"/>
      <point x="479" y="496"/>
      <point x="479" y="502"/>
      <point x="478" y="511" type="curve"/>
      <point x="397" y="511" type="line"/>
      <point x="399" y="491"/>
      <point x="400" y="473"/>
      <point x="400" y="457" type="curve" smooth="yes"/>
      <point x="402" y="381"/>
      <point x="390" y="310"/>
      <point x="381" y="231" type="curve" smooth="yes"/>
      <point x="367" y="105"/>
      <point x="365" y="60"/>
      <point x="365" y="26" type="curve" smooth="yes"/>
      <point x="365" y="15"/>
      <point x="365" y="9"/>
    </contour>
    <contour>
      <point x="292" y="243" type="line"/>
      <point x="543" y="244" type="line"/>
      <point x="543" y="272" type="line"/>
      <point x="293" y="272" type="line"/>
    </contour>
  </outline>
</glyph>
<glyph name="el-cy" format="2">
  <advance width="582"/>
  <unicode hex="043B"/>
  <outline>
    <contour>
      <point x="61" y="-10" type="curve" smooth="yes"/>
      <point x="201" y="-10"/>
      <point x="278" y="190"/>
      <point x="325" y="429" type="curve" smooth="yes"/>
      <point x="329" y="447"/>
      <point x="338" y="461"/>
      <point x="357" y="461" type="curve"/>
      <point x="399" y="462" type="line"/>
      <point x="399" y="315"/>
      <point x="364" y="150"/>
      <point x="364" y="79" type="curve" smooth="yes"/>
      <point x="364" y="25"/>
      <point x="387" y="-11"/>
      <point x="441" y="-11" type="curve" smooth="yes"/>
      <point x="521" y="-11"/>
      <point x="563" y="83"/>
      <point x="571" y="130" type="curve"/>
      <point x="543" y="136" type="line"/>
      <point x="523" y="65"/>
      <point x="492" y="40"/>
      <point x="470" y="40" type="curve" smooth="yes"/>
      <point x="449" y="40"/>
      <point x="443" y="60"/>
      <point x="443" y="84" type="curve" smooth="yes"/>
      <point x="443" y="146"/>
      <point x="482" y="398"/>
      <point x="482" y="474" type="curve" smooth="yes"/>
      <point x="482" y="485"/>
      <point x="482" y="491"/>
      <point x="481" y="500" type="curve"/>
      <point x="189" y="500" type="line"/>
      <point x="186" y="460" type="line"/>
      <point x="278" y="461" type="line"/>
      <point x="250" y="264"/>
      <point x="171" y="28"/>
      <point x="83" y="38" type="curve"/>
      <point x="84" y="42"/>
      <point x="85" y="46"/>
      <point x="85" y="53" type="curve" smooth="yes"/>
      <point x="85" y="76"/>
      <point x="63" y="92"/>
      <point x="42" y="92" type="curve" smooth="yes"/>
      <point x="15" y="92"/>
      <point x="-4" y="69"/>
      <point x="-4" y="44" type="curve" smooth="yes"/>
      <point x="-4" y="15"/>
      <point x="23" y="-10"/>
    </contour>
  </outline>
</glyph>
<glyph name="en-cy" format="2">
  <advance width="595"/>
  <unicode hex="043D"/>
  <anchor x="564" y="0" name="bottomright"/>
  <outline>
    <contour>
      <point x="454" y="-11" type="curve" smooth="yes"/>
      <point x="534" y="-11"/>
      <point x="575" y="83"/>
      <point x="584" y="130" type="curve"/>
      <point x="556" y="136" type="line"/>
      <point x="536" y="65"/>
      <point x="505" y="40"/>
      <point x="483" y="40" type="curve" smooth="yes"/>
      <point x="462" y="40"/>
      <point x="456" y="60"/>
      <point x="456" y="84" type="curve" smooth="yes"/>
      <point x="456" y="146"/>
      <point x="495" y="398"/>
      <point x="495" y="474" type="curve" smooth="yes"/>
      <point x="495" y="485"/>
      <point x="495" y="491"/>
      <point x="494" y="500" type="curve"/>
      <point x="410" y="500" type="line"/>
      <point x="415" y="408"/>
      <point x="408" y="352"/>
      <point x="396" y="256" type="curve"/>
      <point x="203" y="256" type="line"/>
      <point x="207" y="291"/>
      <point x="211" y="327"/>
      <point x="215" y="362" type="curve" smooth="yes"/>
      <point x="224" y="438"/>
      <point x="221" y="511"/>
      <point x="146" y="511" type="curve" smooth="yes"/>
      <point x="66" y="511"/>
      <point x="23" y="417"/>
      <point x="13" y="370" type="curve"/>
      <point x="41" y="364" type="line"/>
      <point x="63" y="435"/>
      <point x="94" y="461"/>
      <point x="116" y="461" type="curve" smooth="yes"/>
      <point x="139" y="461"/>
      <point x="145" y="440"/>
      <point x="144" y="416" type="curve" smooth="yes"/>
      <point x="144" y="386"/>
      <point x="141" y="382"/>
      <point x="120" y="226" type="curve" smooth="yes"/>
      <point x="103" y="100"/>
      <point x="97" y="60"/>
      <point x="96" y="26" type="curve" smooth="yes"/>
      <point x="96" y="15"/>
      <point x="96" y="9"/>
      <point x="97" y="0" type="curve"/>
      <point x="181" y="0" type="line"/>
      <point x="178" y="19"/>
      <point x="177" y="38"/>
      <point x="180" y="63" type="curve" smooth="yes"/>
      <point x="186" y="114"/>
      <point x="192" y="165"/>
      <point x="198" y="216" type="curve"/>
      <point x="391" y="218" type="line"/>
      <point x="384" y="160"/>
      <point x="377" y="109"/>
      <point x="377" y="79" type="curve" smooth="yes"/>
      <point x="377" y="25"/>
      <point x="400" y="-11"/>
    </contour>
  </outline>
</glyph>
<glyph name="sha-cy" format="2">
  <advance width="876"/>
  <unicode hex="0448"/>
  <outline>
    <contour>
      <point x="213" y="-11" type="curve" smooth="yes"/>
      <point x="268" y="-11"/>
      <point x="334" y="27"/>
      <point x="400" y="209" type="curve"/>
      <point x="403" y="209" type="line"/>
      <point x="391" y="159"/>
      <point x="386" y="141"/>
      <point x="386" y="103" type="curve" smooth="yes"/>
      <point x="386" y="54"/>
      <point x="413" y="-11"/>
      <point x="493" y="-11" type="curve" smooth="yes"/>
      <point x="548" y="-11"/>
      <point x="613" y="30"/>
      <point x="676" y="212" type="curve"/>
      <point x="679" y="212" type="line"/>
      <point x="674" y="184"/>
      <point x="666" y="144"/>
      <point x="664" y="106" type="curve" smooth="yes"/>
      <point x="661" y="45"/>
      <point x="673" y="-11"/>
      <point x="738" y="-11" type="curve" smooth="yes"/>
      <point x="818" y="-11"/>
      <point x="859" y="83"/>
      <point x="868" y="130" type="curve"/>
      <point x="840" y="136" type="line"/>
      <point x="820" y="65"/>
      <point x="789" y="39"/>
      <point x="767" y="39" type="curve" smooth="yes"/>
      <point x="744" y="39"/>
      <point x="740" y="60"/>
      <point x="740" y="84" type="curve" smooth="yes"/>
      <point x="740" y="114"/>
      <point x="742" y="118"/>
      <point x="760" y="274" type="curve" smooth="yes"/>
      <point x="775" y="400"/>
      <point x="779" y="440"/>
      <point x="779" y="474" type="curve" smooth="yes"/>
      <point x="779" y="485"/>
      <point x="779" y="491"/>
      <point x="778" y="500" type="curve"/>
      <point x="694" y="500" type="line"/>
      <point x="695" y="483"/>
      <point x="696" y="467"/>
      <point x="696" y="447" type="curve" smooth="yes"/>
      <point x="696" y="278"/>
      <point x="605" y="36"/>
      <point x="513" y="36" type="curve" smooth="yes"/>
      <point x="474" y="36"/>
      <point x="466" y="70"/>
      <point x="465" y="93" type="curve" smooth="yes"/>
      <point x="463" y="177"/>
      <point x="501" y="373"/>
      <point x="501" y="474" type="curve" smooth="yes"/>
      <point x="501" y="485"/>
      <point x="501" y="491"/>
      <point x="500" y="500" type="curve"/>
      <point x="416" y="500" type="line"/>
      <point x="417" y="483"/>
      <point x="418" y="467"/>
      <point x="418" y="447" type="curve" smooth="yes"/>
      <point x="418" y="278"/>
      <point x="329" y="36"/>
      <point x="235" y="36" type="curve" smooth="yes"/>
      <point x="196" y="36"/>
      <point x="187" y="74"/>
      <point x="187" y="97" type="curve" smooth="yes"/>
      <point x="187" y="203"/>
      <point x="223" y="341"/>
      <point x="223" y="415" type="curve" smooth="yes"/>
      <point x="223" y="477"/>
      <point x="206" y="511"/>
      <point x="143" y="511" type="curve" smooth="yes"/>
      <point x="63" y="511"/>
      <point x="21" y="417"/>
      <point x="12" y="371" type="curve"/>
      <point x="40" y="364" type="line"/>
      <point x="60" y="436"/>
      <point x="92" y="461"/>
      <point x="114" y="461" type="curve" smooth="yes"/>
      <point x="138" y="461"/>
      <point x="141" y="439"/>
      <point x="141" y="415" type="curve" smooth="yes"/>
      <point x="141" y="357"/>
      <point x="108" y="229"/>
      <point x="108" y="119" type="curve" smooth="yes"/>
      <point x="108" y="49"/>
      <point x="133" y="-11"/>
    </contour>
  </outline>
</glyph>
<glyph name="shcha-cy" format="2">
  <advance width="914"/>
  <unicode hex="0449"/>
  <outline>
    <contour>
      <point x="783" y="-212" type="line"/>
      <point x="868" y="-139"/>
      <point x="888" y="-70"/>
      <point x="853" y="-13" type="curve" smooth="yes"/>
      <point x="836" y="13"/>
      <point x="834" y="41"/>
      <point x="846" y="67" type="curve" smooth="yes"/>
      <point x="874" y="129" type="line"/>
      <point x="841" y="136" type="line"/>
      <point x="818" y="59" type="line"/>
      <point x="795" y="7" type="line"/>
      <point x="807" y="1" type="line"/>
      <point x="792" y="-22"/>
      <point x="784" y="-50"/>
      <point x="795" y="-78" type="curve" smooth="yes"/>
      <point x="805" y="-100"/>
      <point x="809" y="-128"/>
      <point x="760" y="-189" type="curve"/>
    </contour>
    <component base="sha-cy"/>
  </outline>
</glyph>
<glyph name="yeru-cy" format="2">
  <advance width="716"/>
  <unicode hex="044B"/>
  <anchor x="372" y="512" name="top"/>
  <outline>
    <contour>
      <point x="575" y="-11" type="curve" smooth="yes"/>
      <point x="655" y="-11"/>
      <point x="696" y="83"/>
      <point x="705" y="130" type="curve"/>
      <point x="677" y="136" type="line"/>
      <point x="657" y="65"/>
      <point x="625" y="40"/>
      <point x="604" y="40" type="curve" smooth="yes"/>
      <point x="583" y="40"/>
      <point x="577" y="60"/>
      <point x="577" y="84" type="curve" smooth="yes"/>
      <point x="577" y="146"/>
      <point x="616" y="398"/>
      <point x="616" y="474" type="curve" smooth="yes"/>
      <point x="616" y="485"/>
      <point x="616" y="491"/>
      <point x="615" y="500" type="curve"/>
      <point x="531" y="500" type="line"/>
      <point x="532" y="480"/>
      <point x="533" y="462"/>
      <point x="533" y="442" type="curve" smooth="yes"/>
      <point x="533" y="323"/>
      <point x="498" y="147"/>
      <point x="498" y="79" type="curve" smooth="yes"/>
      <point x="498" y="25"/>
      <point x="521" y="-11"/>
    </contour>
    <component base="softsign-cy"/>
  </outline>
</glyph>
<glyph name="ia-cy" format="2">
  <advance width="561"/>
  <unicode hex="044F"/>
  <outline>
    <contour>
      <point x="415" y="-11" type="curve" smooth="yes"/>
      <point x="495" y="-11"/>
      <point x="533" y="61"/>
      <point x="550" y="130" type="curve"/>
      <point x="522" y="136" type="line"/>
      <point x="499" y="65"/>
      <point x="467" y="40"/>
      <point x="445" y="40" type="curve" smooth="yes"/>
      <point x="422" y="40"/>
      <point x="417" y="56"/>
      <point x="420" y="84" type="curve" smooth="yes"/>
      <point x="437" y="222"/>
      <point x="455" y="359"/>
      <point x="472" y="497" type="curve"/>
      <point x="421" y="505"/>
      <point x="388" y="508"/>
      <point x="336" y="508" type="curve" smooth="yes"/>
      <point x="235" y="508"/>
      <point x="134" y="460"/>
      <point x="130" y="348" type="curve" smooth="yes"/>
      <point x="126" y="262"/>
      <point x="185" y="213"/>
      <point x="256" y="203" type="curve"/>
      <point x="256" y="191" type="line"/>
      <point x="292" y="191"/>
      <point x="330" y="194"/>
      <point x="372" y="201" type="curve"/>
      <point x="374" y="239" type="line"/>
      <point x="342" y="231"/>
      <point x="320" y="228"/>
      <point x="298" y="228" type="curve" smooth="yes"/>
      <point x="237" y="228"/>
      <point x="210" y="276"/>
      <point x="211" y="337" type="curve" smooth="yes"/>
      <point x="213" y="422"/>
      <point x="262" y="465"/>
      <point x="329" y="465" type="curve" smooth="yes"/>
      <point x="349" y="465"/>
      <point x="371" y="461"/>
      <point x="394" y="453" type="curve"/>
      <point x="390" y="409"/>
      <point x="387" y="379"/>
      <point x="348" y="139" type="curve" smooth="yes"/>
      <point x="333" y="44"/>
      <point x="340" y="-11"/>
    </contour>
    <contour>
      <point x="100" y="-11" type="curve" smooth="yes"/>
      <point x="151" y="-11"/>
      <point x="177" y="7"/>
      <point x="208" y="99" type="curve" smooth="yes"/>
      <point x="229" y="168"/>
      <point x="244" y="191"/>
      <point x="274" y="191" type="curve"/>
      <point x="278" y="208" type="line"/>
      <point x="188" y="222"/>
      <point x="164" y="188"/>
      <point x="142" y="132" type="curve" smooth="yes"/>
      <point x="112" y="60"/>
      <point x="104" y="49"/>
      <point x="85" y="46" type="curve" smooth="yes"/>
      <point x="65" y="42"/>
      <point x="39" y="58"/>
      <point x="32" y="108" type="curve"/>
      <point x="4" y="102" type="line"/>
      <point x="10" y="46"/>
      <point x="38" y="-11"/>
    </contour>
  </outline>
</glyph>
<glyph name="dje-cy" format="2">
  <advance width="546"/>
  <unicode hex="0452"/>
  <outline>
    <contour>
      <point x="268" y="-229" type="curve" smooth="yes"/>
      <point x="412" y="-229"/>
      <point x="446" y="-128"/>
      <point x="459" y="42" type="curve" smooth="yes"/>
      <point x="465" y="118"/>
      <point x="482" y="329"/>
      <point x="482" y="381" type="curve" smooth="yes"/>
      <point x="482" y="461"/>
      <point x="448" y="511"/>
      <point x="368" y="511" type="curve" smooth="yes"/>
      <point x="301" y="511"/>
      <point x="243" y="470"/>
      <point x="175" y="288" type="curve"/>
      <point x="172" y="288" type="line"/>
      <point x="177" y="358"/>
      <point x="193" y="517"/>
      <point x="202" y="585" type="curve" smooth="yes"/>
      <point x="208" y="630"/>
      <point x="221" y="705"/>
      <point x="229" y="755" type="curve"/>
      <point x="200" y="755" type="line"/>
      <point x="184" y="741"/>
      <point x="161" y="728"/>
      <point x="73" y="728" type="curve"/>
      <point x="69" y="688" type="line"/>
      <point x="92" y="689"/>
      <point x="116" y="691"/>
      <point x="139" y="692" type="curve"/>
      <point x="136" y="675"/>
      <point x="135" y="673"/>
      <point x="130" y="639" type="curve" smooth="yes"/>
      <point x="107" y="484"/>
      <point x="80" y="117"/>
      <point x="80" y="26" type="curve" smooth="yes"/>
      <point x="80" y="15"/>
      <point x="80" y="9"/>
      <point x="81" y="0" type="curve"/>
      <point x="163" y="0" type="line"/>
      <point x="162" y="17"/>
      <point x="161" y="33"/>
      <point x="161" y="53" type="curve" smooth="yes"/>
      <point x="161" y="238"/>
      <point x="260" y="464"/>
      <point x="349" y="464" type="curve" smooth="yes"/>
      <point x="389" y="464"/>
      <point x="402" y="433"/>
      <point x="402" y="396" type="curve" smooth="yes"/>
      <point x="402" y="283"/>
      <point x="385" y="108"/>
      <point x="379" y="40" type="curve" smooth="yes"/>
      <point x="364" y="-125"/>
      <point x="340" y="-192"/>
      <point x="252" y="-192" type="curve" smooth="yes"/>
      <point x="236" y="-192"/>
      <point x="203" y="-187"/>
      <point x="184" y="-182" type="curve"/>
      <point x="174" y="-213" type="line"/>
      <point x="210" y="-224"/>
      <point x="239" y="-229"/>
    </contour>
    <contour>
      <point x="41" y="564" type="line"/>
      <point x="389" y="568" type="line"/>
      <point x="392" y="607" type="line"/>
      <point x="44" y="607" type="line"/>
    </contour>
  </outline>
</glyph>
<glyph name="lje-cy" format="2">
  <advance width="749"/>
  <unicode hex="0459"/>
  <outline>
    <contour>
      <point x="61" y="-10" type="curve" smooth="yes"/>
      <point x="201" y="-10"/>
      <point x="278" y="190"/>
      <point x="325" y="429" type="curve" smooth="yes"/>
      <point x="329" y="447"/>
      <point x="338" y="461"/>
      <point x="357" y="461" type="curve"/>
      <point x="399" y="462" type="line"/>
      <point x="399" y="387"/>
      <point x="386" y="259"/>
      <point x="367" y="146" type="curve" smooth="yes"/>
      <point x="354" y="56"/>
      <point x="396" y="-11"/>
      <point x="498" y="-11" type="curve" smooth="yes"/>
      <point x="624" y="-11"/>
      <point x="712" y="75"/>
      <point x="714" y="184" type="curve" smooth="yes"/>
      <point x="716" y="273"/>
      <point x="654" y="324"/>
      <point x="569" y="324" type="curve" smooth="yes"/>
      <point x="534" y="324"/>
      <point x="501" y="312"/>
      <point x="465" y="292" type="curve"/>
      <point x="474" y="366"/>
      <point x="482" y="439"/>
      <point x="482" y="474" type="curve" smooth="yes"/>
      <point x="482" y="485"/>
      <point x="482" y="491"/>
      <point x="481" y="500" type="curve"/>
      <point x="189" y="500" type="line"/>
      <point x="186" y="460" type="line"/>
      <point x="278" y="461" type="line"/>
      <point x="250" y="264"/>
      <point x="171" y="28"/>
      <point x="83" y="38" type="curve"/>
      <point x="84" y="42"/>
      <point x="85" y="46"/>
      <point x="85" y="53" type="curve" smooth="yes"/>
      <point x="85" y="76"/>
      <point x="63" y="92"/>
      <point x="42" y="92" type="curve" smooth="yes"/>
      <point x="15" y="92"/>
      <point x="-4" y="69"/>
      <point x="-4" y="44" type="curve" smooth="yes"/>
      <point x="-4" y="15"/>
      <point x="23" y="-10"/>
    </contour>
    <contour>
      <point x="525" y="27" type="curve" smooth="yes"/>
      <point x="473" y="27"/>
      <point x="431" y="65"/>
      <point x="442" y="137" type="curve"/>
      <point x="460" y="247" type="line"/>
      <point x="493" y="273"/>
      <point x="525" y="287"/>
      <point x="558" y="287" type="curve" smooth="yes"/>
      <point x="619" y="287"/>
      <point x="633" y="237"/>
      <point x="632" y="164" type="curve" smooth="yes"/>
      <point x="630" y="76"/>
      <point x="590" y="27"/>
    </contour>
  </outline>
</glyph>
<glyph name="tshe-cy" format="2">
  <advance width="576"/>
  <unicode hex="045B"/>
  <outline>
    <contour>
      <point x="436" y="-11" type="curve" smooth="yes"/>
      <point x="516" y="-11"/>
      <point x="554" y="83"/>
      <point x="563" y="129" type="curve"/>
      <point x="538" y="136" type="line"/>
      <point x="518" y="64"/>
      <point x="487" y="39"/>
      <point x="465" y="39" type="curve" smooth="yes"/>
      <point x="441" y="39"/>
      <point x="438" y="61"/>
      <point x="438" y="85" type="curve" smooth="yes"/>
      <point x="438" y="143"/>
      <point x="466" y="271"/>
      <point x="466" y="381" type="curve" smooth="yes"/>
      <point x="466" y="451"/>
      <point x="436" y="511"/>
      <point x="356" y="511" type="curve" smooth="yes"/>
      <point x="291" y="511"/>
      <point x="227" y="470"/>
      <point x="159" y="288" type="curve"/>
      <point x="156" y="288" type="line"/>
      <point x="161" y="358"/>
      <point x="177" y="517"/>
      <point x="186" y="585" type="curve" smooth="yes"/>
      <point x="192" y="630"/>
      <point x="205" y="705"/>
      <point x="213" y="755" type="curve"/>
      <point x="184" y="755" type="line"/>
      <point x="168" y="741"/>
      <point x="145" y="728"/>
      <point x="57" y="728" type="curve"/>
      <point x="53" y="688" type="line"/>
      <point x="76" y="689"/>
      <point x="100" y="691"/>
      <point x="123" y="692" type="curve"/>
      <point x="120" y="675"/>
      <point x="119" y="673"/>
      <point x="114" y="639" type="curve" smooth="yes"/>
      <point x="91" y="484"/>
      <point x="64" y="117"/>
      <point x="64" y="26" type="curve" smooth="yes"/>
      <point x="64" y="15"/>
      <point x="64" y="9"/>
      <point x="65" y="0" type="curve"/>
      <point x="147" y="0" type="line"/>
      <point x="146" y="17"/>
      <point x="145" y="33"/>
      <point x="145" y="53" type="curve" smooth="yes"/>
      <point x="145" y="238"/>
      <point x="247" y="464"/>
      <point x="336" y="464" type="curve" smooth="yes"/>
      <point x="375" y="464"/>
      <point x="384" y="426"/>
      <point x="384" y="403" type="curve" smooth="yes"/>
      <point x="384" y="298"/>
      <point x="355" y="160"/>
      <point x="355" y="85" type="curve" smooth="yes"/>
      <point x="355" y="23"/>
      <point x="373" y="-11"/>
    </contour>
    <contour>
      <point x="42" y="582" type="line"/>
      <point x="404" y="586" type="line"/>
      <point x="407" y="622" type="line"/>
      <point x="45" y="622" type="line"/>
    </contour>
  </outline>
</glyph>
<glyph name="dzhe-cy" format="2">
  <advance width="615"/>
  <unicode hex="045F"/>
  <outline>
    <contour>
      <point x="245" y="-227" type="line"/>
      <point x="300" y="-180"/>
      <point x="332" y="-136"/>
      <point x="332" y="-94" type="curve" smooth="yes"/>
      <point x="332" y="-63"/>
      <point x="319" y="-44"/>
      <point x="336" y="-25" type="curve" smooth="yes"/>
      <point x="355" y="-5" type="line"/>
      <point x="336" y="14" type="line"/>
      <point x="282" y="-36" type="line"/>
      <point x="234" y="-74"/>
      <point x="286" y="-122"/>
      <point x="223" y="-204" type="curve"/>
    </contour>
    <component base="u"/>
  </outline>
</glyph>
<glyph name="Yat-cy" format="2">
  <advance width="712"/>
  <unicode hex="0462"/>
  <outline>
    <contour>
      <point x="132" y="0" type="line"/>
      <point x="421" y="0" type="line" smooth="yes"/>
      <point x="556" y="0"/>
      <point x="664" y="68"/>
      <point x="664" y="205" type="curve" smooth="yes"/>
      <point x="664" y="321"/>
      <point x="588" y="390"/>
      <point x="389" y="385" type="curve" smooth="yes"/>
      <point x="305" y="383" type="line"/>
      <point x="316" y="593" type="line" smooth="yes"/>
      <point x="320" y="664"/>
      <point x="320" y="703"/>
      <point x="390" y="706" type="curve"/>
      <point x="392" y="739" type="line"/>
      <point x="171" y="739" type="line"/>
      <point x="169" y="695" type="line"/>
      <point x="193" y="696"/>
      <point x="217" y="698"/>
      <point x="241" y="699" type="curve"/>
      <point x="238" y="679"/>
      <point x="235" y="654"/>
      <point x="234" y="627" type="curve" smooth="yes"/>
      <point x="210" y="161" type="line" smooth="yes"/>
      <point x="206" y="86"/>
      <point x="209" y="35"/>
      <point x="134" y="33" type="curve"/>
    </contour>
    <contour>
      <point x="284" y="41" type="curve"/>
      <point x="287" y="58"/>
      <point x="289" y="83"/>
      <point x="291" y="119" type="curve" smooth="yes"/>
      <point x="303" y="344" type="line"/>
      <point x="335" y="346"/>
      <point x="366" y="347"/>
      <point x="406" y="347" type="curve" smooth="yes"/>
      <point x="497" y="347"/>
      <point x="576" y="308"/>
      <point x="570" y="195" type="curve" smooth="yes"/>
      <point x="565" y="90"/>
      <point x="493" y="39"/>
      <point x="390" y="39" type="curve" smooth="yes"/>
      <point x="377" y="39"/>
      <point x="315" y="38"/>
    </contour>
    <contour>
      <point x="21" y="451" type="line"/>
      <point x="58" y="451" type="line"/>
      <point x="64" y="539"/>
      <point x="98" y="573"/>
      <point x="182" y="574" type="curve" smooth="yes"/>
      <point x="398" y="576" type="line" smooth="yes"/>
      <point x="501" y="577"/>
      <point x="523" y="549"/>
      <point x="519" y="451" type="curve"/>
      <point x="557" y="451" type="line"/>
      <point x="562" y="612" type="line"/>
      <point x="38" y="612" type="line"/>
    </contour>
  </outline>
</glyph>
<glyph name="yat-cy" format="2">
  <advance width="713"/>
  <unicode hex="0463"/>
  <outline>
    <contour>
      <point x="472" y="-11" type="curve" smooth="yes"/>
      <point x="588" y="-11"/>
      <point x="676" y="75"/>
      <point x="678" y="184" type="curve" smooth="yes"/>
      <point x="679" y="273"/>
      <point x="628" y="324"/>
      <point x="543" y="324" type="curve" smooth="yes"/>
      <point x="522" y="324"/>
      <point x="475" y="311"/>
      <point x="443" y="283" type="curve"/>
      <point x="442" y="237" type="line"/>
      <point x="465" y="270"/>
      <point x="505" y="287"/>
      <point x="531" y="287" type="curve" smooth="yes"/>
      <point x="582" y="287"/>
      <point x="596" y="234"/>
      <point x="595" y="184" type="curve" smooth="yes"/>
      <point x="593" y="87"/>
      <point x="546" y="27"/>
      <point x="492" y="27" type="curve" smooth="yes"/>
      <point x="454" y="27"/>
      <point x="436" y="65"/>
      <point x="436" y="137" type="curve" smooth="yes"/>
      <point x="436" y="175"/>
      <point x="471" y="349"/>
      <point x="471" y="391" type="curve" smooth="yes"/>
      <point x="471" y="461"/>
      <point x="452" y="511"/>
      <point x="382" y="511" type="curve" smooth="yes"/>
      <point x="319" y="511"/>
      <point x="273" y="465"/>
      <point x="205" y="283" type="curve"/>
      <point x="202" y="283" type="line"/>
      <point x="208" y="315"/>
      <point x="218" y="364"/>
      <point x="218" y="408" type="curve" smooth="yes"/>
      <point x="218" y="463"/>
      <point x="202" y="511"/>
      <point x="143" y="511" type="curve" smooth="yes"/>
      <point x="63" y="511"/>
      <point x="22" y="417"/>
      <point x="13" y="370" type="curve"/>
      <point x="41" y="364" type="line"/>
      <point x="61" y="435"/>
      <point x="92" y="461"/>
      <point x="114" y="461" type="curve" smooth="yes"/>
      <point x="137" y="461"/>
      <point x="141" y="440"/>
      <point x="141" y="416" type="curve" smooth="yes"/>
      <point x="141" y="386"/>
      <point x="140" y="382"/>
      <point x="122" y="226" type="curve" smooth="yes"/>
      <point x="107" y="100"/>
      <point x="102" y="60"/>
      <point x="102" y="26" type="curve" smooth="yes"/>
      <point x="102" y="15"/>
      <point x="102" y="9"/>
      <point x="103" y="0" type="curve"/>
      <point x="187" y="0" type="line"/>
      <point x="186" y="17"/>
      <point x="185" y="33"/>
      <point x="185" y="53" type="curve" smooth="yes"/>
      <point x="185" y="222"/>
      <point x="298" y="464"/>
      <point x="362" y="464" type="curve" smooth="yes"/>
      <point x="391" y="464"/>
      <point x="389" y="426"/>
      <point x="389" y="403" type="curve" smooth="yes"/>
      <point x="389" y="345"/>
      <point x="373" y="242"/>
      <point x="360" y="146" type="curve" smooth="yes"/>
      <point x="348" y="56"/>
      <point x="380" y="-11"/>
    </contour>
  </outline>
</glyph>
<glyph name="yusbig-cy" format="2">
  <advance width="711"/>
  <unicode hex="046B"/>
  <outline>
    <contour>
      <point x="-28" y="0" type="line"/>
      <point x="53" y="0" type="line" smooth="yes"/>
      <point x="85" y="0"/>
      <point x="119" y="40"/>
      <point x="164" y="95" type="curve" smooth="yes"/>
      <point x="199" y="139"/>
      <point x="242" y="200"/>
      <point x="282" y="245" type="curve"/>
      <point x="318" y="243" type="line"/>
      <point x="313" y="152" type="line" smooth="yes"/>
      <point x="308" y="80"/>
      <point x="308" y="30"/>
      <point x="247" y="30" type="curve"/>
      <point x="245" y="0" type="line"/>
      <point x="440" y="0" type="line"/>
      <point x="442" y="41" type="line"/>
      <point x="379" y="38" type="line"/>
      <point x="384" y="61"/>
      <point x="385" y="79"/>
      <point x="387" y="106" type="curve" smooth="yes"/>
      <point x="395" y="243" type="line"/>
      <point x="431" y="245" type="line"/>
      <point x="467" y="200"/>
      <point x="504" y="139"/>
      <point x="534" y="95" type="curve" smooth="yes"/>
      <point x="572" y="40"/>
      <point x="602" y="0"/>
      <point x="634" y="0" type="curve" smooth="yes"/>
      <point x="717" y="0" type="line"/>
      <point x="719" y="30" type="line"/>
      <point x="684" y="30"/>
      <point x="647" y="65"/>
      <point x="607" y="126" type="curve" smooth="yes"/>
      <point x="581" y="166"/>
      <point x="549" y="212"/>
      <point x="518" y="248" type="curve" smooth="yes"/>
      <point x="497" y="272"/>
      <point x="481" y="285"/>
      <point x="446" y="282" type="curve"/>
      <point x="430" y="280" type="line"/>
      <point x="492" y="353" type="line" smooth="yes"/>
      <point x="555" y="426"/>
      <point x="580" y="453"/>
      <point x="628" y="456" type="curve"/>
      <point x="630" y="500" type="line"/>
      <point x="118" y="500" type="line"/>
      <point x="116" y="445" type="line"/>
      <point x="169" y="446" type="line"/>
      <point x="180" y="417"/>
      <point x="193" y="397"/>
      <point x="223" y="359" type="curve" smooth="yes"/>
      <point x="283" y="283" type="line"/>
      <point x="283" y="281" type="line"/>
      <point x="269" y="282"/>
      <point x="256" y="282"/>
      <point x="244" y="278" type="curve" smooth="yes"/>
      <point x="227" y="274"/>
      <point x="212" y="265"/>
      <point x="195" y="248" type="curve" smooth="yes"/>
      <point x="159" y="212"/>
      <point x="124" y="166"/>
      <point x="93" y="126" type="curve" smooth="yes"/>
      <point x="46" y="65"/>
      <point x="9" y="30"/>
      <point x="-26" y="30" type="curve"/>
    </contour>
    <contour>
      <point x="372" y="265" type="line"/>
      <point x="362" y="281"/>
      <point x="348" y="304"/>
      <point x="295" y="373" type="curve" smooth="yes"/>
      <point x="256" y="425"/>
      <point x="266" y="448"/>
      <point x="301" y="449" type="curve" smooth="yes"/>
      <point x="535" y="454" type="line"/>
      <point x="518" y="440"/>
      <point x="512" y="433"/>
      <point x="484" y="400" type="curve" smooth="yes"/>
    </contour>
  </outline>
</glyph>
<glyph name="Semisoftsign-cy" format="2">
  <advance width="606"/>
  <unicode hex="048C"/>
  <outline>
    <contour>
      <point x="35" y="519" type="line"/>
      <point x="411" y="523" type="line"/>
      <point x="413" y="566" type="line"/>
      <point x="37" y="566" type="line"/>
    </contour>
    <component base="Softsign-cy" xOffset="8"/>
  </outline>
</glyph>
<glyph name="semisoftsign-cy" format="2">
  <advance width="494"/>
  <unicode hex="048D"/>
  <outline>
    <contour>
      <point x="233" y="-11" type="curve" smooth="yes"/>
      <point x="359" y="-11"/>
      <point x="448" y="75"/>
      <point x="450" y="184" type="curve" smooth="yes"/>
      <point x="451" y="273"/>
      <point x="390" y="324"/>
      <point x="305" y="324" type="curve" smooth="yes"/>
      <point x="264" y="324"/>
      <point x="223" y="310"/>
      <point x="185" y="283" type="curve"/>
      <point x="184" y="237" type="line"/>
      <point x="221" y="270"/>
      <point x="257" y="287"/>
      <point x="293" y="287" type="curve" smooth="yes"/>
      <point x="354" y="287"/>
      <point x="369" y="237"/>
      <point x="367" y="164" type="curve" smooth="yes"/>
      <point x="366" y="76"/>
      <point x="325" y="27"/>
      <point x="261" y="27" type="curve" smooth="yes"/>
      <point x="208" y="27"/>
      <point x="178" y="56"/>
      <point x="178" y="127" type="curve" smooth="yes"/>
      <point x="178" y="173"/>
      <point x="206" y="463"/>
      <point x="223" y="585" type="curve" smooth="yes"/>
      <point x="228" y="630"/>
      <point x="242" y="705"/>
      <point x="249" y="755" type="curve"/>
      <point x="221" y="755" type="line"/>
      <point x="204" y="741"/>
      <point x="181" y="728"/>
      <point x="94" y="728" type="curve"/>
      <point x="89" y="688" type="line"/>
      <point x="160" y="692" type="line"/>
      <point x="158" y="678"/>
      <point x="157" y="674"/>
      <point x="151" y="638" type="curve" smooth="yes"/>
      <point x="140" y="550"/>
      <point x="125" y="430"/>
      <point x="115" y="321" type="curve" smooth="yes"/>
      <point x="109" y="255"/>
      <point x="99" y="165"/>
      <point x="99" y="114" type="curve" smooth="yes"/>
      <point x="99" y="40"/>
      <point x="143" y="-11"/>
    </contour>
    <contour>
      <point x="31" y="462" type="line"/>
      <point x="396" y="466" type="line"/>
      <point x="398" y="500" type="line"/>
      <point x="33" y="500" type="line"/>
    </contour>
  </outline>
</glyph>
<glyph name="gheupturn-cy" format="2">
  <advance width="435"/>
  <unicode hex="0491"/>
  <outline>
    <contour>
      <point x="28" y="0" type="line"/>
      <point x="232" y="0" type="line"/>
      <point x="234" y="41" type="line"/>
      <point x="171" y="38" type="line"/>
      <point x="176" y="61"/>
      <point x="177" y="79"/>
      <point x="179" y="106" type="curve" smooth="yes"/>
      <point x="192" y="348" type="line" smooth="yes"/>
      <point x="196" y="420"/>
      <point x="201" y="460"/>
      <point x="259" y="460" type="curve" smooth="yes"/>
      <point x="429" y="460" type="line"/>
      <point x="441" y="611" type="line"/>
      <point x="403" y="611" type="line"/>
      <point x="397" y="527"/>
      <point x="369" y="500"/>
      <point x="261" y="500" type="curve" smooth="yes"/>
      <point x="56" y="500" type="line"/>
      <point x="53" y="459" type="line"/>
      <point x="74" y="460"/>
      <point x="95" y="461"/>
      <point x="116" y="462" type="curve"/>
      <point x="111" y="439"/>
      <point x="110" y="421"/>
      <point x="109" y="394" type="curve" smooth="yes"/>
      <point x="97" y="152" type="line"/>
      <point x="91" y="80"/>
      <point x="90" y="30"/>
      <point x="29" y="30" type="curve"/>
    </contour>
  </outline>
</glyph>
<glyph name="Ghemiddlehook-cy" format="2">
  <advance width="625"/>
  <unicode hex="0494"/>
  <outline>
    <contour>
      <point x="327" y="-223" type="curve" smooth="yes"/>
      <point x="517" y="-218"/>
      <point x="573" y="31"/>
      <point x="573" y="134" type="curve" smooth="yes"/>
      <point x="573" y="321"/>
      <point x="487" y="407"/>
      <point x="347" y="407" type="curve" smooth="yes"/>
      <point x="300" y="407"/>
      <point x="224" y="392"/>
      <point x="184" y="369" type="curve"/>
      <point x="181" y="324" type="line"/>
      <point x="212" y="345"/>
      <point x="270" y="360"/>
      <point x="320" y="360" type="curve" smooth="yes"/>
      <point x="420" y="360"/>
      <point x="478" y="301"/>
      <point x="478" y="127" type="curve" smooth="yes"/>
      <point x="478" y="46"/>
      <point x="456" y="-189"/>
      <point x="314" y="-189" type="curve" smooth="yes"/>
      <point x="300" y="-189"/>
      <point x="273" y="-186"/>
      <point x="258" y="-183" type="curve"/>
      <point x="251" y="-213" type="line"/>
      <point x="277" y="-221"/>
      <point x="303" y="-224"/>
    </contour>
    <component base="Ge-cy"/>
  </outline>
</glyph>
<glyph name="zedescender-cy" format="2">
  <advance width="438"/>
  <unicode hex="0499"/>
  <outline>
    <contour>
      <point x="180" y="-235" type="line"/>
      <point x="261" y="-162"/>
      <point x="278" y="-93"/>
      <point x="240" y="-36" type="curve" smooth="yes"/>
      <point x="231" y="-24"/>
      <point x="225" y="-6"/>
      <point x="225" y="16" type="curve"/>
      <point x="191" y="10" type="line"/>
      <point x="175" y="-53"/>
      <point x="176" y="-80"/>
      <point x="185" y="-101" type="curve" smooth="yes"/>
      <point x="196" y="-123"/>
      <point x="202" y="-151"/>
      <point x="156" y="-212" type="curve"/>
    </contour>
    <component base="ze-cy"/>
  </outline>
</glyph>
<glyph name="kadescender-cy" format="2">
  <advance width="609"/>
  <unicode hex="049B"/>
  <outline>
    <contour>
      <point x="477" y="-212" type="line"/>
      <point x="562" y="-139"/>
      <point x="582" y="-70"/>
      <point x="547" y="-13" type="curve" smooth="yes"/>
      <point x="530" y="13"/>
      <point x="533" y="41"/>
      <point x="542" y="67" type="curve"/>
      <point x="549" y="87"/>
      <point x="556" y="108"/>
      <point x="563" y="128" type="curve"/>
      <point x="536" y="136" type="line"/>
      <point x="503" y="63"/>
      <point x="498" y="44"/>
      <point x="477" y="44" type="curve" smooth="yes"/>
      <point x="448" y="44"/>
      <point x="439" y="75"/>
      <point x="432" y="145" type="curve" smooth="yes"/>
      <point x="425" y="210"/>
      <point x="394" y="261"/>
      <point x="312" y="263" type="curve"/>
      <point x="343" y="279"/>
      <point x="369" y="316"/>
      <point x="386" y="363" type="curve" smooth="yes"/>
      <point x="405" y="414"/>
      <point x="417" y="435"/>
      <point x="436" y="447" type="curve"/>
      <point x="439" y="420"/>
      <point x="458" y="405"/>
      <point x="491" y="405" type="curve" smooth="yes"/>
      <point x="521" y="405"/>
      <point x="538" y="429"/>
      <point x="538" y="456" type="curve" smooth="yes"/>
      <point x="538" y="489"/>
      <point x="517" y="511"/>
      <point x="482" y="511" type="curve" smooth="yes"/>
      <point x="421" y="511"/>
      <point x="386" y="475"/>
      <point x="351" y="380" type="curve" smooth="yes"/>
      <point x="321" y="300"/>
      <point x="292" y="272"/>
      <point x="233" y="272" type="curve" smooth="yes"/>
      <point x="201" y="272" type="line"/>
      <point x="204" y="295"/>
      <point x="207" y="319"/>
      <point x="211" y="346" type="curve" smooth="yes"/>
      <point x="227" y="450"/>
      <point x="220" y="511"/>
      <point x="146" y="511" type="curve" smooth="yes"/>
      <point x="66" y="511"/>
      <point x="23" y="417"/>
      <point x="13" y="370" type="curve"/>
      <point x="41" y="364" type="line"/>
      <point x="62" y="435"/>
      <point x="94" y="461"/>
      <point x="116" y="461" type="curve" smooth="yes"/>
      <point x="144" y="461"/>
      <point x="143" y="430"/>
      <point x="142" y="403" type="curve" smooth="yes"/>
      <point x="141" y="382"/>
      <point x="136" y="361"/>
      <point x="120" y="231" type="curve" smooth="yes"/>
      <point x="104" y="105"/>
      <point x="101" y="60"/>
      <point x="101" y="26" type="curve"/>
      <point x="100" y="15"/>
      <point x="100" y="9"/>
      <point x="101" y="0" type="curve"/>
      <point x="184" y="0" type="line"/>
      <point x="183" y="20"/>
      <point x="182" y="39"/>
      <point x="182" y="55" type="curve"/>
      <point x="181" y="88"/>
      <point x="185" y="148"/>
      <point x="197" y="243" type="curve"/>
      <point x="280" y="244" type="line" smooth="yes"/>
      <point x="328" y="244"/>
      <point x="348" y="214"/>
      <point x="356" y="120" type="curve" smooth="yes"/>
      <point x="365" y="15"/>
      <point x="392" y="-11"/>
      <point x="438" y="-11" type="curve" smooth="yes"/>
      <point x="463" y="-11"/>
      <point x="479" y="-6"/>
      <point x="492" y="6" type="curve"/>
      <point x="501" y="1" type="line"/>
      <point x="487" y="-22"/>
      <point x="478" y="-50"/>
      <point x="490" y="-78" type="curve" smooth="yes"/>
      <point x="499" y="-100"/>
      <point x="503" y="-128"/>
      <point x="454" y="-189" type="curve"/>
    </contour>
  </outline>
</glyph>
<glyph name="Kaverticalstroke-cy" format="2">
  <advance width="697"/>
  <unicode hex="049C"/>
  <outline>
    <contour>
      <point x="41" y="0" type="line"/>
      <point x="262" y="0" type="line"/>
      <point x="264" y="44" type="line"/>
      <point x="240" y="43"/>
      <point x="216" y="41"/>
      <point x="192" y="40" type="curve"/>
      <point x="195" y="57"/>
      <point x="197" y="83"/>
      <point x="199" y="119" type="curve" smooth="yes"/>
      <point x="211" y="340" type="line"/>
      <point x="294" y="341" type="line"/>
      <point x="317" y="326"/>
      <point x="343" y="293"/>
      <point x="365" y="260" type="curve" smooth="yes"/>
      <point x="476" y="98" type="line"/>
      <point x="513" y="47"/>
      <point x="552" y="0"/>
      <point x="572" y="0" type="curve" smooth="yes"/>
      <point x="690" y="0" type="line"/>
      <point x="692" y="33" type="line"/>
      <point x="649" y="33"/>
      <point x="621" y="41"/>
      <point x="551" y="142" type="curve"/>
      <point x="446" y="291" type="line" smooth="yes"/>
      <point x="424" y="322"/>
      <point x="405" y="353"/>
      <point x="368" y="376" type="curve"/>
      <point x="474" y="532" type="line" smooth="yes"/>
      <point x="548" y="641"/>
      <point x="599" y="660"/>
      <point x="683" y="667" type="curve"/>
      <point x="685" y="700" type="line"/>
      <point x="470" y="700" type="line"/>
      <point x="468" y="659" type="line"/>
      <point x="489" y="660"/>
      <point x="510" y="660"/>
      <point x="531" y="661" type="curve"/>
      <point x="499" y="638"/>
      <point x="472" y="604"/>
      <point x="454" y="577" type="curve" smooth="yes"/>
      <point x="321" y="380" type="line"/>
      <point x="213" y="380" type="line"/>
      <point x="222" y="554" type="line" smooth="yes"/>
      <point x="226" y="625"/>
      <point x="232" y="664"/>
      <point x="297" y="667" type="curve"/>
      <point x="299" y="700" type="line"/>
      <point x="78" y="700" type="line"/>
      <point x="76" y="656" type="line"/>
      <point x="100" y="657"/>
      <point x="124" y="659"/>
      <point x="148" y="660" type="curve"/>
      <point x="145" y="640"/>
      <point x="142" y="615"/>
      <point x="141" y="588" type="curve" smooth="yes"/>
      <point x="118" y="156" type="line"/>
      <point x="115" y="85"/>
      <point x="118" y="36"/>
      <point x="43" y="33" type="curve"/>
    </contour>
    <component base="verticalbar-cy.case" xOffset="154" yOffset="46"/>
  </outline>
</glyph>
<glyph name="Kastroke-cy" format="2">
  <advance width="680"/>
  <unicode hex="049E"/>
  <outline>
    <contour>
      <point x="47" y="563" type="line"/>
      <point x="353" y="567" type="line"/>
      <point x="355" y="601" type="line"/>
      <point x="49" y="601" type="line"/>
    </contour>
    <component base="K" xOffset="13"/>
  </outline>
</glyph>
<glyph name="endescender-cy" format="2">
  <advance width="620"/>
  <unicode hex="04A3"/>
  <outline>
    <contour>
      <point x="488" y="-212" type="line"/>
      <point x="573" y="-139"/>
      <point x="593" y="-70"/>
      <point x="558" y="-13" type="curve" smooth="yes"/>
      <point x="542" y="12"/>
      <point x="544" y="39"/>
      <point x="552" y="64" type="curve"/>
      <point x="562" y="87"/>
      <point x="569" y="111"/>
      <point x="575" y="128" type="curve"/>
      <point x="547" y="136" type="line"/>
      <point x="512" y="61"/>
      <point x="506" y="40"/>
      <point x="483" y="40" type="curve" smooth="yes"/>
      <point x="462" y="40"/>
      <point x="456" y="60"/>
      <point x="456" y="84" type="curve" smooth="yes"/>
      <point x="456" y="146"/>
      <point x="495" y="398"/>
      <point x="495" y="474" type="curve" smooth="yes"/>
      <point x="495" y="485"/>
      <point x="495" y="491"/>
      <point x="494" y="500" type="curve"/>
      <point x="410" y="500" type="line"/>
      <point x="415" y="408"/>
      <point x="408" y="352"/>
      <point x="396" y="256" type="curve"/>
      <point x="203" y="256" type="line"/>
      <point x="207" y="291"/>
      <point x="211" y="327"/>
      <point x="215" y="362" type="curve" smooth="yes"/>
      <point x="224" y="438"/>
      <point x="221" y="511"/>
      <point x="146" y="511" type="curve" smooth="yes"/>
      <point x="66" y="511"/>
      <point x="23" y="417"/>
      <point x="13" y="370" type="curve"/>
      <point x="41" y="364" type="line"/>
      <point x="63" y="435"/>
      <point x="94" y="461"/>
      <point x="116" y="461" type="curve" smooth="yes"/>
      <point x="139" y="461"/>
      <point x="143" y="440"/>
      <point x="142" y="416" type="curve"/>
      <point x="142" y="386"/>
      <point x="141" y="382"/>
      <point x="120" y="226" type="curve" smooth="yes"/>
      <point x="103" y="100"/>
      <point x="97" y="60"/>
      <point x="96" y="26" type="curve" smooth="yes"/>
      <point x="96" y="15"/>
      <point x="96" y="9"/>
      <point x="97" y="0" type="curve"/>
      <point x="181" y="0" type="line"/>
      <point x="178" y="19"/>
      <point x="177" y="38"/>
      <point x="180" y="63" type="curve" smooth="yes"/>
      <point x="186" y="114"/>
      <point x="192" y="165"/>
      <point x="198" y="216" type="curve"/>
      <point x="391" y="218" type="line"/>
      <point x="384" y="160"/>
      <point x="377" y="109"/>
      <point x="377" y="79" type="curve" smooth="yes"/>
      <point x="377" y="25"/>
      <point x="400" y="-11"/>
      <point x="454" y="-11" type="curve" smooth="yes"/>
      <point x="472" y="-11"/>
      <point x="489" y="-6"/>
      <point x="503" y="6" type="curve"/>
      <point x="512" y="1" type="line"/>
      <point x="498" y="-22"/>
      <point x="489" y="-50"/>
      <point x="501" y="-78" type="curve" smooth="yes"/>
      <point x="510" y="-100"/>
      <point x="514" y="-128"/>
      <point x="465" y="-189" type="curve"/>
    </contour>
  </outline>
</glyph>
<glyph name="Enghe-cy" format="2">
  <advance width="950"/>
  <unicode hex="04A4"/>
  <outline>
    <contour>
      <point x="41" y="0" type="line"/>
      <point x="266" y="0" type="line"/>
      <point x="268" y="44" type="line"/>
      <point x="244" y="43"/>
      <point x="220" y="41"/>
      <point x="196" y="40" type="curve"/>
      <point x="199" y="57"/>
      <point x="201" y="83"/>
      <point x="203" y="119" type="curve" smooth="yes"/>
      <point x="215" y="334" type="line"/>
      <point x="574" y="338" type="line"/>
      <point x="576" y="378" type="line"/>
      <point x="217" y="378" type="line"/>
      <point x="226" y="544" type="line" smooth="yes"/>
      <point x="229" y="615"/>
      <point x="226" y="664"/>
      <point x="301" y="667" type="curve"/>
      <point x="303" y="700" type="line"/>
      <point x="78" y="700" type="line"/>
      <point x="75" y="656" type="line"/>
      <point x="99" y="657"/>
      <point x="124" y="659"/>
      <point x="148" y="660" type="curve"/>
      <point x="145" y="640"/>
      <point x="142" y="615"/>
      <point x="141" y="588" type="curve" smooth="yes"/>
      <point x="118" y="156" type="line" smooth="yes"/>
      <point x="114" y="85"/>
      <point x="118" y="36"/>
      <point x="43" y="33" type="curve"/>
    </contour>
    <contour>
      <point x="486" y="0" type="line"/>
      <point x="741" y="0" type="line"/>
      <point x="743" y="44" type="line"/>
      <point x="709" y="43"/>
      <point x="675" y="41"/>
      <point x="641" y="40" type="curve"/>
      <point x="644" y="57"/>
      <point x="646" y="83"/>
      <point x="648" y="119" type="curve" smooth="yes"/>
      <point x="670" y="540" type="line" smooth="yes"/>
      <point x="674" y="609"/>
      <point x="672" y="659"/>
      <point x="746" y="663" type="curve" smooth="yes"/>
      <point x="779" y="665" type="line" smooth="yes"/>
      <point x="854" y="670"/>
      <point x="912" y="643"/>
      <point x="906" y="525" type="curve"/>
      <point x="943" y="525" type="line"/>
      <point x="947" y="700" type="line"/>
      <point x="523" y="700" type="line"/>
      <point x="520" y="656" type="line"/>
      <point x="544" y="657"/>
      <point x="569" y="659"/>
      <point x="593" y="660" type="curve"/>
      <point x="590" y="640"/>
      <point x="587" y="615"/>
      <point x="586" y="588" type="curve" smooth="yes"/>
      <point x="563" y="156" type="line" smooth="yes"/>
      <point x="559" y="85"/>
      <point x="563" y="36"/>
      <point x="488" y="33" type="curve"/>
    </contour>
  </outline>
</glyph>
<glyph name="pemiddlehook-cy" format="2">
  <advance width="751"/>
  <unicode hex="04A7"/>
  <anchor x="319" y="0" name="bottom"/>
  <anchor x="345" y="512" name="top"/>
  <outline>
    <contour>
      <point x="103" y="0" type="curve"/>
      <point x="187" y="0" type="line"/>
      <point x="186" y="17"/>
      <point x="185" y="33"/>
      <point x="185" y="53" type="curve" smooth="yes"/>
      <point x="185" y="222"/>
      <point x="290" y="464"/>
      <point x="382" y="464" type="curve" smooth="yes"/>
      <point x="421" y="464"/>
      <point x="429" y="426"/>
      <point x="429" y="403" type="curve" smooth="yes"/>
      <point x="429" y="302"/>
      <point x="394" y="134"/>
      <point x="394" y="26" type="curve" smooth="yes"/>
      <point x="394" y="15"/>
      <point x="394" y="9"/>
      <point x="395" y="0" type="curve"/>
      <point x="479" y="0" type="line"/>
      <point x="478" y="17"/>
      <point x="477" y="33"/>
      <point x="477" y="53" type="curve" smooth="yes"/>
      <point x="477" y="145"/>
      <point x="511" y="285"/>
      <point x="511" y="381" type="curve" smooth="yes"/>
      <point x="511" y="451"/>
      <point x="482" y="511"/>
      <point x="402" y="511" type="curve" smooth="yes"/>
      <point x="337" y="511"/>
      <point x="273" y="465"/>
      <point x="205" y="283" type="curve"/>
      <point x="202" y="283" type="line"/>
      <point x="207" y="309"/>
      <point x="214" y="346"/>
      <point x="217" y="383" type="curve" smooth="yes"/>
      <point x="222" y="448"/>
      <point x="211" y="511"/>
      <point x="143" y="511" type="curve" smooth="yes"/>
      <point x="63" y="511"/>
      <point x="22" y="417"/>
      <point x="13" y="370" type="curve"/>
      <point x="41" y="364" type="line"/>
      <point x="61" y="435"/>
      <point x="92" y="461"/>
      <point x="114" y="461" type="curve" smooth="yes"/>
      <point x="137" y="461"/>
      <point x="141" y="440"/>
      <point x="141" y="416" type="curve" smooth="yes"/>
      <point x="141" y="386"/>
      <point x="140" y="382"/>
      <point x="122" y="226" type="curve" smooth="yes"/>
      <point x="107" y="100"/>
      <point x="102" y="60"/>
      <point x="102" y="26" type="curve" smooth="yes"/>
      <point x="102" y="15"/>
      <point x="102" y="9"/>
    </contour>
    <contour>
      <point x="531" y="-229" type="curve" smooth="yes"/>
      <point x="632" y="-229"/>
      <point x="747" y="-75"/>
      <point x="747" y="82" type="curve" smooth="yes"/>
      <point x="747" y="196"/>
      <point x="712" y="283"/>
      <point x="608" y="283" type="curve" smooth="yes"/>
      <point x="568" y="283"/>
      <point x="519" y="263"/>
      <point x="476" y="211" type="curve"/>
      <point x="479" y="156" type="line"/>
      <point x="506" y="205"/>
      <point x="554" y="229"/>
      <point x="583" y="229" type="curve" smooth="yes"/>
      <point x="641" y="229"/>
      <point x="659" y="168"/>
      <point x="659" y="86" type="curve" smooth="yes"/>
      <point x="659" y="-62"/>
      <point x="608" y="-194"/>
      <point x="523" y="-194" type="curve" smooth="yes"/>
      <point x="514" y="-194"/>
      <point x="505" y="-193"/>
      <point x="494" y="-191" type="curve"/>
      <point x="484" y="-222" type="line"/>
      <point x="500" y="-227"/>
      <point x="515" y="-229"/>
    </contour>
  </outline>
</glyph>
<glyph name="esdescender-cy" format="2">
  <advance width="473"/>
  <unicode hex="04AB"/>
  <outline>
    <contour>
      <point x="203" y="-235" type="line"/>
      <point x="284" y="-162"/>
      <point x="301" y="-93"/>
      <point x="263" y="-36" type="curve" smooth="yes"/>
      <point x="254" y="-24"/>
      <point x="248" y="-6"/>
      <point x="248" y="16" type="curve"/>
      <point x="214" y="10" type="line"/>
      <point x="198" y="-53"/>
      <point x="199" y="-80"/>
      <point x="208" y="-101" type="curve" smooth="yes"/>
      <point x="219" y="-123"/>
      <point x="225" y="-151"/>
      <point x="179" y="-212" type="curve"/>
    </contour>
    <component base="es-cy"/>
  </outline>
</glyph>
<glyph name="Tedescender-cy" format="2">
  <advance width="636"/>
  <unicode hex="04AC"/>
  <outline>
    <contour>
      <point x="373" y="-177" type="curve"/>
      <point x="415" y="-177" type="line"/>
      <point x="427" y="45" type="line"/>
      <point x="343" y="40" type="line"/>
      <point x="300" y="0" type="line"/>
      <point x="366" y="0"/>
      <point x="379" y="-63"/>
    </contour>
    <component base="T"/>
  </outline>
</glyph>
<glyph name="Ustraightstroke-cy" format="2">
  <advance width="641"/>
  <unicode hex="04B0"/>
  <outline>
    <contour>
      <point x="131" y="265" type="line"/>
      <point x="516" y="269" type="line"/>
      <point x="518" y="303" type="line"/>
      <point x="133" y="303" type="line"/>
    </contour>
    <component base="Y"/>
  </outline>
</glyph>
<glyph name="Hadescender-cy" format="2">
  <advance width="672"/>
  <unicode hex="04B2"/>
  <outline>
    <contour>
      <point x="617" y="-177" type="curve"/>
      <point x="659" y="-177" type="line"/>
      <point x="671" y="45" type="line"/>
      <point x="587" y="42" type="line"/>
      <point x="545" y="0" type="line"/>
      <point x="611" y="0"/>
      <point x="623" y="-63"/>
    </contour>
    <component base="Ha-cy"/>
  </outline>
</glyph>
<glyph name="Tetse-cy" format="2">
  <advance width="861"/>
  <unicode hex="04B4"/>
  <outline>
    <contour>
      <point x="757" y="-178" type="curve"/>
      <point x="798" y="-178" type="line"/>
      <point x="809" y="45" type="line"/>
      <point x="717" y="40" type="line"/>
      <point x="720" y="60"/>
      <point x="723" y="85"/>
      <point x="724" y="112" type="curve" smooth="yes"/>
      <point x="746" y="544" type="line" smooth="yes"/>
      <point x="750" y="615"/>
      <point x="748" y="664"/>
      <point x="823" y="667" type="curve"/>
      <point x="825" y="700" type="line"/>
      <point x="603" y="700" type="line"/>
      <point x="600" y="656" type="line"/>
      <point x="624" y="657"/>
      <point x="649" y="659"/>
      <point x="673" y="660" type="curve"/>
      <point x="670" y="643"/>
      <point x="667" y="617"/>
      <point x="665" y="581" type="curve" smooth="yes"/>
      <point x="641" y="123" type="line" smooth="yes"/>
      <point x="638" y="76"/>
      <point x="629" y="42"/>
      <point x="572" y="42" type="curve" smooth="yes"/>
      <point x="302" y="40" type="line"/>
      <point x="311" y="79"/>
      <point x="313" y="117"/>
      <point x="315" y="156" type="curve"/>
      <point x="344" y="664" type="line"/>
      <point x="452" y="664"/>
      <point x="483" y="629"/>
      <point x="478" y="489" type="curve"/>
      <point x="516" y="489" type="line"/>
      <point x="521" y="700" type="line"/>
      <point x="53" y="700" type="line"/>
      <point x="36" y="489" type="line"/>
      <point x="73" y="489" type="line"/>
      <point x="79" y="607"/>
      <point x="113" y="661"/>
      <point x="197" y="662" type="curve" smooth="yes"/>
      <point x="261" y="663" type="line"/>
      <point x="230" y="156" type="line" smooth="yes"/>
      <point x="226" y="76"/>
      <point x="215" y="33"/>
      <point x="156" y="33" type="curve"/>
      <point x="154" y="0" type="line"/>
      <point x="686" y="0" type="line" smooth="yes"/>
      <point x="752" y="0"/>
      <point x="762" y="-78"/>
    </contour>
  </outline>
</glyph>
<glyph name="chedescender-cy" format="2">
  <advance width="613"/>
  <unicode hex="04B7"/>
  <outline>
    <contour>
      <point x="481" y="-212" type="line"/>
      <point x="566" y="-139"/>
      <point x="586" y="-70"/>
      <point x="551" y="-13" type="curve" smooth="yes"/>
      <point x="535" y="13"/>
      <point x="537" y="41"/>
      <point x="546" y="67" type="curve"/>
      <point x="519" y="67" type="line"/>
      <point x="494" y="7" type="line"/>
      <point x="505" y="1" type="line"/>
      <point x="491" y="-22"/>
      <point x="482" y="-50"/>
      <point x="494" y="-78" type="curve" smooth="yes"/>
      <point x="503" y="-100"/>
      <point x="507" y="-128"/>
      <point x="458" y="-189" type="curve"/>
    </contour>
    <component base="che-cy"/>
  </outline>
</glyph>
<glyph name="Cheverticalstroke-cy" format="2">
  <advance width="694"/>
  <unicode hex="04B8"/>
  <outline>
    <contour>
      <point x="336" y="186" type="line"/>
      <point x="374" y="186" type="line"/>
      <point x="387" y="436" type="line"/>
      <point x="349" y="436" type="line"/>
    </contour>
    <component base="Che-cy"/>
  </outline>
</glyph>
<glyph name="Chedescenderabkhasian-cy" format="2">
  <advance width="813"/>
  <unicode hex="04BE"/>
  <outline>
    <contour>
      <point x="392" y="-186" type="line" smooth="yes"/>
      <point x="458" y="-186" type="line"/>
      <point x="457" y="0" type="line"/>
      <point x="402" y="-1" type="line"/>
    </contour>
    <component base="Cheabkhasian-cy"/>
  </outline>
</glyph>
<glyph name="chedescenderabkhasian-cy" format="2">
  <advance width="556"/>
  <unicode hex="04BF"/>
  <outline>
    <contour>
      <point x="286" y="-235" type="line"/>
      <point x="367" y="-162"/>
      <point x="384" y="-93"/>
      <point x="346" y="-36" type="curve" smooth="yes"/>
      <point x="337" y="-24"/>
      <point x="331" y="-6"/>
      <point x="331" y="16" type="curve"/>
      <point x="299" y="0" type="line"/>
      <point x="283" y="-47"/>
      <point x="279" y="-73"/>
      <point x="291" y="-101" type="curve" smooth="yes"/>
      <point x="302" y="-123"/>
      <point x="308" y="-151"/>
      <point x="262" y="-212" type="curve"/>
    </contour>
    <component base="cheabkhasian-cy" yxScale="0.052" xOffset="-16"/>
  </outline>
</glyph>
<glyph name="Kahook-cy" format="2">
  <advance width="645"/>
  <unicode hex="04C3"/>
  <outline>
    <contour>
      <point x="447" y="-238" type="line"/>
      <point x="564" y="-201"/>
      <point x="613" y="-132"/>
      <point x="617" y="-59" type="curve" smooth="yes"/>
      <point x="621" y="5"/>
      <point x="604" y="92"/>
      <point x="516" y="212" type="curve" smooth="yes"/>
      <point x="437" y="320"/>
      <point x="383" y="350"/>
      <point x="342" y="376" type="curve"/>
      <point x="448" y="532" type="line" smooth="yes"/>
      <point x="522" y="641"/>
      <point x="573" y="660"/>
      <point x="657" y="667" type="curve"/>
      <point x="659" y="700" type="line"/>
      <point x="444" y="700" type="line"/>
      <point x="442" y="659" type="line"/>
      <point x="503" y="661" type="line"/>
      <point x="474" y="639"/>
      <point x="446" y="603"/>
      <point x="427" y="577" type="curve" smooth="yes"/>
      <point x="292" y="380" type="line"/>
      <point x="217" y="380" type="line"/>
      <point x="226" y="544" type="line" smooth="yes"/>
      <point x="229" y="615"/>
      <point x="226" y="664"/>
      <point x="301" y="667" type="curve"/>
      <point x="303" y="700" type="line"/>
      <point x="78" y="700" type="line"/>
      <point x="75" y="656" type="line"/>
      <point x="148" y="660" type="line"/>
      <point x="145" y="640"/>
      <point x="142" y="615"/>
      <point x="141" y="588" type="curve" smooth="yes"/>
      <point x="118" y="156" type="line" smooth="yes"/>
      <point x="114" y="85"/>
      <point x="118" y="36"/>
      <point x="43" y="33" type="curve"/>
      <point x="41" y="0" type="line"/>
      <point x="266" y="0" type="line"/>
      <point x="268" y="44" type="line"/>
      <point x="196" y="40" type="line"/>
      <point x="199" y="57"/>
      <point x="201" y="83"/>
      <point x="203" y="119" type="curve" smooth="yes"/>
      <point x="215" y="340" type="line"/>
      <point x="264" y="341" type="line"/>
      <point x="291" y="324"/>
      <point x="370" y="265"/>
      <point x="440" y="168" type="curve" smooth="yes"/>
      <point x="533" y="41"/>
      <point x="546" y="-37"/>
      <point x="546" y="-73" type="curve" smooth="yes"/>
      <point x="546" y="-116"/>
      <point x="530" y="-177"/>
      <point x="439" y="-207" type="curve"/>
    </contour>
  </outline>
</glyph>
<glyph name="chekhakassian-cy" format="2">
  <advance width="582"/>
  <unicode hex="04CC"/>
  <outline>
    <contour>
      <point x="182" y="-196" type="line"/>
      <point x="255" y="-153"/>
      <point x="284" y="-113"/>
      <point x="285" y="-69" type="curve" smooth="yes"/>
      <point x="285" y="-26"/>
      <point x="267" y="-13"/>
      <point x="277" y="39" type="curve"/>
      <point x="246" y="46" type="line"/>
      <point x="221" y="-1"/>
      <point x="207" y="-30"/>
      <point x="207" y="-52" type="curve" smooth="yes"/>
      <point x="207" y="-69"/>
      <point x="211" y="-77"/>
      <point x="211" y="-94" type="curve" smooth="yes"/>
      <point x="211" y="-123"/>
      <point x="192" y="-144"/>
      <point x="162" y="-169" type="curve"/>
    </contour>
    <component base="che-cy"/>
  </outline>
</glyph>
<glyph name="dzeabkhasian-cy" format="2">
  <advance width="440"/>
  <unicode hex="04E1"/>
  <outline>
    <contour>
      <point x="187" y="-256" type="curve" smooth="yes"/>
      <point x="312" y="-256"/>
      <point x="394" y="-163"/>
      <point x="400" y="-27" type="curve" smooth="yes"/>
      <point x="405" y="78"/>
      <point x="353" y="172"/>
      <point x="178" y="173" type="curve"/>
      <point x="195" y="194"/>
      <point x="212" y="214"/>
      <point x="229" y="235" type="curve"/>
      <point x="430" y="484" type="line"/>
      <point x="400" y="512" type="line"/>
      <point x="366" y="483"/>
      <point x="327" y="479"/>
      <point x="310" y="479" type="curve" smooth="yes"/>
      <point x="250" y="479"/>
      <point x="218" y="511"/>
      <point x="158" y="511" type="curve" smooth="yes"/>
      <point x="100" y="511"/>
      <point x="50" y="468"/>
      <point x="50" y="404" type="curve" smooth="yes"/>
      <point x="50" y="381"/>
      <point x="56" y="358"/>
      <point x="63" y="338" type="curve"/>
      <point x="90" y="347" type="line"/>
      <point x="85" y="361"/>
      <point x="83" y="374"/>
      <point x="83" y="385" type="curve" smooth="yes"/>
      <point x="83" y="432"/>
      <point x="115" y="443"/>
      <point x="138" y="443" type="curve" smooth="yes"/>
      <point x="182" y="443"/>
      <point x="213" y="418"/>
      <point x="256" y="415" type="curve"/>
      <point x="282" y="412"/>
      <point x="315" y="418"/>
      <point x="350" y="455" type="curve"/>
      <point x="352" y="455" type="line"/>
      <point x="305" y="398"/>
      <point x="267" y="352"/>
      <point x="212" y="280" type="curve" smooth="yes"/>
      <point x="185" y="244"/>
      <point x="157" y="207"/>
      <point x="126" y="170" type="curve"/>
      <point x="127" y="134" type="line"/>
      <point x="137" y="135"/>
      <point x="147" y="135"/>
      <point x="157" y="135" type="curve" smooth="yes"/>
      <point x="271" y="135"/>
      <point x="316" y="75"/>
      <point x="311" y="-38" type="curve" smooth="yes"/>
      <point x="307" y="-146"/>
      <point x="254" y="-219"/>
      <point x="175" y="-219" type="curve" smooth="yes"/>
      <point x="135" y="-219"/>
      <point x="94" y="-201"/>
      <point x="74" y="-164" type="curve"/>
      <point x="90" y="-149"/>
      <point x="98" y="-136"/>
      <point x="99" y="-118" type="curve" smooth="yes"/>
      <point x="100" y="-94"/>
      <point x="87" y="-71"/>
      <point x="54" y="-72" type="curve" smooth="yes"/>
      <point x="24" y="-73"/>
      <point x="7" y="-97"/>
      <point x="5" y="-126" type="curve" smooth="yes"/>
      <point x="1" y="-184"/>
      <point x="70" y="-256"/>
    </contour>
  </outline>
</glyph>
<glyph name="obarred-cy" format="2">
  <advance width="521"/>
  <unicode hex="04E9"/>
  <anchor x="274" y="512" name="top"/>
  <outline>
    <contour>
      <point x="101" y="242" type="line"/>
      <point x="427" y="246" type="line"/>
      <point x="429" y="280" type="line"/>
      <point x="103" y="280" type="line"/>
    </contour>
    <component base="o-cy"/>
  </outline>
</glyph>
<glyph name="gedescender-cy" format="2">
  <advance width="430"/>
  <unicode hex="04F7"/>
  <outline>
    <contour>
      <point x="302" y="-212" type="line"/>
      <point x="387" y="-139"/>
      <point x="407" y="-70"/>
      <point x="372" y="-13" type="curve" smooth="yes"/>
      <point x="350" y="20"/>
      <point x="357" y="37"/>
      <point x="388" y="128" type="curve"/>
      <point x="361" y="136" type="line"/>
      <point x="325" y="64"/>
      <point x="264" y="27"/>
      <point x="202" y="27" type="curve" smooth="yes"/>
      <point x="150" y="27"/>
      <point x="109" y="55"/>
      <point x="111" y="107" type="curve" smooth="yes"/>
      <point x="114" y="161"/>
      <point x="156" y="201"/>
      <point x="228" y="245" type="curve" smooth="yes"/>
      <point x="318" y="300"/>
      <point x="369" y="339"/>
      <point x="372" y="406" type="curve" smooth="yes"/>
      <point x="375" y="473"/>
      <point x="319" y="512"/>
      <point x="226" y="512" type="curve" smooth="yes"/>
      <point x="150" y="512"/>
      <point x="72" y="477"/>
      <point x="14" y="396" type="curve"/>
      <point x="44" y="376" type="line"/>
      <point x="84" y="439"/>
      <point x="153" y="471"/>
      <point x="197" y="471" type="curve" smooth="yes"/>
      <point x="244" y="471"/>
      <point x="279" y="451"/>
      <point x="279" y="403" type="curve" smooth="yes"/>
      <point x="279" y="356"/>
      <point x="251" y="327"/>
      <point x="196" y="292" type="curve" smooth="yes"/>
      <point x="102" y="233"/>
      <point x="19" y="191"/>
      <point x="14" y="106" type="curve" smooth="yes"/>
      <point x="10" y="26"/>
      <point x="80" y="-17"/>
      <point x="185" y="-17" type="curve" smooth="yes"/>
      <point x="236" y="-17"/>
      <point x="278" y="-2"/>
      <point x="315" y="29" type="curve"/>
      <point x="324" y="23" type="line"/>
      <point x="310" y="0"/>
      <point x="303" y="-50"/>
      <point x="315" y="-78" type="curve" smooth="yes"/>
      <point x="324" y="-100"/>
      <point x="328" y="-128"/>
      <point x="279" y="-189" type="curve"/>
    </contour>
  </outline>
</glyph>
<glyph name="Gestrokehook-cy" format="2">
  <advance width="555"/>
  <unicode hex="04FA"/>
  <outline>
    <contour>
      <point x="130" y="-229" type="curve" smooth="yes"/>
      <point x="261" y="-229"/>
      <point x="299" y="-131"/>
      <point x="307" y="14" type="curve" smooth="yes"/>
      <point x="308" y="44" type="line"/>
      <point x="206" y="40" type="line"/>
      <point x="209" y="57"/>
      <point x="212" y="83"/>
      <point x="213" y="119" type="curve" smooth="yes"/>
      <point x="224" y="328" type="line"/>
      <point x="378" y="330" type="line"/>
      <point x="380" y="373" type="line"/>
      <point x="226" y="373" type="line"/>
      <point x="236" y="552" type="line" smooth="yes"/>
      <point x="239" y="622"/>
      <point x="243" y="661"/>
      <point x="311" y="663" type="curve" smooth="yes"/>
      <point x="384" y="665" type="line" smooth="yes"/>
      <point x="459" y="667"/>
      <point x="521" y="643"/>
      <point x="515" y="525" type="curve"/>
      <point x="548" y="525" type="line"/>
      <point x="552" y="700" type="line"/>
      <point x="92" y="700" type="line"/>
      <point x="90" y="656" type="line"/>
      <point x="114" y="657"/>
      <point x="139" y="659"/>
      <point x="163" y="660" type="curve"/>
      <point x="160" y="640"/>
      <point x="157" y="615"/>
      <point x="156" y="588" type="curve" smooth="yes"/>
      <point x="144" y="373" type="line"/>
      <point x="54" y="373" type="line"/>
      <point x="52" y="326" type="line"/>
      <point x="142" y="327" type="line"/>
      <point x="132" y="156" type="line" smooth="yes"/>
      <point x="128" y="85"/>
      <point x="132" y="36"/>
      <point x="57" y="33" type="curve"/>
      <point x="55" y="0" type="line"/>
      <point x="223" y="0" type="line"/>
      <point x="217" y="-110"/>
      <point x="190" y="-192"/>
      <point x="98" y="-192" type="curve" smooth="yes"/>
      <point x="82" y="-192"/>
      <point x="59" y="-188"/>
      <point x="39" y="-182" type="curve"/>
      <point x="28" y="-212" type="line"/>
      <point x="65" y="-223"/>
      <point x="102" y="-229"/>
    </contour>
  </outline>
</glyph>
<glyph name="Hastroke-cy" format="2">
  <advance width="652"/>
  <unicode hex="04FE"/>
  <outline>
    <contour>
      <point x="-4" y="0" type="line"/>
      <point x="192" y="0" type="line"/>
      <point x="196" y="44" type="line"/>
      <point x="113" y="39" type="line"/>
      <point x="113" y="41" type="line"/>
      <point x="149" y="79"/>
      <point x="178" y="117"/>
      <point x="206" y="153" type="curve" smooth="yes"/>
      <point x="246" y="203"/>
      <point x="282" y="251"/>
      <point x="322" y="302" type="curve"/>
      <point x="324" y="302" type="line"/>
      <point x="377" y="216"/>
      <point x="421" y="148"/>
      <point x="446" y="106" type="curve" smooth="yes"/>
      <point x="466" y="72"/>
      <point x="468" y="31"/>
      <point x="397" y="33" type="curve"/>
      <point x="393" y="0" type="line"/>
      <point x="639" y="0" type="line"/>
      <point x="643" y="44" type="line"/>
      <point x="585" y="42" type="line"/>
      <point x="566" y="75"/>
      <point x="545" y="105"/>
      <point x="526" y="135" type="curve"/>
      <point x="396" y="329" type="line"/>
      <point x="396" y="331" type="line"/>
      <point x="548" y="331" type="line"/>
      <point x="550" y="373" type="line"/>
      <point x="377" y="372" type="line"/>
      <point x="377" y="374" type="line"/>
      <point x="504" y="528" type="line" smooth="yes"/>
      <point x="553" y="588"/>
      <point x="611" y="658"/>
      <point x="676" y="667" type="curve"/>
      <point x="679" y="700" type="line"/>
      <point x="482" y="700" type="line"/>
      <point x="478" y="656" type="line"/>
      <point x="562" y="660" type="line"/>
      <point x="562" y="658" type="line"/>
      <point x="539" y="639"/>
      <point x="500" y="592"/>
      <point x="462" y="544" type="curve" smooth="yes"/>
      <point x="351" y="404" type="line"/>
      <point x="349" y="404" type="line"/>
      <point x="305" y="475"/>
      <point x="265" y="544"/>
      <point x="245" y="584" type="curve" smooth="yes"/>
      <point x="213" y="649"/>
      <point x="232" y="663"/>
      <point x="321" y="667" type="curve"/>
      <point x="324" y="700" type="line"/>
      <point x="64" y="700" type="line"/>
      <point x="60" y="656" type="line"/>
      <point x="116" y="658" type="line"/>
      <point x="125" y="627"/>
      <point x="136" y="605"/>
      <point x="171" y="547" type="curve" smooth="yes"/>
      <point x="194" y="509"/>
      <point x="227" y="456"/>
      <point x="278" y="375" type="curve"/>
      <point x="278" y="373" type="line"/>
      <point x="102" y="373" type="line"/>
      <point x="100" y="327" type="line"/>
      <point x="291" y="331" type="line"/>
      <point x="291" y="329" type="line"/>
      <point x="149" y="153" type="line" smooth="yes"/>
      <point x="96" y="88"/>
      <point x="64" y="46"/>
      <point x="0" y="33" type="curve"/>
    </contour>
  </outline>
</glyph>
<glyph name="hastroke-cy" format="2">
  <advance width="530"/>
  <unicode hex="04FF"/>
  <outline>
    <contour>
      <point x="103" y="242" type="line"/>
      <point x="466" y="246" type="line"/>
      <point x="468" y="279" type="line"/>
      <point x="105" y="279" type="line"/>
    </contour>
    <component base="x" yxScale="0.052"/>
  </outline>
</glyph>
<glyph name="Shhadescender-cy" format="2">
  <advance width="673"/>
  <unicode hex="0526"/>
  <outline>
    <contour>
      <point x="608" y="-177" type="curve"/>
      <point x="650" y="-177" type="line"/>
      <point x="662" y="45" type="line"/>
      <point x="579" y="40" type="line"/>
      <point x="536" y="0" type="line"/>
      <point x="602" y="0"/>
      <point x="614" y="-63"/>
    </contour>
    <component base="Che-cy" xScale="-1" yScale="-1" xOffset="704" yOffset="700"/>
  </outline>
</glyph>
<glyph name="shhadescender-cy" format="2">
  <advance width="603"/>
  <unicode hex="0527"/>
  <outline>
    <contour>
      <point x="471" y="-212" type="line"/>
      <point x="556" y="-139"/>
      <point x="576" y="-70"/>
      <point x="541" y="-13" type="curve" smooth="yes"/>
      <point x="525" y="13"/>
      <point x="527" y="41"/>
      <point x="536" y="67" type="curve"/>
      <point x="509" y="67" type="line"/>
      <point x="484" y="7" type="line"/>
      <point x="495" y="1" type="line"/>
      <point x="481" y="-22"/>
      <point x="472" y="-50"/>
      <point x="484" y="-78" type="curve" smooth="yes"/>
      <point x="493" y="-100"/>
      <point x="497" y="-128"/>
      <point x="448" y="-189" type="curve"/>
    </contour>
    <component base="shha-cy"/>
  </outline>
</glyph>
<glyph name="EnLeftHook-cy" format="2">
  <advance width="774"/>
  <unicode hex="0528"/>
  <outline>
    <contour>
      <point x="18" y="-229" type="curve" smooth="yes"/>
      <point x="149" y="-229"/>
      <point x="187" y="-131"/>
      <point x="195" y="14" type="curve" smooth="yes"/>
      <point x="211" y="334" type="line"/>
      <point x="570" y="338" type="line"/>
      <point x="560" y="156" type="line" smooth="yes"/>
      <point x="557" y="85"/>
      <point x="560" y="36"/>
      <point x="485" y="33" type="curve"/>
      <point x="483" y="0" type="line"/>
      <point x="704" y="0" type="line"/>
      <point x="706" y="44" type="line"/>
      <point x="634" y="40" type="line"/>
      <point x="637" y="57"/>
      <point x="639" y="83"/>
      <point x="641" y="119" type="curve" smooth="yes"/>
      <point x="664" y="557" type="line" smooth="yes"/>
      <point x="668" y="628"/>
      <point x="674" y="664"/>
      <point x="739" y="667" type="curve"/>
      <point x="741" y="700" type="line"/>
      <point x="520" y="700" type="line"/>
      <point x="518" y="656" type="line"/>
      <point x="590" y="660" type="line"/>
      <point x="587" y="640"/>
      <point x="584" y="615"/>
      <point x="583" y="588" type="curve" smooth="yes"/>
      <point x="572" y="378" type="line"/>
      <point x="213" y="378" type="line"/>
      <point x="223" y="556" type="line" smooth="yes"/>
      <point x="227" y="627"/>
      <point x="233" y="664"/>
      <point x="298" y="667" type="curve"/>
      <point x="300" y="700" type="line"/>
      <point x="79" y="700" type="line"/>
      <point x="77" y="656" type="line"/>
      <point x="149" y="660" type="line"/>
      <point x="146" y="640"/>
      <point x="144" y="615"/>
      <point x="142" y="588" type="curve" smooth="yes"/>
      <point x="111" y="9" type="line" smooth="yes"/>
      <point x="105" y="-105"/>
      <point x="81" y="-192"/>
      <point x="-14" y="-192" type="curve" smooth="yes"/>
      <point x="-30" y="-192"/>
      <point x="-53" y="-188"/>
      <point x="-73" y="-182" type="curve"/>
      <point x="-84" y="-212" type="line"/>
      <point x="-47" y="-223"/>
      <point x="-10" y="-229"/>
    </contour>
  </outline>
</glyph>
<glyph name="emdash" format="2">
  <advance width="770"/>
  <unicode hex="2014"/>
  <outline>
    <contour>
      <point x="708" y="353" type="line"/>
      <point x="66" y="353" type="line"/>
      <point x="63" y="287" type="line"/>
      <point x="705" y="291" type="line"/>
    </contour>
  </outline>
</glyph>
<glyph name="perthousand" format="2">
  <advance width="1273"/>
  <unicode hex="2030"/>
  <outline>
    <contour>
      <point x="155" y="-16" type="line"/>
      <point x="755" y="674" type="line"/>
      <point x="711" y="716" type="line"/>
      <point x="116" y="22" type="line"/>
    </contour>
    <contour>
      <point x="224" y="335" type="curve" smooth="yes"/>
      <point x="326" y="335"/>
      <point x="413" y="429"/>
      <point x="418" y="532" type="curve" smooth="yes"/>
      <point x="423" y="624"/>
      <point x="368" y="719"/>
      <point x="244" y="716" type="curve" smooth="yes"/>
      <point x="127" y="714"/>
      <point x="58" y="616"/>
      <point x="53" y="522" type="curve" smooth="yes"/>
      <point x="48" y="426"/>
      <point x="105" y="335"/>
    </contour>
    <contour>
      <point x="229" y="373" type="curve" smooth="yes"/>
      <point x="150" y="373"/>
      <point x="135" y="473"/>
      <point x="140" y="537" type="curve" smooth="yes"/>
      <point x="142" y="588"/>
      <point x="168" y="679"/>
      <point x="243" y="679" type="curve" smooth="yes"/>
      <point x="318" y="679"/>
      <point x="335" y="581"/>
      <point x="331" y="514" type="curve" smooth="yes"/>
      <point x="328" y="452"/>
      <point x="302" y="373"/>
    </contour>
    <contour>
      <point x="639" y="-16" type="curve" smooth="yes"/>
      <point x="741" y="-16"/>
      <point x="828" y="77"/>
      <point x="833" y="180" type="curve" smooth="yes"/>
      <point x="837" y="272"/>
      <point x="783" y="367"/>
      <point x="659" y="365" type="curve" smooth="yes"/>
      <point x="542" y="363"/>
      <point x="473" y="264"/>
      <point x="468" y="171" type="curve" smooth="yes"/>
      <point x="463" y="75"/>
      <point x="520" y="-16"/>
    </contour>
    <contour>
      <point x="644" y="21" type="curve" smooth="yes"/>
      <point x="565" y="21"/>
      <point x="551" y="121"/>
      <point x="555" y="185" type="curve" smooth="yes"/>
      <point x="558" y="235"/>
      <point x="583" y="327"/>
      <point x="658" y="327" type="curve" smooth="yes"/>
      <point x="733" y="327"/>
      <point x="750" y="229"/>
      <point x="746" y="162" type="curve" smooth="yes"/>
      <point x="743" y="100"/>
      <point x="717" y="21"/>
    </contour>
    <contour>
      <point x="1039" y="-16" type="curve" smooth="yes"/>
      <point x="1141" y="-16"/>
      <point x="1228" y="77"/>
      <point x="1233" y="180" type="curve" smooth="yes"/>
      <point x="1237" y="272"/>
      <point x="1183" y="367"/>
      <point x="1059" y="365" type="curve" smooth="yes"/>
      <point x="942" y="363"/>
      <point x="873" y="264"/>
      <point x="868" y="171" type="curve" smooth="yes"/>
      <point x="863" y="75"/>
      <point x="920" y="-16"/>
    </contour>
    <contour>
      <point x="1044" y="21" type="curve" smooth="yes"/>
      <point x="965" y="21"/>
      <point x="951" y="121"/>
      <point x="955" y="185" type="curve" smooth="yes"/>
      <point x="958" y="235"/>
      <point x="983" y="327"/>
      <point x="1058" y="327" type="curve" smooth="yes"/>
      <point x="1133" y="327"/>
      <point x="1149" y="229"/>
      <point x="1146" y="162" type="curve" smooth="yes"/>
      <point x="1143" y="100"/>
      <point x="1117" y="21"/>
    </contour>
  </outline>
</glyph>
<glyph name="minute" format="2">
  <advance width="248"/>
  <unicode hex="2032"/>
  <outline>
    <contour>
      <point x="80" y="498" type="line"/>
      <point x="203" y="752" type="line"/>
      <point x="130" y="781" type="line"/>
      <point x="45" y="513" type="line"/>
    </contour>
  </outline>
</glyph>
<glyph name="foursuperior" format="2">
  <advance width="374"/>
  <unicode hex="2074"/>
  <outline>
    <contour>
      <point x="156" y="305" type="line"/>
      <point x="302" y="305" type="line"/>
      <point x="304" y="339" type="line"/>
      <point x="262" y="337" type="line"/>
      <point x="266" y="410" type="line"/>
      <point x="322" y="410" type="line"/>
      <point x="324" y="446" type="line"/>
      <point x="268" y="447" type="line"/>
      <point x="281" y="716" type="line"/>
      <point x="254" y="716" type="line"/>
      <point x="43" y="440" type="line"/>
      <point x="41" y="410" type="line"/>
      <point x="210" y="410" type="line"/>
      <point x="210" y="398" type="line" smooth="yes"/>
      <point x="208" y="360"/>
      <point x="198" y="335"/>
      <point x="157" y="334" type="curve"/>
    </contour>
    <contour>
      <point x="213" y="448" type="line"/>
      <point x="89" y="450" type="line"/>
      <point x="222" y="627" type="line"/>
      <point x="223" y="627" type="line"/>
    </contour>
  </outline>
</glyph>
<glyph name="tugrik" format="2">
  <advance width="636"/>
  <unicode hex="20AE"/>
  <outline>
    <contour>
      <point x="130" y="334" type="line"/>
      <point x="525" y="446" type="line"/>
      <point x="527" y="480" type="line"/>
      <point x="132" y="372" type="line"/>
    </contour>
    <contour>
      <point x="124" y="197" type="line"/>
      <point x="519" y="309" type="line"/>
      <point x="521" y="343" type="line"/>
      <point x="126" y="235" type="line"/>
    </contour>
    <component base="T"/>
  </outline>
</glyph>
<glyph name="hryvnia" format="2">
  <advance width="624"/>
  <unicode hex="20B4"/>
  <outline>
    <contour>
      <point x="308" y="-16" type="curve" smooth="yes"/>
      <point x="427" y="-16"/>
      <point x="486" y="26"/>
      <point x="551" y="179" type="curve"/>
      <point x="510" y="179" type="line"/>
      <point x="465" y="68"/>
      <point x="425" y="26"/>
      <point x="332" y="26" type="curve" smooth="yes"/>
      <point x="243" y="26"/>
      <point x="173" y="65"/>
      <point x="173" y="144" type="curve" smooth="yes"/>
      <point x="173" y="202"/>
      <point x="212" y="247"/>
      <point x="303" y="303" type="curve"/>
      <point x="303" y="307" type="line"/>
      <point x="332" y="323"/>
      <point x="432" y="374"/>
      <point x="476" y="407" type="curve"/>
      <point x="476" y="413" type="line"/>
      <point x="534" y="455"/>
      <point x="572" y="501"/>
      <point x="572" y="563" type="curve" smooth="yes"/>
      <point x="572" y="647"/>
      <point x="501" y="714"/>
      <point x="375" y="714" type="curve" smooth="yes"/>
      <point x="291" y="714"/>
      <point x="215" y="684"/>
      <point x="164" y="621" type="curve"/>
      <point x="171" y="707" type="line"/>
      <point x="121" y="707" type="line"/>
      <point x="108" y="465" type="line"/>
      <point x="144" y="465" type="line"/>
      <point x="157" y="578"/>
      <point x="235" y="676"/>
      <point x="351" y="676" type="curve" smooth="yes"/>
      <point x="438" y="676"/>
      <point x="478" y="621"/>
      <point x="478" y="560" type="curve" smooth="yes"/>
      <point x="478" y="499"/>
      <point x="438" y="451"/>
      <point x="322" y="391" type="curve" smooth="yes"/>
      <point x="245" y="349"/>
      <point x="179" y="312"/>
      <point x="135" y="270" type="curve"/>
      <point x="135" y="265" type="line"/>
      <point x="105" y="234"/>
      <point x="79" y="192"/>
      <point x="79" y="137" type="curve" smooth="yes"/>
      <point x="79" y="23"/>
      <point x="192" y="-16"/>
    </contour>
    <contour>
      <point x="61" y="267" type="line"/>
      <point x="566" y="269" type="line"/>
      <point x="568" y="303" type="line"/>
      <point x="63" y="305" type="line"/>
    </contour>
    <contour>
      <point x="67" y="374" type="line"/>
      <point x="572" y="376" type="line"/>
      <point x="574" y="410" type="line"/>
      <point x="69" y="412" type="line"/>
    </contour>
  </outline>
</glyph>
<glyph name="ruble" format="2">
  <advance width="597"/>
  <unicode hex="20BD"/>
  <outline>
    <contour>
      <point x="39" y="163" type="line"/>
      <point x="387" y="167" type="line"/>
      <point x="389" y="201" type="line"/>
      <point x="41" y="201" type="line"/>
    </contour>
    <contour>
      <point x="39" y="269" type="line"/>
      <point x="162" y="270" type="line"/>
      <point x="163.009" y="307" type="line"/>
      <point x="41" y="307" type="line"/>
    </contour>
    <contour>
      <point x="297" y="702" type="curve" smooth="yes"/>
      <point x="219" y="702"/>
      <point x="148" y="701"/>
      <point x="78" y="700" type="curve"/>
      <point x="75" y="656" type="line"/>
      <point x="99" y="657"/>
      <point x="124" y="659"/>
      <point x="148" y="660" type="curve"/>
      <point x="145" y="640"/>
      <point x="143" y="615"/>
      <point x="141" y="588" type="curve" smooth="yes"/>
      <point x="118" y="156" type="line"/>
      <point x="115" y="85"/>
      <point x="118" y="36"/>
      <point x="43" y="33" type="curve"/>
      <point x="41" y="0" type="line"/>
      <point x="282" y="0" type="line"/>
      <point x="284" y="45" type="line"/>
      <point x="253" y="43"/>
      <point x="223" y="42"/>
      <point x="192" y="40" type="curve"/>
      <point x="195" y="57"/>
      <point x="197" y="83"/>
      <point x="199" y="119" type="curve" smooth="yes"/>
      <point x="207" y="264" type="line"/>
      <point x="220" y="263"/>
      <point x="239" y="263"/>
      <point x="246" y="263" type="curve" smooth="yes"/>
      <point x="520" y="263"/>
      <point x="584" y="402"/>
      <point x="585" y="506" type="curve"/>
      <point x="585" y="634"/>
      <point x="490" y="702"/>
    </contour>
    <contour>
      <point x="293" y="663" type="curve" smooth="yes"/>
      <point x="415" y="663"/>
      <point x="497" y="615"/>
      <point x="491" y="489" type="curve" smooth="yes"/>
      <point x="485" y="372"/>
      <point x="388" y="303"/>
      <point x="274" y="303" type="curve" smooth="yes"/>
      <point x="250" y="303"/>
      <point x="234" y="303"/>
      <point x="209" y="306" type="curve"/>
      <point x="222" y="549" type="line"/>
      <point x="225" y="620"/>
      <point x="230" y="663"/>
    </contour>
  </outline>
</glyph>
<glyph name="partialdiff" format="2">
  <advance width="503"/>
  <unicode hex="2202"/>
  <outline>
    <contour>
      <point x="188" y="-11" type="curve" smooth="yes"/>
      <point x="318" y="-11"/>
      <point x="440" y="78"/>
      <point x="454" y="348" type="curve" smooth="yes"/>
      <point x="466" y="584"/>
      <point x="392" y="778"/>
      <point x="147" y="758" type="curve"/>
      <point x="145" y="725" type="line"/>
      <point x="335" y="730"/>
      <point x="374" y="595"/>
      <point x="377" y="459" type="curve"/>
      <point x="352" y="487"/>
      <point x="316" y="501"/>
      <point x="279" y="503" type="curve" smooth="yes"/>
      <point x="156" y="507"/>
      <point x="39" y="392"/>
      <point x="29" y="209" type="curve" smooth="yes"/>
      <point x="22" y="64"/>
      <point x="98" y="-11"/>
    </contour>
    <contour>
      <point x="208" y="27" type="curve" smooth="yes"/>
      <point x="150" y="27"/>
      <point x="107" y="96"/>
      <point x="114" y="220" type="curve"/>
      <point x="122" y="379"/>
      <point x="207" y="463"/>
      <point x="277" y="463" type="curve" smooth="yes"/>
      <point x="322" y="463"/>
      <point x="356" y="444"/>
      <point x="377" y="398" type="curve"/>
      <point x="365" y="164"/>
      <point x="305" y="27"/>
    </contour>
  </outline>
</glyph>
<glyph name="minus" format="2">
  <advance width="531"/>
  <unicode hex="2212"/>
  <outline>
    <contour>
      <point x="49" y="390" type="line"/>
      <point x="47" y="340" type="line"/>
      <point x="493" y="340" type="line"/>
      <point x="495" y="390" type="line"/>
    </contour>
  </outline>
</glyph>
<glyph name="divisionslash" format="2">
  <advance width="354"/>
  <unicode hex="2215"/>
  <outline>
    <contour>
      <point x="335" y="746" type="line"/>
      <point x="-35" y="-40" type="line"/>
      <point x="-1" y="-57" type="line"/>
      <point x="374" y="726" type="line"/>
    </contour>
  </outline>
</glyph>
<glyph name="radical" format="2">
  <advance width="836"/>
  <unicode hex="221A"/>
  <outline>
    <contour>
      <point x="266" y="-3" type="line"/>
      <point x="311" y="-3" type="line"/>
      <point x="635" y="826" type="line"/>
      <point x="900" y="823" type="line"/>
      <point x="904" y="862" type="line"/>
      <point x="603" y="862" type="line"/>
      <point x="372" y="268" type="line" smooth="yes"/>
      <point x="352" y="217"/>
      <point x="332" y="165"/>
      <point x="312" y="114" type="curve"/>
      <point x="310" y="114" type="line"/>
      <point x="295" y="166"/>
      <point x="283" y="221"/>
      <point x="268" y="273" type="curve" smooth="yes"/>
      <point x="205" y="500" type="line"/>
      <point x="11" y="500" type="line"/>
      <point x="7" y="467" type="line"/>
      <point x="132" y="464" type="line"/>
      <point x="133" y="448"/>
      <point x="140" y="424"/>
      <point x="153" y="381" type="curve" smooth="yes"/>
    </contour>
  </outline>
</glyph>
<glyph name="integral" format="2">
  <advance width="390"/>
  <unicode hex="222B"/>
  <outline>
    <contour>
      <point x="31" y="-271" type="curve" smooth="yes"/>
      <point x="152" y="-271"/>
      <point x="212" y="-173"/>
      <point x="218" y="-42" type="curve" smooth="yes"/>
      <point x="249" y="592" type="line" smooth="yes"/>
      <point x="253" y="680"/>
      <point x="271" y="715"/>
      <point x="317" y="720" type="curve" smooth="yes"/>
      <point x="332" y="721"/>
      <point x="342" y="719"/>
      <point x="348" y="714" type="curve"/>
      <point x="347" y="684"/>
      <point x="362" y="661"/>
      <point x="390" y="661" type="curve" smooth="yes"/>
      <point x="421" y="660"/>
      <point x="433" y="684"/>
      <point x="433" y="704" type="curve" smooth="yes"/>
      <point x="433" y="736"/>
      <point x="412" y="760"/>
      <point x="352" y="760" type="curve" smooth="yes"/>
      <point x="230" y="760"/>
      <point x="174" y="662"/>
      <point x="167" y="531" type="curve" smooth="yes"/>
      <point x="136" y="-102" type="line" smooth="yes"/>
      <point x="132" y="-182"/>
      <point x="108" y="-228"/>
      <point x="69" y="-230" type="curve" smooth="yes"/>
      <point x="52" y="-231"/>
      <point x="40" y="-229"/>
      <point x="30" y="-225" type="curve"/>
      <point x="32" y="-219"/>
      <point x="33" y="-214"/>
      <point x="33" y="-209" type="curve" smooth="yes"/>
      <point x="33" y="-187"/>
      <point x="16" y="-171"/>
      <point x="-8" y="-171" type="curve" smooth="yes"/>
      <point x="-40" y="-170"/>
      <point x="-51" y="-194"/>
      <point x="-51" y="-214" type="curve" smooth="yes"/>
      <point x="-51" y="-246"/>
      <point x="-30" y="-271"/>
    </contour>
  </outline>
</glyph>
<glyph name="greaterequal" format="2">
  <advance width="530"/>
  <unicode hex="2265"/>
  <guideline x="206" y="571" angle="0"/>
  <guideline x="474" y="28" angle="86.9335"/>
  <outline>
    <contour>
      <point x="27" y="0" type="line"/>
      <point x="472" y="0" type="line"/>
      <point x="475" y="56" type="line"/>
      <point x="30" y="52" type="line"/>
    </contour>
    <component base="greater" xOffset="3" yOffset="27"/>
  </outline>
</glyph>
<glyph name="lozenge" format="2">
  <advance width="485"/>
  <unicode hex="25CA"/>
  <outline>
    <contour>
      <point x="285" y="760" type="line"/>
      <point x="259" y="760" type="line"/>
      <point x="41" y="386" type="line"/>
      <point x="40" y="360" type="line"/>
      <point x="215" y="-16" type="line"/>
      <point x="241" y="-16" type="line"/>
      <point x="454" y="367" type="line"/>
      <point x="455" y="393" type="line"/>
    </contour>
    <contour>
      <point x="269" y="688" type="line"/>
      <point x="406" y="380" type="line"/>
      <point x="234" y="63" type="line"/>
      <point x="232" y="63" type="line"/>
      <point x="87" y="376" type="line"/>
      <point x="267" y="688" type="line"/>
    </contour>
  </outline>
</glyph>
